SplineFontDB: 3.0
FontName: mnicmpDiamond-Regular
FullName: mnicmp Diamond Regular
FamilyName: mnicmp Diamond
Weight: Regular
Copyright: Copyright (c) 2017, Stewart C. Russell - @scruss
UComments: "2017-2-4: Created with FontForge (http://fontforge.org)"
Version: 001.000
ItalicAngle: 0
UnderlinePosition: -100
UnderlineWidth: 50
Ascent: 800
Descent: 200
InvalidEm: 0
LayerCount: 2
Layer: 0 0 "Back" 1
Layer: 1 0 "Fore" 0
XUID: [1021 88 1043587470 1231121]
StyleMap: 0x0040
FSType: 0
OS2Version: 0
OS2_WeightWidthSlopeOnly: 0
OS2_UseTypoMetrics: 1
CreationTime: 1486249178
ModificationTime: 1486415615
PfmFamily: 49
TTFWeight: 400
TTFWidth: 5
LineGap: 90
VLineGap: 0
OS2TypoAscent: 0
OS2TypoAOffset: 1
OS2TypoDescent: 0
OS2TypoDOffset: 1
OS2TypoLinegap: 90
OS2WinAscent: 0
OS2WinAOffset: 1
OS2WinDescent: 0
OS2WinDOffset: 1
HheadAscent: 0
HheadAOffset: 1
HheadDescent: 0
HheadDOffset: 1
OS2Vendor: 'PfEd'
MarkAttachClasses: 1
DEI: 91125

StartChar: glyph0
Encoding: 8593 8593 0
Width: 600
VWidth: 0
UnlinkRmOvrlpSave: 1
Flags: W
HStem: 200 21G<293 307> 200 21G<293 307> 533 100<107.757 172.243 427.757 492.243> 617 100<160.757 225.243 374.757 439.243> 780 20G<293 307>
VStem: 90 100<550.757 615.243> 143 100<634.757 699.243> 250 100<217.757 281.781 302.062 365.203 384.797 447.938 468.219 531.781 552.062 615.203 634.797 697.938 718.219 782.243> 357 100<634.757 699.243> 410 100<550.757 615.243>
LayerCount: 2
Back
Fore
SplineSet
350 250 m 0x89
 350 236 314 200 300 200 c 0
 286 200 250 236 250 250 c 0
 250 260 268 280 283 292 c 1
 268 304 250 323 250 333 c 0
 250 343 268 364 283 375 c 1
 268 386 250 407 250 417 c 0
 250 427 268 446 283 458 c 1
 268 470 250 490 250 500 c 0
 250 510 268 530 283 542 c 1
 268 554 250 573 250 583 c 0
 250 593 268 614 283 625 c 1
 268 636 250 657 250 667 c 0
 250 677 268 696 283 708 c 1
 268 720 250 740 250 750 c 0
 250 764 286 800 300 800 c 0
 314 800 350 764 350 750 c 0
 350 740 332 720 317 708 c 1
 332 696 350 677 350 667 c 0
 350 657 332 636 317 625 c 1
 332 614 350 593 350 583 c 0
 350 573 332 554 317 542 c 1
 332 530 350 510 350 500 c 0
 350 490 332 470 317 458 c 1
 332 446 350 427 350 417 c 0
 350 407 332 386 317 375 c 1
 332 364 350 343 350 333 c 1
 350 323 332 304 317 292 c 1
 332 280 350 260 350 250 c 0x89
510 583 m 0x2940
 510 569 474 533 460 533 c 0
 446 533 410 569 410 583 c 0
 410 597 446 633 460 633 c 0
 474 633 510 597 510 583 c 0x2940
190 583 m 0x2d
 190 569 154 533 140 533 c 0
 126 533 90 569 90 583 c 0
 90 597 126 633 140 633 c 0
 154 633 190 597 190 583 c 0x2d
457 667 m 0x1980
 457 653 421 617 407 617 c 0
 393 617 357 653 357 667 c 0
 357 681 393 717 407 717 c 0
 421 717 457 681 457 667 c 0x1980
243 667 m 0x1b
 243 653 207 617 193 617 c 0
 179 617 143 653 143 667 c 0
 143 681 179 717 193 717 c 0
 207 717 243 681 243 667 c 0x1b
EndSplineSet
EndChar

StartChar: glyph1
Encoding: 8216 8216 1
Width: 600
VWidth: 0
UnlinkRmOvrlpSave: 1
Flags: W
HStem: 533 100<161.757 226.243> 780 20G<133 147>
VStem: 90 100<634.757 697.938 718.219 782.243> 144 100<550.757 615.243>
LayerCount: 2
Back
Fore
SplineSet
244 583 m 0xd0
 244 569 208 533 194 533 c 0
 180 533 144 569 144 583 c 0
 144 597 180 633 194 633 c 0
 208 633 244 597 244 583 c 0xd0
190 667 m 0xe0
 190 653 154 617 140 617 c 0
 126 617 90 653 90 667 c 0
 90 677 108 696 123 708 c 1
 108 720 90 740 90 750 c 0
 90 764 126 800 140 800 c 0
 154 800 190 764 190 750 c 0
 190 740 172 720 157 708 c 1
 172 696 190 677 190 667 c 0xe0
EndSplineSet
EndChar

StartChar: glyph2
Encoding: 8220 8220 2
Width: 600
VWidth: 0
UnlinkRmOvrlpSave: 1
Flags: W
HStem: 533 100<160.757 225.243 320.757 385.243> 780 20G<133 147 293 307>
VStem: 90 100<634.757 697.938 718.219 782.243> 143 100<550.757 615.243> 250 100<634.757 697.938 718.219 782.243> 303 100<550.757 615.243>
LayerCount: 2
Back
Fore
SplineSet
403 583 m 0xc4
 403 569 367 533 353 533 c 0
 339 533 303 569 303 583 c 0
 303 597 339 633 353 633 c 0
 367 633 403 597 403 583 c 0xc4
243 583 m 0xd0
 243 569 207 533 193 533 c 0
 179 533 143 569 143 583 c 0
 143 597 179 633 193 633 c 0
 207 633 243 597 243 583 c 0xd0
350 667 m 0xc8
 350 653 314 617 300 617 c 0
 286 617 250 653 250 667 c 0
 250 677 268 696 283 708 c 1
 268 720 250 740 250 750 c 0
 250 764 286 800 300 800 c 0
 314 800 350 764 350 750 c 0
 350 740 332 720 317 708 c 1
 332 696 350 677 350 667 c 0xc8
190 667 m 0xe0
 190 653 154 617 140 617 c 0
 126 617 90 653 90 667 c 0
 90 677 108 696 123 708 c 1
 108 720 90 740 90 750 c 0
 90 764 126 800 140 800 c 0
 154 800 190 764 190 750 c 0
 190 740 172 720 157 708 c 1
 172 696 190 677 190 667 c 0xe0
EndSplineSet
EndChar

StartChar: dollar
Encoding: 36 36 4
Width: 600
VWidth: 0
UnlinkRmOvrlpSave: 1
Flags: W
HStem: 200 21G<293 307> 200 21G<293 307> 283 100<160.757 225.243 374.757 439.243> 367 100<427.757 492.243> 450 100<160.757 225.243 374.757 439.243> 533 100<107.757 172.243> 617 100<160.757 225.243 374.757 439.243> 780 20G<293 307>
VStem: 90 100<550.757 615.243> 143 100<300.757 365.243 467.757 532.243 634.757 699.243> 250 100<217.757 281.781 302.062 365.203 384.797 447.938 468.219 531.781 552.062 615.203 634.797 697.938 718.219 782.243> 357 100<300.757 365.243 467.757 532.243 634.757 699.243> 410 100<384.757 449.243>
LayerCount: 2
Back
Fore
SplineSet
350 250 m 0x8120
 350 236 314 200 300 200 c 0
 286 200 250 236 250 250 c 0
 250 260 268 280 283 292 c 1
 268 304 250 323 250 333 c 0
 250 343 268 364 283 375 c 1
 268 386 250 407 250 417 c 0
 250 427 268 446 283 458 c 1
 268 470 250 490 250 500 c 0
 250 510 268 530 283 542 c 1
 268 554 250 573 250 583 c 0
 250 593 268 614 283 625 c 1
 268 636 250 657 250 667 c 0
 250 677 268 696 283 708 c 1
 268 720 250 740 250 750 c 0
 250 764 286 800 300 800 c 0
 314 800 350 764 350 750 c 0
 350 740 332 720 317 708 c 1
 332 696 350 677 350 667 c 0
 350 657 332 636 317 625 c 1
 332 614 350 593 350 583 c 0
 350 573 332 554 317 542 c 1
 332 530 350 510 350 500 c 0
 350 490 332 470 317 458 c 1
 332 446 350 427 350 417 c 0
 350 407 332 386 317 375 c 1
 332 364 350 343 350 333 c 1
 350 323 332 304 317 292 c 1
 332 280 350 260 350 250 c 0x8120
457 333 m 0x2130
 457 319 421 283 407 283 c 0
 393 283 357 319 357 333 c 0
 357 347 393 383 407 383 c 0
 421 383 457 347 457 333 c 0x2130
243 333 m 0x2160
 243 319 207 283 193 283 c 0
 179 283 143 319 143 333 c 0
 143 347 179 383 193 383 c 0
 207 383 243 347 243 333 c 0x2160
510 417 m 0x1128
 510 403 474 367 460 367 c 0
 446 367 410 403 410 417 c 0
 410 431 446 467 460 467 c 0
 474 467 510 431 510 417 c 0x1128
457 500 m 0x0930
 457 486 421 450 407 450 c 0
 393 450 357 486 357 500 c 0
 357 514 393 550 407 550 c 0
 421 550 457 514 457 500 c 0x0930
243 500 m 0x0960
 243 486 207 450 193 450 c 0
 179 450 143 486 143 500 c 0
 143 514 179 550 193 550 c 0
 207 550 243 514 243 500 c 0x0960
190 583 m 0x05a0
 190 569 154 533 140 533 c 0
 126 533 90 569 90 583 c 0
 90 597 126 633 140 633 c 0
 154 633 190 597 190 583 c 0x05a0
457 667 m 0x0330
 457 653 421 617 407 617 c 0
 393 617 357 653 357 667 c 0
 357 681 393 717 407 717 c 0
 421 717 457 681 457 667 c 0x0330
243 667 m 0x0360
 243 653 207 617 193 617 c 0
 179 617 143 653 143 667 c 0
 143 681 179 717 193 717 c 0
 207 717 243 681 243 667 c 0x0360
EndSplineSet
EndChar

StartChar: section
Encoding: 167 167 5
Width: 600
VWidth: 0
UnlinkRmOvrlpSave: 1
Flags: W
HStem: 200 100<107.757 172.243 214.757 279.243> 283 100<267.757 332.243> 367 100<214.757 279.243 320.757 385.243> 450 100<160.757 225.243 374.757 439.243> 533 100<214.757 279.243 320.757 385.243> 617 100<267.757 332.243> 700 100<320.757 385.243 427.757 492.243>
VStem: 90 100<217.757 282.243> 143 100<467.757 532.243> 197 100<217.757 282.243 384.757 449.243 550.757 615.243> 250 100<300.757 365.243 634.757 699.243> 303 100<384.757 449.243 550.757 615.243 717.757 782.243> 357 100<467.757 532.243> 410 100<717.757 782.243>
LayerCount: 2
Back
Fore
SplineSet
297 250 m 0x8040
 297 236 261 200 247 200 c 0
 233 200 197 236 197 250 c 0
 197 264 233 300 247 300 c 0
 261 300 297 264 297 250 c 0x8040
190 250 m 0x81
 190 236 154 200 140 200 c 0
 126 200 90 236 90 250 c 0
 90 264 126 300 140 300 c 0
 154 300 190 264 190 250 c 0x81
350 333 m 0x4020
 350 319 314 283 300 283 c 0
 286 283 250 319 250 333 c 0
 250 347 286 383 300 383 c 0
 314 383 350 347 350 333 c 0x4020
403 417 m 0x2010
 403 403 367 367 353 367 c 0
 339 367 303 403 303 417 c 0
 303 431 339 467 353 467 c 0
 367 467 403 431 403 417 c 0x2010
297 417 m 0x2040
 297 403 261 367 247 367 c 0
 233 367 197 403 197 417 c 0
 197 431 233 467 247 467 c 0
 261 467 297 431 297 417 c 0x2040
457 500 m 0x1008
 457 486 421 450 407 450 c 0
 393 450 357 486 357 500 c 0
 357 514 393 550 407 550 c 0
 421 550 457 514 457 500 c 0x1008
243 500 m 0x1080
 243 486 207 450 193 450 c 0
 179 450 143 486 143 500 c 0
 143 514 179 550 193 550 c 0
 207 550 243 514 243 500 c 0x1080
403 583 m 0x0810
 403 569 367 533 353 533 c 0
 339 533 303 569 303 583 c 0
 303 597 339 633 353 633 c 0
 367 633 403 597 403 583 c 0x0810
297 583 m 0x0840
 297 569 261 533 247 533 c 0
 233 533 197 569 197 583 c 0
 197 597 233 633 247 633 c 0
 261 633 297 597 297 583 c 0x0840
350 667 m 0x0420
 350 653 314 617 300 617 c 0
 286 617 250 653 250 667 c 0
 250 681 286 717 300 717 c 0
 314 717 350 681 350 667 c 0x0420
510 750 m 0x0204
 510 736 474 700 460 700 c 0
 446 700 410 736 410 750 c 0
 410 764 446 800 460 800 c 0
 474 800 510 764 510 750 c 0x0204
403 750 m 0x0210
 403 736 367 700 353 700 c 0
 339 700 303 736 303 750 c 0
 303 764 339 800 353 800 c 0
 367 800 403 764 403 750 c 0x0210
EndSplineSet
EndChar

StartChar: parenleft
Encoding: 40 40 6
Width: 600
VWidth: 0
UnlinkRmOvrlpSave: 1
Flags: W
HStem: 200 100<213.757 278.243> 283 100<160.757 225.243> 613 20G<133 147> 617 100<160.757 225.243> 700 100<213.757 278.243>
VStem: 90 100<384.757 447.938 468.219 531.781 552.062 615.243> 143 100<300.757 365.243 634.757 699.243> 196 100<217.757 282.243 717.757 782.243>
LayerCount: 2
Back
Fore
SplineSet
296 250 m 0x81
 296 236 260 200 246 200 c 0
 232 200 196 236 196 250 c 0
 196 264 232 300 246 300 c 0
 260 300 296 264 296 250 c 0x81
243 333 m 0x42
 243 319 207 283 193 283 c 0
 179 283 143 319 143 333 c 0
 143 347 179 383 193 383 c 0
 207 383 243 347 243 333 c 0x42
190 417 m 0x24
 190 403 154 367 140 367 c 0
 126 367 90 403 90 417 c 0
 90 427 108 446 123 458 c 1
 108 470 90 490 90 500 c 0
 90 510 108 530 123 542 c 1
 108 554 90 573 90 583 c 0
 90 597 126 633 140 633 c 0
 154 633 190 597 190 583 c 0
 190 573 172 554 157 542 c 1
 172 530 190 510 190 500 c 0
 190 490 172 470 157 458 c 1
 172 446 190 427 190 417 c 0x24
243 667 m 0x12
 243 653 207 617 193 617 c 0
 179 617 143 653 143 667 c 0
 143 681 179 717 193 717 c 0
 207 717 243 681 243 667 c 0x12
296 750 m 0x09
 296 736 260 700 246 700 c 0
 232 700 196 736 196 750 c 0
 196 764 232 800 246 800 c 0
 260 800 296 764 296 750 c 0x09
EndSplineSet
EndChar

StartChar: comma
Encoding: 44 44 7
Width: 600
VWidth: 0
UnlinkRmOvrlpSave: 1
Flags: W
HStem: 200 100<107.757 172.243> 283 100<160.757 225.243>
VStem: 90 100<217.757 282.243 384.757 447.938 468.219 532.243> 143 100<300.757 365.243> 196 100<384.757 447.938 468.219 532.243>
LayerCount: 2
Back
Fore
SplineSet
190 250 m 0xa0
 190 236 154 200 140 200 c 0
 126 200 90 236 90 250 c 0
 90 264 126 300 140 300 c 0
 154 300 190 264 190 250 c 0xa0
243 333 m 0x50
 243 319 207 283 193 283 c 0
 179 283 143 319 143 333 c 0
 143 347 179 383 193 383 c 0
 207 383 243 347 243 333 c 0x50
296 417 m 0x08
 296 403 260 367 246 367 c 0
 232 367 196 403 196 417 c 0
 196 427 214 446 229 458 c 1
 214 470 196 490 196 500 c 0
 196 514 232 550 246 550 c 0
 260 550 296 514 296 500 c 0
 296 490 278 470 263 458 c 1
 278 446 296 427 296 417 c 0x08
190 417 m 0x20
 190 403 154 367 140 367 c 0
 126 367 90 403 90 417 c 0
 90 427 108 446 123 458 c 1
 108 470 90 490 90 500 c 0
 90 514 126 550 140 550 c 0
 154 550 190 514 190 500 c 0
 190 490 172 470 157 458 c 1
 172 446 190 427 190 417 c 0x20
EndSplineSet
EndChar

StartChar: zero
Encoding: 48 48 8
Width: 600
VWidth: 0
UnlinkRmOvrlpSave: 1
Flags: W
HStem: 200 100<214.757 279.243 320.757 385.243> 283 100<160.757 225.243 374.757 439.243> 613 20G<133 147 453 467> 617 100<160.757 225.243 374.757 439.243> 700 100<214.757 279.243 320.757 385.243>
VStem: 90 100<384.757 447.938 468.219 531.781 552.062 615.243> 143 100<300.757 365.243 634.757 699.243> 197 100<217.757 282.243 717.757 782.243> 303 100<217.757 282.243 717.757 782.243> 357 100<300.757 365.243 634.757 699.243> 410 100<384.757 447.938 468.219 531.781 552.062 615.243>
LayerCount: 2
Back
Fore
SplineSet
403 250 m 0x8080
 403 236 367 200 353 200 c 0
 339 200 303 236 303 250 c 0
 303 264 339 300 353 300 c 0
 367 300 403 264 403 250 c 0x8080
297 250 m 0x81
 297 236 261 200 247 200 c 0
 233 200 197 236 197 250 c 0
 197 264 233 300 247 300 c 0
 261 300 297 264 297 250 c 0x81
457 333 m 0x4040
 457 319 421 283 407 283 c 0
 393 283 357 319 357 333 c 0
 357 347 393 383 407 383 c 0
 421 383 457 347 457 333 c 0x4040
243 333 m 0x42
 243 319 207 283 193 283 c 0
 179 283 143 319 143 333 c 0
 143 347 179 383 193 383 c 0
 207 383 243 347 243 333 c 0x42
510 417 m 0x2020
 510 403 474 367 460 367 c 0
 446 367 410 403 410 417 c 0
 410 427 428 446 443 458 c 1
 428 470 410 490 410 500 c 0
 410 510 428 530 443 542 c 1
 428 554 410 573 410 583 c 0
 410 597 446 633 460 633 c 0
 474 633 510 597 510 583 c 0
 510 573 492 554 477 542 c 1
 492 530 510 510 510 500 c 0
 510 490 492 470 477 458 c 1
 492 446 510 427 510 417 c 0x2020
190 417 m 0x24
 190 403 154 367 140 367 c 0
 126 367 90 403 90 417 c 0
 90 427 108 446 123 458 c 1
 108 470 90 490 90 500 c 0
 90 510 108 530 123 542 c 1
 108 554 90 573 90 583 c 0
 90 597 126 633 140 633 c 0
 154 633 190 597 190 583 c 0
 190 573 172 554 157 542 c 1
 172 530 190 510 190 500 c 0
 190 490 172 470 157 458 c 1
 172 446 190 427 190 417 c 0x24
457 667 m 0x1040
 457 653 421 617 407 617 c 0
 393 617 357 653 357 667 c 0
 357 681 393 717 407 717 c 0
 421 717 457 681 457 667 c 0x1040
243 667 m 0x12
 243 653 207 617 193 617 c 0
 179 617 143 653 143 667 c 0
 143 681 179 717 193 717 c 0
 207 717 243 681 243 667 c 0x12
403 750 m 0x0880
 403 736 367 700 353 700 c 0
 339 700 303 736 303 750 c 0
 303 764 339 800 353 800 c 0
 367 800 403 764 403 750 c 0x0880
297 750 m 0x09
 297 736 261 700 247 700 c 0
 233 700 197 736 197 750 c 0
 197 764 233 800 247 800 c 0
 261 800 297 764 297 750 c 0x09
EndSplineSet
EndChar

StartChar: glyph9
Encoding: 9785 9785 9
Width: 600
VWidth: 0
UnlinkRmOvrlpSave: 1
Flags: W
HStem: 283 100<107.757 172.243 427.757 492.243> 367 100<160.757 225.243 267.757 332.243 374.757 439.243> 617 100<160.757 225.243 374.757 439.243>
VStem: 90 100<300.757 365.243> 143 100<384.757 449.243 634.757 699.243> 250 100<384.757 449.243> 357 100<384.757 449.243 634.757 699.243> 410 100<300.757 365.243>
LayerCount: 2
Back
Fore
SplineSet
510 333 m 0xa5
 510 319 474 283 460 283 c 0
 446 283 410 319 410 333 c 0
 410 347 446 383 460 383 c 0
 474 383 510 347 510 333 c 0xa5
190 333 m 0xb4
 190 319 154 283 140 283 c 0
 126 283 90 319 90 333 c 0
 90 347 126 383 140 383 c 0
 154 383 190 347 190 333 c 0xb4
457 417 m 0x66
 457 403 421 367 407 367 c 0
 393 367 357 403 357 417 c 0
 357 431 393 467 407 467 c 0
 421 467 457 431 457 417 c 0x66
350 417 m 0
 350 403 314 367 300 367 c 0
 286 367 250 403 250 417 c 0
 250 431 286 467 300 467 c 0
 314 467 350 431 350 417 c 0
243 417 m 0x6c
 243 403 207 367 193 367 c 0
 179 367 143 403 143 417 c 0
 143 431 179 467 193 467 c 0
 207 467 243 431 243 417 c 0x6c
457 667 m 0x26
 457 653 421 617 407 617 c 0
 393 617 357 653 357 667 c 0
 357 681 393 717 407 717 c 0
 421 717 457 681 457 667 c 0x26
243 667 m 0x2c
 243 653 207 617 193 617 c 0
 179 617 143 653 143 667 c 0
 143 681 179 717 193 717 c 0
 207 717 243 681 243 667 c 0x2c
EndSplineSet
EndChar

StartChar: four
Encoding: 52 52 10
Width: 600
VWidth: 0
UnlinkRmOvrlpSave: 1
Flags: W
HStem: 200 21G<400 414> 200 21G<400 414> 367 100<107.757 172.243 214.757 279.243 320.757 385.243 427.757 492.243> 450 100<160.757 225.243> 533 100<214.757 279.243> 617 100<267.757 332.243> 700 100<320.757 385.243>
VStem: 90 100<384.757 449.243> 143 100<467.757 532.243> 197 100<384.757 449.243 550.757 615.243> 250 100<634.757 699.243> 303 100<384.757 449.243 717.757 782.243> 357 100<217.757 281.781 302.062 365.243 467.757 531.781 552.062 615.203 634.797 699.243> 410 100<384.757 449.243>
LayerCount: 2
Back
Fore
SplineSet
457 250 m 0x8008
 457 236 421 200 407 200 c 0
 393 200 357 236 357 250 c 0
 357 260 375 280 390 292 c 1
 375 304 357 323 357 333 c 0
 357 347 393 383 407 383 c 0
 421 383 457 347 457 333 c 0
 457 323 439 304 424 292 c 1
 439 280 457 260 457 250 c 0x8008
510 417 m 0x2004
 510 403 474 367 460 367 c 0
 446 367 410 403 410 417 c 0
 410 431 446 467 460 467 c 0
 474 467 510 431 510 417 c 0x2004
403 417 m 0x2010
 403 403 367 367 353 367 c 0
 339 367 303 403 303 417 c 0
 303 431 339 467 353 467 c 0
 367 467 403 431 403 417 c 0x2010
297 417 m 0x2040
 297 403 261 367 247 367 c 0
 233 367 197 403 197 417 c 0
 197 431 233 467 247 467 c 0
 261 467 297 431 297 417 c 0x2040
190 417 m 0x21
 190 403 154 367 140 367 c 0
 126 367 90 403 90 417 c 0
 90 431 126 467 140 467 c 0
 154 467 190 431 190 417 c 0x21
457 500 m 0x1408
 457 486 421 450 407 450 c 0
 393 450 357 486 357 500 c 0
 357 510 375 530 390 542 c 1
 375 554 357 573 357 583 c 0
 357 593 375 614 390 625 c 1
 375 636 357 657 357 667 c 0
 357 681 393 717 407 717 c 0
 421 717 457 681 457 667 c 0
 457 657 439 636 424 625 c 1
 439 614 457 593 457 583 c 0
 457 573 439 554 424 542 c 1
 439 530 457 510 457 500 c 0x1408
243 500 m 0x1080
 243 486 207 450 193 450 c 0
 179 450 143 486 143 500 c 0
 143 514 179 550 193 550 c 0
 207 550 243 514 243 500 c 0x1080
297 583 m 0x0840
 297 569 261 533 247 533 c 0
 233 533 197 569 197 583 c 0
 197 597 233 633 247 633 c 0
 261 633 297 597 297 583 c 0x0840
350 667 m 0x0420
 350 653 314 617 300 617 c 0
 286 617 250 653 250 667 c 0
 250 681 286 717 300 717 c 0
 314 717 350 681 350 667 c 0x0420
403 750 m 0x0210
 403 736 367 700 353 700 c 0
 339 700 303 736 303 750 c 0
 303 764 339 800 353 800 c 0
 367 800 403 764 403 750 c 0x0210
EndSplineSet
EndChar

StartChar: periodcentered
Encoding: 183 183 11
Width: 600
VWidth: 0
UnlinkRmOvrlpSave: 1
Flags: W
HStem: 367 100<161.757 226.243 267.757 332.243> 450 100<107.757 172.243 214.757 279.243 321.757 386.243> 533 100<161.757 226.243 267.757 332.243>
VStem: 90 100<467.757 532.243> 144 100<384.757 449.243 550.757 615.243> 197 100<467.757 532.243> 250 100<384.757 449.243 550.757 615.243> 304 100<467.757 532.243>
LayerCount: 2
Back
Fore
SplineSet
350 417 m 0x82
 350 403 314 367 300 367 c 0
 286 367 250 403 250 417 c 0
 250 431 286 467 300 467 c 0
 314 467 350 431 350 417 c 0x82
244 417 m 0x88
 244 403 208 367 194 367 c 0
 180 367 144 403 144 417 c 0
 144 431 180 467 194 467 c 0
 208 467 244 431 244 417 c 0x88
404 500 m 0x41
 404 486 368 450 354 450 c 0
 340 450 304 486 304 500 c 0
 304 514 340 550 354 550 c 0
 368 550 404 514 404 500 c 0x41
297 500 m 0x44
 297 486 261 450 247 450 c 0
 233 450 197 486 197 500 c 0
 197 514 233 550 247 550 c 0
 261 550 297 514 297 500 c 0x44
190 500 m 0x50
 190 486 154 450 140 450 c 0
 126 450 90 486 90 500 c 0
 90 514 126 550 140 550 c 0
 154 550 190 514 190 500 c 0x50
350 583 m 0x22
 350 569 314 533 300 533 c 0
 286 533 250 569 250 583 c 0
 250 597 286 633 300 633 c 0
 314 633 350 597 350 583 c 0x22
244 583 m 0x28
 244 569 208 533 194 533 c 0
 180 533 144 569 144 583 c 0
 144 597 180 633 194 633 c 0
 208 633 244 597 244 583 c 0x28
EndSplineSet
EndChar

StartChar: eight
Encoding: 56 56 12
Width: 600
VWidth: 0
UnlinkRmOvrlpSave: 1
Flags: W
HStem: 200 100<160.757 225.243 267.757 332.243 374.757 439.243> 450 100<160.757 225.243 267.757 332.243 374.757 439.243> 700 100<160.757 225.243 267.757 332.243 374.757 439.243>
VStem: 90 100<300.757 365.203 384.797 449.243 550.757 615.203 634.797 699.243> 143 100<217.757 282.243 467.757 532.243 717.757 782.243> 250 100<217.757 282.243 467.757 532.243 717.757 782.243> 357 100<217.757 282.243 467.757 532.243 717.757 782.243> 410 100<300.757 365.203 384.797 449.243 550.757 615.203 634.797 699.243>
CounterMasks: 1 e0
LayerCount: 2
Back
Fore
SplineSet
457 250 m 0xe6
 457 236 421 200 407 200 c 0
 393 200 357 236 357 250 c 0
 357 264 393 300 407 300 c 0
 421 300 457 264 457 250 c 0xe6
350 250 m 0
 350 236 314 200 300 200 c 0
 286 200 250 236 250 250 c 0
 250 264 286 300 300 300 c 0
 314 300 350 264 350 250 c 0
243 250 m 0xec
 243 236 207 200 193 200 c 0
 179 200 143 236 143 250 c 0
 143 264 179 300 193 300 c 0
 207 300 243 264 243 250 c 0xec
510 333 m 1xe5
 510 319 474 283 460 283 c 0
 446 283 410 319 410 333 c 0
 410 343 428 364 443 375 c 1
 428 386 410 407 410 417 c 1
 410 431 446 467 460 467 c 0
 474 467 510 431 510 417 c 0
 510 407 492 386 477 375 c 1
 492 364 510 343 510 333 c 1xe5
190 333 m 0xf4
 190 319 154 283 140 283 c 0
 126 283 90 319 90 333 c 0
 90 343 108 364 123 375 c 1
 108 386 90 407 90 417 c 0
 90 431 126 467 140 467 c 0
 154 467 190 431 190 417 c 0
 190 407 172 386 157 375 c 1
 172 364 190 343 190 333 c 0xf4
457 500 m 0xe6
 457 486 421 450 407 450 c 0
 393 450 357 486 357 500 c 0
 357 514 393 550 407 550 c 0
 421 550 457 514 457 500 c 0xe6
350 500 m 0
 350 486 314 450 300 450 c 0
 286 450 250 486 250 500 c 0
 250 514 286 550 300 550 c 0
 314 550 350 514 350 500 c 0
243 500 m 0xec
 243 486 207 450 193 450 c 0
 179 450 143 486 143 500 c 0
 143 514 179 550 193 550 c 0
 207 550 243 514 243 500 c 0xec
510 583 m 0xe5
 510 569 474 533 460 533 c 0
 446 533 410 569 410 583 c 0
 410 593 428 614 443 625 c 1
 428 636 410 657 410 667 c 0
 410 681 446 717 460 717 c 0
 474 717 510 681 510 667 c 0
 510 657 492 636 477 625 c 1
 492 614 510 593 510 583 c 0xe5
190 583 m 0xf4
 190 569 154 533 140 533 c 0
 126 533 90 569 90 583 c 0
 90 593 108 614 123 625 c 1
 108 636 90 657 90 667 c 0
 90 681 126 717 140 717 c 0
 154 717 190 681 190 667 c 0
 190 657 172 636 157 625 c 1
 172 614 190 593 190 583 c 0xf4
457 750 m 0xe6
 457 736 421 700 407 700 c 0
 393 700 357 736 357 750 c 0
 357 764 393 800 407 800 c 0
 421 800 457 764 457 750 c 0xe6
350 750 m 0
 350 736 314 700 300 700 c 0
 286 700 250 736 250 750 c 0
 250 764 286 800 300 800 c 0
 314 800 350 764 350 750 c 0
243 750 m 0xec
 243 736 207 700 193 700 c 0
 179 700 143 736 143 750 c 0
 143 764 179 800 193 800 c 0
 207 800 243 764 243 750 c 0xec
EndSplineSet
EndChar

StartChar: less
Encoding: 60 60 13
Width: 600
VWidth: 0
UnlinkRmOvrlpSave: 1
Flags: W
HStem: 200 100<427.757 492.243> 283 100<320.757 385.243> 367 100<214.757 279.243> 450 100<107.757 172.243> 533 100<214.757 279.243> 617 100<320.757 385.243> 700 100<427.757 492.243>
VStem: 90 100<467.757 532.243> 197 100<384.757 449.243 550.757 615.243> 303 100<300.757 365.243 634.757 699.243> 410 100<217.757 282.243 717.757 782.243>
LayerCount: 2
Back
Fore
SplineSet
510 250 m 0x81e0
 510 236 474 200 460 200 c 0
 446 200 410 236 410 250 c 0
 410 264 446 300 460 300 c 0
 474 300 510 264 510 250 c 0x81e0
403 333 m 0
 403 319 367 283 353 283 c 0
 339 283 303 319 303 333 c 0
 303 347 339 383 353 383 c 0x41e0
 367 383 403 347 403 333 c 0
297 417 m 0
 297 403 261 367 247 367 c 0
 233 367 197 403 197 417 c 0
 197 431 233 467 247 467 c 0x21e0
 261 467 297 431 297 417 c 0
190 500 m 0
 190 486 154 450 140 450 c 0
 126 450 90 486 90 500 c 0
 90 514 126 550 140 550 c 0x11e0
 154 550 190 514 190 500 c 0
297 583 m 0
 297 569 261 533 247 533 c 0
 233 533 197 569 197 583 c 0
 197 597 233 633 247 633 c 0x09e0
 261 633 297 597 297 583 c 0
403 667 m 0
 403 653 367 617 353 617 c 0
 339 617 303 653 303 667 c 0
 303 681 339 717 353 717 c 0x05e0
 367 717 403 681 403 667 c 0
510 750 m 0
 510 736 474 700 460 700 c 0
 446 700 410 736 410 750 c 0
 410 764 446 800 460 800 c 0x03e0
 474 800 510 764 510 750 c 0
EndSplineSet
EndChar

StartChar: at
Encoding: 64 64 14
Width: 600
VWidth: 0
UnlinkRmOvrlpSave: 1
Flags: W
HStem: 200 100<160.757 225.243 267.757 332.243 374.757 439.243> 367 100<374.757 439.243> 533 100<320.757 385.243> 700 100<160.757 225.243 267.757 332.243 374.757 439.243>
VStem: 90 100<300.757 365.203 384.797 447.938 468.219 531.781 552.062 615.203 634.797 699.243> 143 100<217.757 282.243 717.757 782.243> 250 100<217.757 282.243 384.757 447.938 468.219 532.243 717.757 782.243> 303 100<550.757 615.243> 357 100<217.757 282.243 384.757 449.243 717.757 782.243> 410 100<467.757 531.781 552.062 615.203 634.797 699.243>
LayerCount: 2
Back
Fore
SplineSet
457 250 m 0xf080
 457 236 421 200 407 200 c 0
 393 200 357 236 357 250 c 0
 357 264 393 300 407 300 c 0
 421 300 457 264 457 250 c 0xf080
350 250 m 0xf2
 350 236 314 200 300 200 c 0
 286 200 250 236 250 250 c 0
 250 264 286 300 300 300 c 0
 314 300 350 264 350 250 c 0xf2
243 250 m 0xf4
 243 236 207 200 193 200 c 0
 179 200 143 236 143 250 c 0
 143 264 179 300 193 300 c 0
 207 300 243 264 243 250 c 0xf4
190 333 m 0xf8
 190 319 154 283 140 283 c 0
 126 283 90 319 90 333 c 0
 90 343 108 364 123 375 c 1
 108 386 90 407 90 417 c 0
 90 427 108 446 123 458 c 1
 108 470 90 490 90 500 c 0
 90 510 108 530 123 542 c 1
 108 554 90 573 90 583 c 0
 90 593 108 614 123 625 c 1
 108 636 90 657 90 667 c 0
 90 681 126 717 140 717 c 0
 154 717 190 681 190 667 c 0
 190 657 172 636 157 625 c 1
 172 614 190 593 190 583 c 0
 190 573 172 554 157 542 c 1
 172 530 190 510 190 500 c 0
 190 490 172 470 157 458 c 1
 172 446 190 427 190 417 c 0
 190 407 172 386 157 375 c 1
 172 364 190 343 190 333 c 0xf8
457 417 m 0xf080
 457 403 421 367 407 367 c 0
 393 367 357 403 357 417 c 0
 357 431 393 467 407 467 c 0
 421 467 457 431 457 417 c 0xf080
350 417 m 0xf2
 350 403 314 367 300 367 c 0
 286 367 250 403 250 417 c 0
 250 427 268 446 283 458 c 1
 268 470 250 490 250 500 c 0
 250 514 286 550 300 550 c 0
 314 550 350 514 350 500 c 0
 350 490 332 470 317 458 c 1
 332 446 350 427 350 417 c 0xf2
510 500 m 0xf040
 510 486 474 450 460 450 c 0
 446 450 410 486 410 500 c 0
 410 510 428 530 443 542 c 1
 428 554 410 573 410 583 c 0
 410 593 428 614 443 625 c 1
 428 636 410 657 410 667 c 0
 410 681 446 717 460 717 c 0
 474 717 510 681 510 667 c 0
 510 657 492 636 477 625 c 1
 492 614 510 593 510 583 c 0
 510 573 492 554 477 542 c 1
 492 530 510 510 510 500 c 0xf040
403 583 m 0xf1
 403 569 367 533 353 533 c 0
 339 533 303 569 303 583 c 0
 303 597 339 633 353 633 c 0
 367 633 403 597 403 583 c 0xf1
457 750 m 0xf080
 457 736 421 700 407 700 c 0
 393 700 357 736 357 750 c 0
 357 764 393 800 407 800 c 0
 421 800 457 764 457 750 c 0xf080
350 750 m 0xf2
 350 736 314 700 300 700 c 0
 286 700 250 736 250 750 c 0
 250 764 286 800 300 800 c 0
 314 800 350 764 350 750 c 0xf2
243 750 m 0xf4
 243 736 207 700 193 700 c 0
 179 700 143 736 143 750 c 0
 143 764 179 800 193 800 c 0
 207 800 243 764 243 750 c 0xf4
EndSplineSet
EndChar

StartChar: D
Encoding: 68 68 15
Width: 600
VWidth: 0
UnlinkRmOvrlpSave: 1
Flags: W
HStem: 200 100<107.757 172.243 214.757 279.243 320.757 385.243> 700 100<107.757 172.243 214.757 279.243 320.757 385.243>
VStem: 90 100<217.757 282.243 717.757 782.243> 143 100<300.757 365.203 384.797 447.938 468.219 531.781 552.062 615.203 634.797 699.243> 197 100<217.757 282.243 717.757 782.243> 303 100<217.757 282.243 717.757 782.243> 410 100<300.757 365.203 384.797 447.938 468.219 531.781 552.062 615.203 634.797 699.243>
LayerCount: 2
Back
Fore
SplineSet
403 250 m 0xc6
 403 236 367 200 353 200 c 0
 339 200 303 236 303 250 c 0
 303 264 339 300 353 300 c 0
 367 300 403 264 403 250 c 0xc6
297 250 m 0xce
 297 236 261 200 247 200 c 0
 233 200 197 236 197 250 c 0
 197 264 233 300 247 300 c 0
 261 300 297 264 297 250 c 0xce
190 250 m 0xe6
 190 236 154 200 140 200 c 0
 126 200 90 236 90 250 c 0
 90 264 126 300 140 300 c 0
 154 300 190 264 190 250 c 0xe6
510 333 m 1
 510 319 474 283 460 283 c 0
 446 283 410 319 410 333 c 0
 410 343 428 364 443 375 c 1
 428 386 410 407 410 417 c 1
 410 427 428 446 443 458 c 1
 428 470 410 490 410 500 c 0
 410 510 428 530 443 542 c 1
 428 554 410 573 410 583 c 0
 410 593 428 614 443 625 c 1
 428 636 410 657 410 667 c 0
 410 681 446 717 460 717 c 0
 474 717 510 681 510 667 c 0
 510 657 492 636 477 625 c 1
 492 614 510 593 510 583 c 0
 510 573 492 554 477 542 c 1
 492 530 510 510 510 500 c 0
 510 490 492 470 477 458 c 1
 492 446 510 427 510 417 c 0
 510 407 492 386 477 375 c 1
 492 364 510 343 510 333 c 1
243 333 m 0xd6
 243 319 207 283 193 283 c 0
 179 283 143 319 143 333 c 0
 143 343 161 364 176 375 c 1
 161 386 143 407 143 417 c 0
 143 427 161 446 176 458 c 1
 161 470 143 490 143 500 c 0
 143 510 161 530 176 542 c 1
 161 554 143 573 143 583 c 0
 143 593 161 614 176 625 c 1
 161 636 143 657 143 667 c 0
 143 681 179 717 193 717 c 0
 207 717 243 681 243 667 c 0
 243 657 225 636 210 625 c 1
 225 614 243 593 243 583 c 0
 243 573 225 554 210 542 c 1
 225 530 243 510 243 500 c 0
 243 490 225 470 210 458 c 1
 225 446 243 427 243 417 c 0
 243 407 225 386 210 375 c 1
 225 364 243 343 243 333 c 0xd6
403 750 m 0
 403 736 367 700 353 700 c 0
 339 700 303 736 303 750 c 0
 303 764 339 800 353 800 c 0
 367 800 403 764 403 750 c 0
297 750 m 0xce
 297 736 261 700 247 700 c 0
 233 700 197 736 197 750 c 0
 197 764 233 800 247 800 c 0
 261 800 297 764 297 750 c 0xce
190 750 m 0xe6
 190 736 154 700 140 700 c 0
 126 700 90 736 90 750 c 0
 90 764 126 800 140 800 c 0
 154 800 190 764 190 750 c 0xe6
EndSplineSet
EndChar

StartChar: Ccedilla
Encoding: 199 199 16
Width: 600
VWidth: 0
UnlinkRmOvrlpSave: 1
Flags: W
HStem: 200 21G<293 307> 200 21G<293 307> 283 100<160.757 225.243 374.757 439.243> 367 100<427.757 492.243> 617 100<427.757 492.243> 700 100<160.757 225.243 267.757 332.243 374.757 439.243>
VStem: 90 100<384.757 447.938 468.219 531.781 552.062 615.203 634.797 699.243> 143 100<300.757 365.243 717.757 782.243> 250 100<217.757 281.781 302.062 365.243 717.757 782.243> 357 100<300.757 365.243 717.757 782.243> 410 100<384.757 449.243 634.757 699.243>
LayerCount: 2
Back
Fore
SplineSet
350 250 m 0xa080
 350 236 314 200 300 200 c 0
 286 200 250 236 250 250 c 0
 250 260 268 280 283 292 c 1
 268 304 250 323 250 333 c 0
 250 347 286 383 300 383 c 0
 314 383 350 347 350 333 c 0
 350 323 332 304 317 292 c 1
 332 280 350 260 350 250 c 0xa080
457 333 m 0x20c0
 457 319 421 283 407 283 c 0
 393 283 357 319 357 333 c 0
 357 347 393 383 407 383 c 0
 421 383 457 347 457 333 c 0x20c0
243 333 m 0x2180
 243 319 207 283 193 283 c 0
 179 283 143 319 143 333 c 0
 143 347 179 383 193 383 c 0
 207 383 243 347 243 333 c 0x2180
510 417 m 0x10a0
 510 403 474 367 460 367 c 0
 446 367 410 403 410 417 c 0
 410 431 446 467 460 467 c 0
 474 467 510 431 510 417 c 0x10a0
190 417 m 0x1a80
 190 403 154 367 140 367 c 0
 126 367 90 403 90 417 c 0
 90 427 108 446 123 458 c 1
 108 470 90 490 90 500 c 0
 90 510 108 530 123 542 c 1
 108 554 90 573 90 583 c 0
 90 593 108 614 123 625 c 1
 108 636 90 657 90 667 c 0
 90 681 126 717 140 717 c 0
 154 717 190 681 190 667 c 0
 190 657 172 636 157 625 c 1
 172 614 190 593 190 583 c 0
 190 573 172 554 157 542 c 1
 172 530 190 510 190 500 c 0
 190 490 172 470 157 458 c 1
 172 446 190 427 190 417 c 0x1a80
510 667 m 0x08a0
 510 653 474 617 460 617 c 0
 446 617 410 653 410 667 c 0
 410 681 446 717 460 717 c 0
 474 717 510 681 510 667 c 0x08a0
457 750 m 0x04c0
 457 736 421 700 407 700 c 0
 393 700 357 736 357 750 c 0
 357 764 393 800 407 800 c 0
 421 800 457 764 457 750 c 0x04c0
350 750 m 0
 350 736 314 700 300 700 c 0
 286 700 250 736 250 750 c 0
 250 764 286 800 300 800 c 0
 314 800 350 764 350 750 c 0
243 750 m 0x0580
 243 736 207 700 193 700 c 0
 179 700 143 736 143 750 c 0
 143 764 179 800 193 800 c 0
 207 800 243 764 243 750 c 0x0580
EndSplineSet
EndChar

StartChar: H
Encoding: 72 72 17
Width: 600
VWidth: 0
UnlinkRmOvrlpSave: 1
Flags: W
HStem: 200 21G<133 147 453 467> 200 21G<133 147 453 467> 450 100<214.757 279.243 320.757 385.243> 780 20G<133 147 453 467>
VStem: 90 100<217.757 281.781 302.062 365.203 384.797 447.938 468.219 531.781 552.062 615.203 634.797 697.938 718.219 782.243> 197 100<467.757 532.243> 303 100<467.757 532.243> 410 100<217.757 281.781 302.062 365.203 384.797 447.938 468.219 531.781 552.062 615.203 634.797 697.938 718.219 782.243>
LayerCount: 2
Back
Fore
SplineSet
510 250 m 0xbf
 510 236 474 200 460 200 c 0
 446 200 410 236 410 250 c 0
 410 260 428 280 443 292 c 1
 428 304 410 323 410 333 c 0
 410 343 428 364 443 375 c 1
 428 386 410 407 410 417 c 1
 410 427 428 446 443 458 c 1
 428 470 410 490 410 500 c 0
 410 510 428 530 443 542 c 1
 428 554 410 573 410 583 c 0
 410 593 428 614 443 625 c 1
 428 636 410 657 410 667 c 0
 410 677 428 696 443 708 c 1
 428 720 410 740 410 750 c 0
 410 764 446 800 460 800 c 0
 474 800 510 764 510 750 c 0
 510 740 492 720 477 708 c 1
 492 696 510 677 510 667 c 0
 510 657 492 636 477 625 c 1
 492 614 510 593 510 583 c 0
 510 573 492 554 477 542 c 1
 492 530 510 510 510 500 c 0
 510 490 492 470 477 458 c 1
 492 446 510 427 510 417 c 0
 510 407 492 386 477 375 c 1
 492 364 510 343 510 333 c 1
 510 323 492 304 477 292 c 1
 492 280 510 260 510 250 c 0xbf
190 250 m 0
 190 236 154 200 140 200 c 0
 126 200 90 236 90 250 c 0
 90 260 108 280 123 292 c 1
 108 304 90 323 90 333 c 0
 90 343 108 364 123 375 c 1
 108 386 90 407 90 417 c 0
 90 427 108 446 123 458 c 1
 108 470 90 490 90 500 c 0
 90 510 108 530 123 542 c 1
 108 554 90 573 90 583 c 0
 90 593 108 614 123 625 c 1
 108 636 90 657 90 667 c 0
 90 677 108 696 123 708 c 1
 108 720 90 740 90 750 c 0
 90 764 126 800 140 800 c 0
 154 800 190 764 190 750 c 0
 190 740 172 720 157 708 c 1
 172 696 190 677 190 667 c 0
 190 657 172 636 157 625 c 1
 172 614 190 593 190 583 c 0
 190 573 172 554 157 542 c 1
 172 530 190 510 190 500 c 0
 190 490 172 470 157 458 c 1
 172 446 190 427 190 417 c 0
 190 407 172 386 157 375 c 1
 172 364 190 343 190 333 c 0
 190 323 172 304 157 292 c 1
 172 280 190 260 190 250 c 0
403 500 m 0
 403 486 367 450 353 450 c 0
 339 450 303 486 303 500 c 0
 303 514 339 550 353 550 c 0
 367 550 403 514 403 500 c 0
297 500 m 0
 297 486 261 450 247 450 c 0
 233 450 197 486 197 500 c 0
 197 514 233 550 247 550 c 0
 261 550 297 514 297 500 c 0
EndSplineSet
EndChar

StartChar: Edieresis
Encoding: 203 203 18
Width: 600
VWidth: 0
UnlinkRmOvrlpSave: 1
Flags: W
HStem: 200 100<214.757 279.243 320.757 385.243 427.757 492.243> 367 100<214.757 279.243 320.757 385.243> 533 100<214.757 279.243 320.757 385.243 427.757 492.243> 700 100<160.757 225.243 374.757 439.243>
VStem: 90 100<217.757 281.781 302.062 365.203 384.797 447.938 468.219 531.781 552.062 615.243> 143 100<717.757 782.243> 197 100<217.757 282.243 384.757 449.243 550.757 615.243> 303 100<217.757 282.243 384.757 449.243 550.757 615.243> 357 100<717.757 782.243> 410 100<217.757 282.243 550.757 615.243>
LayerCount: 2
Back
Fore
SplineSet
510 250 m 0xf040
 510 236 474 200 460 200 c 0
 446 200 410 236 410 250 c 0
 410 264 446 300 460 300 c 0
 474 300 510 264 510 250 c 0xf040
403 250 m 0xf1
 403 236 367 200 353 200 c 0
 339 200 303 236 303 250 c 0
 303 264 339 300 353 300 c 0
 367 300 403 264 403 250 c 0xf1
297 250 m 0xf2
 297 236 261 200 247 200 c 0
 233 200 197 236 197 250 c 0
 197 264 233 300 247 300 c 0
 261 300 297 264 297 250 c 0xf2
190 250 m 0xf8
 190 236 154 200 140 200 c 0
 126 200 90 236 90 250 c 0
 90 260 108 280 123 292 c 1
 108 304 90 323 90 333 c 0
 90 343 108 364 123 375 c 1
 108 386 90 407 90 417 c 0
 90 427 108 446 123 458 c 1
 108 470 90 490 90 500 c 0
 90 510 108 530 123 542 c 1
 108 554 90 573 90 583 c 0
 90 597 126 633 140 633 c 0
 154 633 190 597 190 583 c 0
 190 573 172 554 157 542 c 1
 172 530 190 510 190 500 c 0
 190 490 172 470 157 458 c 1
 172 446 190 427 190 417 c 0
 190 407 172 386 157 375 c 1
 172 364 190 343 190 333 c 0
 190 323 172 304 157 292 c 1
 172 280 190 260 190 250 c 0xf8
403 417 m 0xf1
 403 403 367 367 353 367 c 0
 339 367 303 403 303 417 c 0
 303 431 339 467 353 467 c 0
 367 467 403 431 403 417 c 0xf1
297 417 m 0xf2
 297 403 261 367 247 367 c 0
 233 367 197 403 197 417 c 0
 197 431 233 467 247 467 c 0
 261 467 297 431 297 417 c 0xf2
510 583 m 0xf040
 510 569 474 533 460 533 c 0
 446 533 410 569 410 583 c 0
 410 597 446 633 460 633 c 0
 474 633 510 597 510 583 c 0xf040
403 583 m 0xf1
 403 569 367 533 353 533 c 0
 339 533 303 569 303 583 c 0
 303 597 339 633 353 633 c 0
 367 633 403 597 403 583 c 0xf1
297 583 m 0xf2
 297 569 261 533 247 533 c 0
 233 533 197 569 197 583 c 0
 197 597 233 633 247 633 c 0
 261 633 297 597 297 583 c 0xf2
457 750 m 0xf080
 457 736 421 700 407 700 c 0
 393 700 357 736 357 750 c 0
 357 764 393 800 407 800 c 0
 421 800 457 764 457 750 c 0xf080
243 750 m 0xf4
 243 736 207 700 193 700 c 0
 179 700 143 736 143 750 c 0
 143 764 179 800 193 800 c 0
 207 800 243 764 243 750 c 0xf4
EndSplineSet
EndChar

StartChar: L
Encoding: 76 76 19
Width: 600
VWidth: 0
UnlinkRmOvrlpSave: 1
Flags: W
HStem: 200 100<214.757 279.243 320.757 385.243 427.757 492.243> 780 20G<133 147>
VStem: 90 100<217.757 281.781 302.062 365.203 384.797 447.938 468.219 531.781 552.062 615.203 634.797 697.938 718.219 782.243> 197 100<217.757 282.243> 303 100<217.757 282.243> 410 100<217.757 282.243>
LayerCount: 2
Back
Fore
SplineSet
510 250 m 0
 510 236 474 200 460 200 c 0
 446 200 410 236 410 250 c 0
 410 264 446 300 460 300 c 0
 474 300 510 264 510 250 c 0
403 250 m 0
 403 236 367 200 353 200 c 0
 339 200 303 236 303 250 c 0
 303 264 339 300 353 300 c 0
 367 300 403 264 403 250 c 0
297 250 m 0
 297 236 261 200 247 200 c 0
 233 200 197 236 197 250 c 0
 197 264 233 300 247 300 c 0
 261 300 297 264 297 250 c 0
190 250 m 0
 190 236 154 200 140 200 c 0
 126 200 90 236 90 250 c 0
 90 260 108 280 123 292 c 1
 108 304 90 323 90 333 c 0
 90 343 108 364 123 375 c 1
 108 386 90 407 90 417 c 0
 90 427 108 446 123 458 c 1
 108 470 90 490 90 500 c 0
 90 510 108 530 123 542 c 1
 108 554 90 573 90 583 c 0
 90 593 108 614 123 625 c 1
 108 636 90 657 90 667 c 0
 90 677 108 696 123 708 c 1
 108 720 90 740 90 750 c 0
 90 764 126 800 140 800 c 0
 154 800 190 764 190 750 c 0
 190 740 172 720 157 708 c 1
 172 696 190 677 190 667 c 0
 190 657 172 636 157 625 c 1
 172 614 190 593 190 583 c 0
 190 573 172 554 157 542 c 1
 172 530 190 510 190 500 c 0
 190 490 172 470 157 458 c 1
 172 446 190 427 190 417 c 0
 190 407 172 386 157 375 c 1
 172 364 190 343 190 333 c 0
 190 323 172 304 157 292 c 1
 172 280 190 260 190 250 c 0
EndSplineSet
EndChar

StartChar: P
Encoding: 80 80 20
Width: 600
VWidth: 0
UnlinkRmOvrlpSave: 1
Flags: W
HStem: 200 21G<133 147> 200 21G<133 147> 450 100<214.757 279.243 320.757 385.243> 700 100<214.757 279.243 320.757 385.243>
VStem: 90 100<217.757 281.781 302.062 365.203 384.797 447.938 468.219 531.781 552.062 615.203 634.797 697.938 718.219 782.243> 197 100<467.757 532.243 717.757 782.243> 303 100<467.757 532.243 717.757 782.243> 410 100<550.757 615.203 634.797 699.243>
LayerCount: 2
Back
Fore
SplineSet
190 250 m 0xbf
 190 236 154 200 140 200 c 0
 126 200 90 236 90 250 c 0
 90 260 108 280 123 292 c 1
 108 304 90 323 90 333 c 0
 90 343 108 364 123 375 c 1
 108 386 90 407 90 417 c 0
 90 427 108 446 123 458 c 1
 108 470 90 490 90 500 c 0
 90 510 108 530 123 542 c 1
 108 554 90 573 90 583 c 0
 90 593 108 614 123 625 c 1
 108 636 90 657 90 667 c 0
 90 677 108 696 123 708 c 1
 108 720 90 740 90 750 c 0
 90 764 126 800 140 800 c 0
 154 800 190 764 190 750 c 0
 190 740 172 720 157 708 c 1
 172 696 190 677 190 667 c 0
 190 657 172 636 157 625 c 1
 172 614 190 593 190 583 c 0
 190 573 172 554 157 542 c 1
 172 530 190 510 190 500 c 0
 190 490 172 470 157 458 c 1
 172 446 190 427 190 417 c 0
 190 407 172 386 157 375 c 1
 172 364 190 343 190 333 c 0
 190 323 172 304 157 292 c 1
 172 280 190 260 190 250 c 0xbf
403 500 m 0
 403 486 367 450 353 450 c 0
 339 450 303 486 303 500 c 0
 303 514 339 550 353 550 c 0
 367 550 403 514 403 500 c 0
297 500 m 0
 297 486 261 450 247 450 c 0
 233 450 197 486 197 500 c 0
 197 514 233 550 247 550 c 0
 261 550 297 514 297 500 c 0
510 583 m 0
 510 569 474 533 460 533 c 0
 446 533 410 569 410 583 c 0
 410 593 428 614 443 625 c 1
 428 636 410 657 410 667 c 0
 410 681 446 717 460 717 c 0
 474 717 510 681 510 667 c 0
 510 657 492 636 477 625 c 1
 492 614 510 593 510 583 c 0
403 750 m 0
 403 736 367 700 353 700 c 0
 339 700 303 736 303 750 c 0
 303 764 339 800 353 800 c 0
 367 800 403 764 403 750 c 0
297 750 m 0
 297 736 261 700 247 700 c 0
 233 700 197 736 197 750 c 0
 197 764 233 800 247 800 c 0
 261 800 297 764 297 750 c 0
EndSplineSet
EndChar

StartChar: T
Encoding: 84 84 21
Width: 600
VWidth: 0
UnlinkRmOvrlpSave: 1
Flags: W
HStem: 200 21G<293 307> 200 21G<293 307> 700 100<107.757 172.243 214.757 279.243 320.757 385.243 427.757 492.243>
VStem: 90 100<717.757 782.243> 197 100<717.757 782.243> 250 100<217.757 281.781 302.062 365.203 384.797 447.938 468.219 531.781 552.062 615.203 634.797 699.243> 303 100<717.757 782.243> 410 100<717.757 782.243>
LayerCount: 2
Back
Fore
SplineSet
350 250 m 0xb5
 350 236 314 200 300 200 c 0
 286 200 250 236 250 250 c 0
 250 260 268 280 283 292 c 1
 268 304 250 323 250 333 c 0
 250 343 268 364 283 375 c 1
 268 386 250 407 250 417 c 0
 250 427 268 446 283 458 c 1
 268 470 250 490 250 500 c 0
 250 510 268 530 283 542 c 1
 268 554 250 573 250 583 c 0
 250 593 268 614 283 625 c 1
 268 636 250 657 250 667 c 0
 250 681 286 717 300 717 c 0
 314 717 350 681 350 667 c 0
 350 657 332 636 317 625 c 1
 332 614 350 593 350 583 c 0
 350 573 332 554 317 542 c 1
 332 530 350 510 350 500 c 0
 350 490 332 470 317 458 c 1
 332 446 350 427 350 417 c 0
 350 407 332 386 317 375 c 1
 332 364 350 343 350 333 c 1
 350 323 332 304 317 292 c 1
 332 280 350 260 350 250 c 0xb5
510 750 m 0
 510 736 474 700 460 700 c 0
 446 700 410 736 410 750 c 0
 410 764 446 800 460 800 c 0
 474 800 510 764 510 750 c 0
403 750 m 0x33
 403 736 367 700 353 700 c 0
 339 700 303 736 303 750 c 0
 303 764 339 800 353 800 c 0
 367 800 403 764 403 750 c 0x33
297 750 m 0x39
 297 736 261 700 247 700 c 0
 233 700 197 736 197 750 c 0
 197 764 233 800 247 800 c 0
 261 800 297 764 297 750 c 0x39
190 750 m 0
 190 736 154 700 140 700 c 0
 126 700 90 736 90 750 c 0
 90 764 126 800 140 800 c 0
 154 800 190 764 190 750 c 0
EndSplineSet
EndChar

StartChar: multiply
Encoding: 215 215 22
Width: 600
VWidth: 0
UnlinkRmOvrlpSave: 1
Flags: W
HStem: 283 100<107.757 172.243 321.757 386.243> 367 100<161.757 226.243 267.757 332.243> 450 100<214.757 279.243> 533 100<161.757 226.243 267.757 332.243> 617 100<107.757 172.243 321.757 386.243>
VStem: 90 100<300.757 365.243 634.757 699.243> 144 100<384.757 449.243 550.757 615.243> 197 100<467.757 532.243> 250 100<384.757 449.243 550.757 615.243> 304 100<300.757 365.243 634.757 699.243>
LayerCount: 2
Back
Fore
SplineSet
404 333 m 0x8040
 404 319 368 283 354 283 c 0
 340 283 304 319 304 333 c 0
 304 347 340 383 354 383 c 0
 368 383 404 347 404 333 c 0x8040
190 333 m 0x84
 190 319 154 283 140 283 c 0
 126 283 90 319 90 333 c 0
 90 347 126 383 140 383 c 0
 154 383 190 347 190 333 c 0x84
350 417 m 0x4080
 350 403 314 367 300 367 c 0
 286 367 250 403 250 417 c 0
 250 431 286 467 300 467 c 0
 314 467 350 431 350 417 c 0x4080
244 417 m 0x42
 244 403 208 367 194 367 c 0
 180 367 144 403 144 417 c 0
 144 431 180 467 194 467 c 0
 208 467 244 431 244 417 c 0x42
297 500 m 0x21
 297 486 261 450 247 450 c 0
 233 450 197 486 197 500 c 0
 197 514 233 550 247 550 c 0
 261 550 297 514 297 500 c 0x21
350 583 m 0x1080
 350 569 314 533 300 533 c 0
 286 533 250 569 250 583 c 0
 250 597 286 633 300 633 c 0
 314 633 350 597 350 583 c 0x1080
244 583 m 0x12
 244 569 208 533 194 533 c 0
 180 533 144 569 144 583 c 0
 144 597 180 633 194 633 c 0
 208 633 244 597 244 583 c 0x12
404 667 m 0x0840
 404 653 368 617 354 617 c 0
 340 617 304 653 304 667 c 0
 304 681 340 717 354 717 c 0
 368 717 404 681 404 667 c 0x0840
190 667 m 0x0c
 190 653 154 617 140 617 c 0
 126 617 90 653 90 667 c 0
 90 681 126 717 140 717 c 0
 154 717 190 681 190 667 c 0x0c
EndSplineSet
EndChar

StartChar: X
Encoding: 88 88 23
Width: 600
VWidth: 0
UnlinkRmOvrlpSave: 1
Flags: W
HStem: 200 100<107.757 172.243 427.757 492.243> 283 100<160.757 225.243 374.757 439.243> 367 100<214.757 279.243 320.757 385.243> 450 100<267.757 332.243> 533 100<214.757 279.243 320.757 385.243> 617 100<160.757 225.243 374.757 439.243> 700 100<107.757 172.243 427.757 492.243>
VStem: 90 100<217.757 282.243 717.757 782.243> 143 100<300.757 365.243 634.757 699.243> 197 100<384.757 449.243 550.757 615.243> 250 100<467.757 532.243> 303 100<384.757 449.243 550.757 615.243> 357 100<300.757 365.243 634.757 699.243> 410 100<217.757 282.243 717.757 782.243>
LayerCount: 2
Back
Fore
SplineSet
510 250 m 0x8004
 510 236 474 200 460 200 c 0
 446 200 410 236 410 250 c 0
 410 264 446 300 460 300 c 0
 474 300 510 264 510 250 c 0x8004
190 250 m 0x81
 190 236 154 200 140 200 c 0
 126 200 90 236 90 250 c 0
 90 264 126 300 140 300 c 0
 154 300 190 264 190 250 c 0x81
457 333 m 0x4008
 457 319 421 283 407 283 c 0
 393 283 357 319 357 333 c 0
 357 347 393 383 407 383 c 0
 421 383 457 347 457 333 c 0x4008
243 333 m 0x4080
 243 319 207 283 193 283 c 0
 179 283 143 319 143 333 c 0
 143 347 179 383 193 383 c 0
 207 383 243 347 243 333 c 0x4080
403 417 m 0x2010
 403 403 367 367 353 367 c 0
 339 367 303 403 303 417 c 0
 303 431 339 467 353 467 c 0
 367 467 403 431 403 417 c 0x2010
297 417 m 0x2040
 297 403 261 367 247 367 c 0
 233 367 197 403 197 417 c 0
 197 431 233 467 247 467 c 0
 261 467 297 431 297 417 c 0x2040
350 500 m 0x1020
 350 486 314 450 300 450 c 0
 286 450 250 486 250 500 c 0
 250 514 286 550 300 550 c 0
 314 550 350 514 350 500 c 0x1020
403 583 m 0x0810
 403 569 367 533 353 533 c 0
 339 533 303 569 303 583 c 0
 303 597 339 633 353 633 c 0
 367 633 403 597 403 583 c 0x0810
297 583 m 0x0840
 297 569 261 533 247 533 c 0
 233 533 197 569 197 583 c 0
 197 597 233 633 247 633 c 0
 261 633 297 597 297 583 c 0x0840
457 667 m 0x0408
 457 653 421 617 407 617 c 0
 393 617 357 653 357 667 c 0
 357 681 393 717 407 717 c 0
 421 717 457 681 457 667 c 0x0408
243 667 m 0x0480
 243 653 207 617 193 617 c 0
 179 617 143 653 143 667 c 0
 143 681 179 717 193 717 c 0
 207 717 243 681 243 667 c 0x0480
510 750 m 0x0204
 510 736 474 700 460 700 c 0
 446 700 410 736 410 750 c 0
 410 764 446 800 460 800 c 0
 474 800 510 764 510 750 c 0x0204
190 750 m 0x03
 190 736 154 700 140 700 c 0
 126 700 90 736 90 750 c 0
 90 764 126 800 140 800 c 0
 154 800 190 764 190 750 c 0x03
EndSplineSet
EndChar

StartChar: backslash
Encoding: 92 92 24
Width: 600
VWidth: 0
UnlinkRmOvrlpSave: 1
Flags: W
HStem: 200 100<427.757 492.243> 283 100<374.757 439.243> 367 100<320.757 385.243> 450 100<267.757 332.243> 533 100<214.757 279.243> 617 100<160.757 225.243> 700 100<107.757 172.243>
VStem: 90 100<717.757 782.243> 143 100<634.757 699.243> 197 100<550.757 615.243> 250 100<467.757 532.243> 303 100<384.757 449.243> 357 100<300.757 365.243> 410 100<217.757 282.243>
LayerCount: 2
Back
Fore
SplineSet
510 250 m 0x8004
 510 236 474 200 460 200 c 0
 446 200 410 236 410 250 c 0
 410 264 446 300 460 300 c 0
 474 300 510 264 510 250 c 0x8004
457 333 m 0x4008
 457 319 421 283 407 283 c 0
 393 283 357 319 357 333 c 0
 357 347 393 383 407 383 c 0
 421 383 457 347 457 333 c 0x4008
403 417 m 0x2010
 403 403 367 367 353 367 c 0
 339 367 303 403 303 417 c 0
 303 431 339 467 353 467 c 0
 367 467 403 431 403 417 c 0x2010
350 500 m 0x1020
 350 486 314 450 300 450 c 0
 286 450 250 486 250 500 c 0
 250 514 286 550 300 550 c 0
 314 550 350 514 350 500 c 0x1020
297 583 m 0x0840
 297 569 261 533 247 533 c 0
 233 533 197 569 197 583 c 0
 197 597 233 633 247 633 c 0
 261 633 297 597 297 583 c 0x0840
243 667 m 0x0480
 243 653 207 617 193 617 c 0
 179 617 143 653 143 667 c 0
 143 681 179 717 193 717 c 0
 207 717 243 681 243 667 c 0x0480
190 750 m 0x03
 190 736 154 700 140 700 c 0
 126 700 90 736 90 750 c 0
 90 764 126 800 140 800 c 0
 154 800 190 764 190 750 c 0x03
EndSplineSet
EndChar

StartChar: germandbls
Encoding: 223 223 25
Width: 600
VWidth: 0
UnlinkRmOvrlpSave: 1
Flags: W
HStem: 200 100<267.757 332.243 374.757 439.243> 450 100<214.757 279.243 320.757 385.243> 533 100<267.757 332.243> 617 100<320.757 385.243> 700 100<160.757 225.243 267.757 332.243>
VStem: 90 100<217.757 281.781 302.062 365.203 384.797 447.938 468.219 531.781 552.062 615.203 634.797 699.243> 143 100<717.757 782.243> 197 100<467.757 532.243> 250 100<217.757 282.243 550.757 615.243 717.757 782.243> 303 100<467.757 532.243 634.757 699.243> 357 100<217.757 282.243> 410 100<300.757 365.203 384.797 449.243>
LayerCount: 2
Back
Fore
SplineSet
457 250 m 0x8020
 457 236 421 200 407 200 c 0
 393 200 357 236 357 250 c 0
 357 264 393 300 407 300 c 0
 421 300 457 264 457 250 c 0x8020
350 250 m 0x8080
 350 236 314 200 300 200 c 0
 286 200 250 236 250 250 c 0
 250 264 286 300 300 300 c 0
 314 300 350 264 350 250 c 0x8080
190 250 m 0x94
 190 236 154 200 140 200 c 0
 126 200 90 236 90 250 c 0
 90 260 108 280 123 292 c 1
 108 304 90 323 90 333 c 0
 90 343 108 364 123 375 c 1
 108 386 90 407 90 417 c 0
 90 427 108 446 123 458 c 1
 108 470 90 490 90 500 c 0
 90 510 108 530 123 542 c 1
 108 554 90 573 90 583 c 0
 90 593 108 614 123 625 c 1
 108 636 90 657 90 667 c 0
 90 681 126 717 140 717 c 0
 154 717 190 681 190 667 c 0
 190 657 172 636 157 625 c 1
 172 614 190 593 190 583 c 0
 190 573 172 554 157 542 c 1
 172 530 190 510 190 500 c 0
 190 490 172 470 157 458 c 1
 172 446 190 427 190 417 c 0
 190 407 172 386 157 375 c 1
 172 364 190 343 190 333 c 0
 190 323 172 304 157 292 c 1
 172 280 190 260 190 250 c 0x94
510 333 m 1x8010
 510 319 474 283 460 283 c 0
 446 283 410 319 410 333 c 0
 410 343 428 364 443 375 c 1
 428 386 410 407 410 417 c 1
 410 431 446 467 460 467 c 0
 474 467 510 431 510 417 c 0
 510 407 492 386 477 375 c 1
 492 364 510 343 510 333 c 1x8010
403 500 m 0xc040
 403 486 367 450 353 450 c 0
 339 450 303 486 303 500 c 0
 303 514 339 550 353 550 c 0
 367 550 403 514 403 500 c 0xc040
297 500 m 0xc1
 297 486 261 450 247 450 c 0
 233 450 197 486 197 500 c 0
 197 514 233 550 247 550 c 0
 261 550 297 514 297 500 c 0xc1
350 583 m 0xa080
 350 569 314 533 300 533 c 0
 286 533 250 569 250 583 c 0
 250 597 286 633 300 633 c 0
 314 633 350 597 350 583 c 0xa080
403 667 m 0x9040
 403 653 367 617 353 617 c 0
 339 617 303 653 303 667 c 0
 303 681 339 717 353 717 c 0
 367 717 403 681 403 667 c 0x9040
350 750 m 0x8880
 350 736 314 700 300 700 c 0
 286 700 250 736 250 750 c 0
 250 764 286 800 300 800 c 0
 314 800 350 764 350 750 c 0x8880
243 750 m 0x8a
 243 736 207 700 193 700 c 0
 179 700 143 736 143 750 c 0
 143 764 179 800 193 800 c 0
 207 800 243 764 243 750 c 0x8a
EndSplineSet
EndChar

StartChar: grave
Encoding: 96 96 26
Width: 600
VWidth: 0
UnlinkRmOvrlpSave: 1
Flags: W
HStem: 533 100<213.757 278.243> 617 100<160.757 225.243> 700 100<107.757 172.243>
VStem: 90 100<717.757 782.243> 143 100<634.757 699.243> 196 100<550.757 615.243>
LayerCount: 2
Back
Fore
SplineSet
296 583 m 0x84
 296 569 260 533 246 533 c 0
 232 533 196 569 196 583 c 0
 196 597 232 633 246 633 c 0
 260 633 296 597 296 583 c 0x84
243 667 m 0x48
 243 653 207 617 193 617 c 0
 179 617 143 653 143 667 c 0
 143 681 179 717 193 717 c 0
 207 717 243 681 243 667 c 0x48
190 750 m 0x30
 190 736 154 700 140 700 c 0
 126 700 90 736 90 750 c 0
 90 764 126 800 140 800 c 0
 154 800 190 764 190 750 c 0x30
EndSplineSet
EndChar

StartChar: d
Encoding: 100 100 27
Width: 600
VWidth: 0
UnlinkRmOvrlpSave: 1
Flags: W
HStem: 200 100<214.757 279.243 320.757 385.243> 533 100<160.757 225.243 267.757 332.243 374.757 439.243> 780 20G<453 467>
VStem: 90 100<300.757 365.203 384.797 447.938 468.219 532.243> 143 100<550.757 615.243> 197 100<217.757 282.243> 250 100<550.757 615.243> 303 100<217.757 282.243> 357 100<550.757 615.243> 410 100<217.757 281.781 302.062 365.203 384.797 447.938 468.219 532.243 634.757 697.938 718.219 782.243>
LayerCount: 2
Back
Fore
SplineSet
510 250 m 0xe040
 510 236 474 200 460 200 c 0
 446 200 410 236 410 250 c 0
 410 260 428 280 443 292 c 1
 428 304 410 323 410 333 c 0
 410 343 428 364 443 375 c 1
 428 386 410 407 410 417 c 1
 410 427 428 446 443 458 c 1
 428 470 410 490 410 500 c 0
 410 514 446 550 460 550 c 0
 474 550 510 514 510 500 c 0
 510 490 492 470 477 458 c 1
 492 446 510 427 510 417 c 0
 510 407 492 386 477 375 c 1
 492 364 510 343 510 333 c 1
 510 323 492 304 477 292 c 1
 492 280 510 260 510 250 c 0xe040
403 250 m 0xe1
 403 236 367 200 353 200 c 0
 339 200 303 236 303 250 c 0
 303 264 339 300 353 300 c 0
 367 300 403 264 403 250 c 0xe1
297 250 m 0xe4
 297 236 261 200 247 200 c 0
 233 200 197 236 197 250 c 0
 197 264 233 300 247 300 c 0
 261 300 297 264 297 250 c 0xe4
190 333 m 0xf0
 190 319 154 283 140 283 c 0
 126 283 90 319 90 333 c 0
 90 343 108 364 123 375 c 1
 108 386 90 407 90 417 c 0
 90 427 108 446 123 458 c 1
 108 470 90 490 90 500 c 0
 90 514 126 550 140 550 c 0
 154 550 190 514 190 500 c 0
 190 490 172 470 157 458 c 1
 172 446 190 427 190 417 c 0
 190 407 172 386 157 375 c 1
 172 364 190 343 190 333 c 0xf0
457 583 m 0xe080
 457 569 421 533 407 533 c 0
 393 533 357 569 357 583 c 0
 357 597 393 633 407 633 c 0
 421 633 457 597 457 583 c 0xe080
350 583 m 0xe2
 350 569 314 533 300 533 c 0
 286 533 250 569 250 583 c 0
 250 597 286 633 300 633 c 0
 314 633 350 597 350 583 c 0xe2
243 583 m 0xe8
 243 569 207 533 193 533 c 0
 179 533 143 569 143 583 c 0
 143 597 179 633 193 633 c 0
 207 633 243 597 243 583 c 0xe8
510 667 m 0xe040
 510 653 474 617 460 617 c 0
 446 617 410 653 410 667 c 0
 410 677 428 696 443 708 c 1
 428 720 410 740 410 750 c 0
 410 764 446 800 460 800 c 0
 474 800 510 764 510 750 c 0
 510 740 492 720 477 708 c 1
 492 696 510 677 510 667 c 0xe040
EndSplineSet
EndChar

StartChar: ccedilla
Encoding: 231 231 28
Width: 600
VWidth: 0
UnlinkRmOvrlpSave: 1
Flags: W
HStem: 200 21G<293 307> 200 21G<293 307> 283 100<160.757 225.243 374.757 439.243> 533 100<427.757 492.243> 617 100<160.757 225.243 267.757 332.243 374.757 439.243>
VStem: 90 100<384.757 447.938 468.219 531.781 552.062 615.243> 143 100<300.757 365.243 634.757 699.243> 250 100<217.757 281.781 302.062 365.243 634.757 699.243> 357 100<300.757 365.243 634.757 699.243> 410 100<550.757 615.243>
LayerCount: 2
Back
Fore
SplineSet
350 250 m 0xa1
 350 236 314 200 300 200 c 0
 286 200 250 236 250 250 c 0
 250 260 268 280 283 292 c 1
 268 304 250 323 250 333 c 0
 250 347 286 383 300 383 c 0
 314 383 350 347 350 333 c 0
 350 323 332 304 317 292 c 1
 332 280 350 260 350 250 c 0xa1
457 333 m 0x2180
 457 319 421 283 407 283 c 0
 393 283 357 319 357 333 c 0
 357 347 393 383 407 383 c 0
 421 383 457 347 457 333 c 0x2180
243 333 m 0x23
 243 319 207 283 193 283 c 0
 179 283 143 319 143 333 c 0
 143 347 179 383 193 383 c 0
 207 383 243 347 243 333 c 0x23
190 417 m 0x35
 190 403 154 367 140 367 c 0
 126 367 90 403 90 417 c 0
 90 427 108 446 123 458 c 1
 108 470 90 490 90 500 c 0
 90 510 108 530 123 542 c 1
 108 554 90 573 90 583 c 0
 90 597 126 633 140 633 c 0
 154 633 190 597 190 583 c 0
 190 573 172 554 157 542 c 1
 172 530 190 510 190 500 c 0
 190 490 172 470 157 458 c 1
 172 446 190 427 190 417 c 0x35
510 583 m 0x3140
 510 569 474 533 460 533 c 0
 446 533 410 569 410 583 c 0
 410 597 446 633 460 633 c 0
 474 633 510 597 510 583 c 0x3140
457 667 m 0x2980
 457 653 421 617 407 617 c 0
 393 617 357 653 357 667 c 0
 357 681 393 717 407 717 c 0
 421 717 457 681 457 667 c 0x2980
350 667 m 0
 350 653 314 617 300 617 c 0
 286 617 250 653 250 667 c 0
 250 681 286 717 300 717 c 0
 314 717 350 681 350 667 c 0
243 667 m 0x2b
 243 653 207 617 193 617 c 0
 179 617 143 653 143 667 c 0
 143 681 179 717 193 717 c 0
 207 717 243 681 243 667 c 0x2b
EndSplineSet
EndChar

StartChar: h
Encoding: 104 104 29
Width: 600
VWidth: 0
UnlinkRmOvrlpSave: 1
Flags: W
HStem: 200 21G<133 147 453 467> 200 21G<133 147 453 467> 533 100<160.757 225.243 267.757 332.243 374.757 439.243> 780 20G<133 147>
VStem: 90 100<217.757 281.781 302.062 365.203 384.797 447.938 468.219 532.243 634.757 697.938 718.219 782.243> 143 100<550.757 615.243> 250 100<550.757 615.243> 357 100<550.757 615.243> 410 100<217.757 281.781 302.062 365.203 384.797 447.938 468.219 532.243>
LayerCount: 2
Back
Fore
SplineSet
510 250 m 0xb280
 510 236 474 200 460 200 c 0
 446 200 410 236 410 250 c 0
 410 260 428 280 443 292 c 1
 428 304 410 323 410 333 c 0
 410 343 428 364 443 375 c 1
 428 386 410 407 410 417 c 1
 410 427 428 446 443 458 c 1
 428 470 410 490 410 500 c 0
 410 514 446 550 460 550 c 0
 474 550 510 514 510 500 c 0
 510 490 492 470 477 458 c 1
 492 446 510 427 510 417 c 0
 510 407 492 386 477 375 c 1
 492 364 510 343 510 333 c 1
 510 323 492 304 477 292 c 1
 492 280 510 260 510 250 c 0xb280
190 250 m 0xba
 190 236 154 200 140 200 c 0
 126 200 90 236 90 250 c 0
 90 260 108 280 123 292 c 1
 108 304 90 323 90 333 c 0
 90 343 108 364 123 375 c 1
 108 386 90 407 90 417 c 0
 90 427 108 446 123 458 c 1
 108 470 90 490 90 500 c 0
 90 514 126 550 140 550 c 0
 154 550 190 514 190 500 c 0
 190 490 172 470 157 458 c 1
 172 446 190 427 190 417 c 0
 190 407 172 386 157 375 c 1
 172 364 190 343 190 333 c 0
 190 323 172 304 157 292 c 1
 172 280 190 260 190 250 c 0xba
457 583 m 0x33
 457 569 421 533 407 533 c 0
 393 533 357 569 357 583 c 0
 357 597 393 633 407 633 c 0
 421 633 457 597 457 583 c 0x33
350 583 m 0
 350 569 314 533 300 533 c 0
 286 533 250 569 250 583 c 0
 250 597 286 633 300 633 c 0
 314 633 350 597 350 583 c 0
243 583 m 0x36
 243 569 207 533 193 533 c 0
 179 533 143 569 143 583 c 0
 143 597 179 633 193 633 c 0
 207 633 243 597 243 583 c 0x36
190 667 m 0x3a
 190 653 154 617 140 617 c 0
 126 617 90 653 90 667 c 0
 90 677 108 696 123 708 c 1
 108 720 90 740 90 750 c 0
 90 764 126 800 140 800 c 0
 154 800 190 764 190 750 c 0
 190 740 172 720 157 708 c 1
 172 696 190 677 190 667 c 0x3a
EndSplineSet
EndChar

StartChar: edieresis
Encoding: 235 235 30
Width: 600
VWidth: 0
UnlinkRmOvrlpSave: 1
Flags: W
HStem: 200 100<160.757 225.243 267.757 332.243 374.757 439.243> 367 100<214.757 279.243 320.757 385.243> 533 100<160.757 225.243 267.757 332.243 374.757 439.243> 700 100<160.757 225.243 374.757 439.243>
VStem: 90 100<300.757 365.203 384.797 447.938 468.219 532.243> 143 100<217.757 282.243 550.757 615.243 717.757 782.243> 197 100<384.757 449.243> 250 100<217.757 282.243 550.757 615.243> 303 100<384.757 449.243> 357 100<217.757 282.243 550.757 615.243 717.757 782.243> 410 100<384.757 447.938 468.219 532.243>
LayerCount: 2
Back
Fore
SplineSet
457 250 m 0xf040
 457 236 421 200 407 200 c 0
 393 200 357 236 357 250 c 0
 357 264 393 300 407 300 c 0
 421 300 457 264 457 250 c 0xf040
350 250 m 0xf1
 350 236 314 200 300 200 c 0
 286 200 250 236 250 250 c 0
 250 264 286 300 300 300 c 0
 314 300 350 264 350 250 c 0xf1
243 250 m 0xf4
 243 236 207 200 193 200 c 0
 179 200 143 236 143 250 c 0
 143 264 179 300 193 300 c 0
 207 300 243 264 243 250 c 0xf4
190 333 m 0xf8
 190 319 154 283 140 283 c 0
 126 283 90 319 90 333 c 0
 90 343 108 364 123 375 c 1
 108 386 90 407 90 417 c 0
 90 427 108 446 123 458 c 1
 108 470 90 490 90 500 c 0
 90 514 126 550 140 550 c 0
 154 550 190 514 190 500 c 0
 190 490 172 470 157 458 c 1
 172 446 190 427 190 417 c 0
 190 407 172 386 157 375 c 1
 172 364 190 343 190 333 c 0xf8
510 417 m 0xf020
 510 403 474 367 460 367 c 0
 446 367 410 403 410 417 c 0
 410 427 428 446 443 458 c 1
 428 470 410 490 410 500 c 0
 410 514 446 550 460 550 c 0
 474 550 510 514 510 500 c 0
 510 490 492 470 477 458 c 1
 492 446 510 427 510 417 c 0xf020
403 417 m 0xf080
 403 403 367 367 353 367 c 0
 339 367 303 403 303 417 c 0
 303 431 339 467 353 467 c 0
 367 467 403 431 403 417 c 0xf080
297 417 m 0xf2
 297 403 261 367 247 367 c 0
 233 367 197 403 197 417 c 0
 197 431 233 467 247 467 c 0
 261 467 297 431 297 417 c 0xf2
457 583 m 0xf040
 457 569 421 533 407 533 c 0
 393 533 357 569 357 583 c 0
 357 597 393 633 407 633 c 0
 421 633 457 597 457 583 c 0xf040
350 583 m 0xf1
 350 569 314 533 300 533 c 0
 286 533 250 569 250 583 c 0
 250 597 286 633 300 633 c 0
 314 633 350 597 350 583 c 0xf1
243 583 m 0xf4
 243 569 207 533 193 533 c 0
 179 533 143 569 143 583 c 0
 143 597 179 633 193 633 c 0
 207 633 243 597 243 583 c 0xf4
457 750 m 0xf040
 457 736 421 700 407 700 c 0
 393 700 357 736 357 750 c 0
 357 764 393 800 407 800 c 0
 421 800 457 764 457 750 c 0xf040
243 750 m 0xf4
 243 736 207 700 193 700 c 0
 179 700 143 736 143 750 c 0
 143 764 179 800 193 800 c 0
 207 800 243 764 243 750 c 0xf4
EndSplineSet
EndChar

StartChar: l
Encoding: 108 108 31
Width: 600
VWidth: 0
UnlinkRmOvrlpSave: 1
Flags: W
HStem: 200 100<107.757 172.243 321.757 386.243> 700 100<107.757 172.243>
VStem: 90 100<217.757 282.243 717.757 782.243> 197 100<217.757 281.781 302.062 365.203 384.797 447.938 468.219 531.781 552.062 615.203 634.797 697.938 718.219 782.243> 304 100<217.757 282.243>
CounterMasks: 1 38
LayerCount: 2
Back
Fore
SplineSet
404 250 m 0
 404 236 368 200 354 200 c 0
 340 200 304 236 304 250 c 0
 304 264 340 300 354 300 c 0
 368 300 404 264 404 250 c 0
297 250 m 0
 297 236 261 200 247 200 c 0
 233 200 197 236 197 250 c 0
 197 260 215 280 230 292 c 1
 215 304 197 323 197 333 c 0
 197 343 215 364 230 375 c 1
 215 386 197 407 197 417 c 0
 197 427 215 446 230 458 c 1
 215 470 197 490 197 500 c 0
 197 510 215 530 230 542 c 1
 215 554 197 573 197 583 c 0
 197 593 215 614 230 625 c 1
 215 636 197 657 197 667 c 0
 197 677 215 696 230 708 c 1
 215 720 197 740 197 750 c 0
 197 764 233 800 247 800 c 0
 261 800 297 764 297 750 c 0
 297 740 279 720 264 708 c 1
 279 696 297 677 297 667 c 0
 297 657 279 636 264 625 c 1
 279 614 297 593 297 583 c 0
 297 573 279 554 264 542 c 1
 279 530 297 510 297 500 c 0
 297 490 279 470 264 458 c 1
 279 446 297 427 297 417 c 0
 297 407 279 386 264 375 c 1
 279 364 297 343 297 333 c 1
 297 323 279 304 264 292 c 1
 279 280 297 260 297 250 c 0
190 250 m 0
 190 236 154 200 140 200 c 0
 126 200 90 236 90 250 c 0
 90 264 126 300 140 300 c 0
 154 300 190 264 190 250 c 0
190 750 m 0
 190 736 154 700 140 700 c 0
 126 700 90 736 90 750 c 0
 90 764 126 800 140 800 c 0
 154 800 190 764 190 750 c 0
EndSplineSet
EndChar

StartChar: p
Encoding: 112 112 32
Width: 600
VWidth: 0
UnlinkRmOvrlpSave: 1
Flags: W
HStem: 200 21G<133 147> 200 21G<133 147> 367 100<160.757 225.243 267.757 332.243 374.757 439.243> 450 100<427.757 492.243> 533 100<214.757 279.243 320.757 385.243>
VStem: 90 100<217.757 281.781 302.062 365.243 467.757 531.781 552.062 615.243> 143 100<384.757 449.243> 197 100<550.757 615.243> 250 100<384.757 449.243> 303 100<550.757 615.243> 357 100<384.757 449.243> 410 100<467.757 532.243>
LayerCount: 2
Back
Fore
SplineSet
190 250 m 0x84
 190 236 154 200 140 200 c 0
 126 200 90 236 90 250 c 0
 90 260 108 280 123 292 c 1
 108 304 90 323 90 333 c 0
 90 347 126 383 140 383 c 0
 154 383 190 347 190 333 c 0
 190 323 172 304 157 292 c 1
 172 280 190 260 190 250 c 0x84
457 417 m 0x2020
 457 403 421 367 407 367 c 0
 393 367 357 403 357 417 c 0
 357 431 393 467 407 467 c 0
 421 467 457 431 457 417 c 0x2020
350 417 m 0x2080
 350 403 314 367 300 367 c 0
 286 367 250 403 250 417 c 0
 250 431 286 467 300 467 c 0
 314 467 350 431 350 417 c 0x2080
243 417 m 0x22
 243 403 207 367 193 367 c 0
 179 367 143 403 143 417 c 0
 143 431 179 467 193 467 c 0
 207 467 243 431 243 417 c 0x22
510 500 m 0x1010
 510 486 474 450 460 450 c 0
 446 450 410 486 410 500 c 0
 410 514 446 550 460 550 c 0
 474 550 510 514 510 500 c 0x1010
190 500 m 0x0c
 190 486 154 450 140 450 c 0x14
 126 450 90 486 90 500 c 0
 90 510 108 530 123 542 c 1
 108 554 90 573 90 583 c 0
 90 597 126 633 140 633 c 0
 154 633 190 597 190 583 c 0
 190 573 172 554 157 542 c 1
 172 530 190 510 190 500 c 0x0c
403 583 m 0x0840
 403 569 367 533 353 533 c 0
 339 533 303 569 303 583 c 0
 303 597 339 633 353 633 c 0
 367 633 403 597 403 583 c 0x0840
297 583 m 0x09
 297 569 261 533 247 533 c 0
 233 533 197 569 197 583 c 0
 197 597 233 633 247 633 c 0
 261 633 297 597 297 583 c 0x09
EndSplineSet
EndChar

StartChar: t
Encoding: 116 116 33
Width: 600
VWidth: 0
UnlinkRmOvrlpSave: 1
Flags: W
HStem: 200 100<267.757 332.243 374.757 439.243> 283 100<427.757 492.243> 533 100<107.757 172.243 320.757 385.243> 780 20G<240 254>
VStem: 90 100<550.757 615.243> 197 100<300.757 365.203 384.797 447.938 468.219 531.781 552.062 615.203 634.797 697.938 718.219 782.243> 250 100<217.757 282.243> 303 100<550.757 615.243> 357 100<217.757 282.243> 410 100<300.757 365.243>
LayerCount: 2
Back
Fore
SplineSet
457 250 m 0xb880
 457 236 421 200 407 200 c 0
 393 200 357 236 357 250 c 0
 357 264 393 300 407 300 c 0
 421 300 457 264 457 250 c 0xb880
350 250 m 0xba
 350 236 314 200 300 200 c 0
 286 200 250 236 250 250 c 0
 250 264 286 300 300 300 c 0
 314 300 350 264 350 250 c 0xba
510 333 m 0x7840
 510 319 474 283 460 283 c 0
 446 283 410 319 410 333 c 0
 410 347 446 383 460 383 c 0
 474 383 510 347 510 333 c 0x7840
297 333 m 0x7c
 297 319 261 283 247 283 c 0
 233 283 197 319 197 333 c 0
 197 343 215 364 230 375 c 1
 215 386 197 407 197 417 c 0
 197 427 215 446 230 458 c 1
 215 470 197 490 197 500 c 0
 197 510 215 530 230 542 c 1
 215 554 197 573 197 583 c 0
 197 593 215 614 230 625 c 1
 215 636 197 657 197 667 c 0
 197 677 215 696 230 708 c 1
 215 720 197 740 197 750 c 0
 197 764 233 800 247 800 c 0
 261 800 297 764 297 750 c 0
 297 740 279 720 264 708 c 1
 279 696 297 677 297 667 c 0
 297 657 279 636 264 625 c 1
 279 614 297 593 297 583 c 0
 297 573 279 554 264 542 c 1
 279 530 297 510 297 500 c 0
 297 490 279 470 264 458 c 1
 279 446 297 427 297 417 c 0
 297 407 279 386 264 375 c 1
 279 364 297 343 297 333 c 0x7c
403 583 m 0x39
 403 569 367 533 353 533 c 0
 339 533 303 569 303 583 c 0
 303 597 339 633 353 633 c 0
 367 633 403 597 403 583 c 0x39
190 583 m 0
 190 569 154 533 140 533 c 0
 126 533 90 569 90 583 c 0
 90 597 126 633 140 633 c 0
 154 633 190 597 190 583 c 0
EndSplineSet
EndChar

StartChar: divide
Encoding: 247 247 34
Width: 600
VWidth: 0
UnlinkRmOvrlpSave: 1
Flags: W
HStem: 283 100<267.757 332.243> 450 100<107.757 172.243 214.757 279.243 320.757 385.243 427.757 492.243> 617 100<267.757 332.243>
VStem: 90 100<467.757 532.243> 197 100<467.757 532.243> 250 100<300.757 365.243 634.757 699.243> 303 100<467.757 532.243> 410 100<467.757 532.243>
CounterMasks: 1 e0
LayerCount: 2
Back
Fore
SplineSet
350 333 m 0xf5
 350 319 314 283 300 283 c 0
 286 283 250 319 250 333 c 0
 250 347 286 383 300 383 c 0
 314 383 350 347 350 333 c 0xf5
510 500 m 0
 510 486 474 450 460 450 c 0
 446 450 410 486 410 500 c 0
 410 514 446 550 460 550 c 0
 474 550 510 514 510 500 c 0
403 500 m 0xf3
 403 486 367 450 353 450 c 0
 339 450 303 486 303 500 c 0
 303 514 339 550 353 550 c 0
 367 550 403 514 403 500 c 0xf3
297 500 m 0xf9
 297 486 261 450 247 450 c 0
 233 450 197 486 197 500 c 0
 197 514 233 550 247 550 c 0
 261 550 297 514 297 500 c 0xf9
190 500 m 0
 190 486 154 450 140 450 c 0
 126 450 90 486 90 500 c 0
 90 514 126 550 140 550 c 0
 154 550 190 514 190 500 c 0
350 667 m 0xf5
 350 653 314 617 300 617 c 0
 286 617 250 653 250 667 c 0
 250 681 286 717 300 717 c 0
 314 717 350 681 350 667 c 0xf5
EndSplineSet
EndChar

StartChar: x
Encoding: 120 120 35
Width: 600
VWidth: 0
UnlinkRmOvrlpSave: 1
Flags: W
HStem: 200 100<107.757 172.243 427.757 492.243> 283 100<160.757 225.243 374.757 439.243> 367 100<267.757 332.243> 450 100<160.757 225.243 374.757 439.243> 533 100<107.757 172.243 427.757 492.243>
VStem: 90 100<217.757 282.243 550.757 615.243> 143 100<300.757 365.243 467.757 532.243> 250 100<384.757 449.243> 357 100<300.757 365.243 467.757 532.243> 410 100<217.757 282.243 550.757 615.243>
LayerCount: 2
Back
Fore
SplineSet
510 250 m 0x8140
 510 236 474 200 460 200 c 0
 446 200 410 236 410 250 c 0
 410 264 446 300 460 300 c 0
 474 300 510 264 510 250 c 0x8140
190 250 m 0x85
 190 236 154 200 140 200 c 0
 126 200 90 236 90 250 c 0
 90 264 126 300 140 300 c 0
 154 300 190 264 190 250 c 0x85
457 333 m 0x4180
 457 319 421 283 407 283 c 0
 393 283 357 319 357 333 c 0
 357 347 393 383 407 383 c 0
 421 383 457 347 457 333 c 0x4180
243 333 m 0x43
 243 319 207 283 193 283 c 0
 179 283 143 319 143 333 c 0
 143 347 179 383 193 383 c 0
 207 383 243 347 243 333 c 0x43
350 417 m 0
 350 403 314 367 300 367 c 0
 286 367 250 403 250 417 c 0
 250 431 286 467 300 467 c 0x21
 314 467 350 431 350 417 c 0
457 500 m 0x1180
 457 486 421 450 407 450 c 0
 393 450 357 486 357 500 c 0
 357 514 393 550 407 550 c 0
 421 550 457 514 457 500 c 0x1180
243 500 m 0x13
 243 486 207 450 193 450 c 0
 179 450 143 486 143 500 c 0
 143 514 179 550 193 550 c 0
 207 550 243 514 243 500 c 0x13
510 583 m 0x0940
 510 569 474 533 460 533 c 0
 446 533 410 569 410 583 c 0
 410 597 446 633 460 633 c 0
 474 633 510 597 510 583 c 0x0940
190 583 m 0x0d
 190 569 154 533 140 533 c 0
 126 533 90 569 90 583 c 0
 90 597 126 633 140 633 c 0
 154 633 190 597 190 583 c 0x0d
EndSplineSet
EndChar

StartChar: bar
Encoding: 124 124 36
Width: 600
VWidth: 0
UnlinkRmOvrlpSave: 1
Flags: W
HStem: 200 21G<133 147> 200 21G<133 147> 780 20G<133 147>
VStem: 90 100<217.757 281.781 302.062 365.203 384.797 447.938 468.219 531.781 552.062 615.203 634.797 697.938 718.219 782.243>
LayerCount: 2
Back
Fore
SplineSet
190 250 m 0xb0
 190 236 154 200 140 200 c 0
 126 200 90 236 90 250 c 0
 90 260 108 280 123 292 c 1
 108 304 90 323 90 333 c 0
 90 343 108 364 123 375 c 1
 108 386 90 407 90 417 c 0
 90 427 108 446 123 458 c 1
 108 470 90 490 90 500 c 0
 90 510 108 530 123 542 c 1
 108 554 90 573 90 583 c 0
 90 593 108 614 123 625 c 1
 108 636 90 657 90 667 c 0
 90 677 108 696 123 708 c 1
 108 720 90 740 90 750 c 0
 90 764 126 800 140 800 c 0
 154 800 190 764 190 750 c 0
 190 740 172 720 157 708 c 1
 172 696 190 677 190 667 c 0
 190 657 172 636 157 625 c 1
 172 614 190 593 190 583 c 0
 190 573 172 554 157 542 c 1
 172 530 190 510 190 500 c 0
 190 490 172 470 157 458 c 1
 172 446 190 427 190 417 c 0
 190 407 172 386 157 375 c 1
 172 364 190 343 190 333 c 1
 190 323 172 304 157 292 c 1
 172 280 190 260 190 250 c 0xb0
EndSplineSet
EndChar

StartChar: glyph37
Encoding: 769 769 37
Width: 600
VWidth: 0
UnlinkRmOvrlpSave: 1
Flags: W
HStem: 533 100<107.757 172.243> 617 100<160.757 225.243> 700 100<213.757 278.243>
VStem: 90 100<550.757 615.243> 143 100<634.757 699.243> 196 100<717.757 782.243>
LayerCount: 2
Back
Fore
SplineSet
190 583 m 0x90
 190 569 154 533 140 533 c 0
 126 533 90 569 90 583 c 0
 90 597 126 633 140 633 c 0
 154 633 190 597 190 583 c 0x90
243 667 m 0x48
 243 653 207 617 193 617 c 0
 179 617 143 653 143 667 c 0
 143 681 179 717 193 717 c 0
 207 717 243 681 243 667 c 0x48
296 750 m 0x24
 296 736 260 700 246 700 c 0
 232 700 196 736 196 750 c 0
 196 764 232 800 246 800 c 0
 260 800 296 764 296 750 c 0x24
EndSplineSet
EndChar

StartChar: glyph38
Encoding: 8594 8594 38
Width: 600
VWidth: 0
UnlinkRmOvrlpSave: 1
Flags: W
HStem: 283 100<320.757 385.243> 367 100<374.757 439.243> 450 100<107.757 172.243 214.757 279.243 320.757 385.243 427.757 492.243> 533 100<374.757 439.243> 617 100<320.757 385.243>
VStem: 90 100<467.757 532.243> 197 100<467.757 532.243> 303 100<300.757 365.243 467.757 532.243 634.757 699.243> 357 100<384.757 449.243 550.757 615.243> 410 100<467.757 532.243>
LayerCount: 2
Back
Fore
SplineSet
403 333 m 0x87
 403 319 367 283 353 283 c 0
 339 283 303 319 303 333 c 0
 303 347 339 383 353 383 c 0
 367 383 403 347 403 333 c 0x87
457 417 m 0x4680
 457 403 421 367 407 367 c 0
 393 367 357 403 357 417 c 0
 357 431 393 467 407 467 c 0
 421 467 457 431 457 417 c 0x4680
510 500 m 0x2640
 510 486 474 450 460 450 c 0
 446 450 410 486 410 500 c 0
 410 514 446 550 460 550 c 0
 474 550 510 514 510 500 c 0x2640
403 500 m 0x27
 403 486 367 450 353 450 c 0
 339 450 303 486 303 500 c 0
 303 514 339 550 353 550 c 0
 367 550 403 514 403 500 c 0x27
297 500 m 0
 297 486 261 450 247 450 c 0
 233 450 197 486 197 500 c 0
 197 514 233 550 247 550 c 0
 261 550 297 514 297 500 c 0
190 500 m 0
 190 486 154 450 140 450 c 0
 126 450 90 486 90 500 c 0
 90 514 126 550 140 550 c 0
 154 550 190 514 190 500 c 0
457 583 m 0x1680
 457 569 421 533 407 533 c 0
 393 533 357 569 357 583 c 0
 357 597 393 633 407 633 c 0
 421 633 457 597 457 583 c 0x1680
403 667 m 0x0f
 403 653 367 617 353 617 c 0
 339 617 303 653 303 667 c 0
 303 681 339 717 353 717 c 0
 367 717 403 681 403 667 c 0x0f
EndSplineSet
EndChar

StartChar: numbersign
Encoding: 35 35 39
Width: 600
VWidth: 0
UnlinkRmOvrlpSave: 1
Flags: W
HStem: 200 21G<240 254 346 360> 200 21G<240 254 346 360> 367 100<107.757 172.243 427.757 492.243> 533 100<107.757 172.243 427.757 492.243> 780 20G<240 254 346 360>
VStem: 90 100<384.757 449.243 550.757 615.243> 197 100<217.757 281.781 302.062 365.203 384.797 447.938 468.219 531.781 552.062 615.203 634.797 697.938 718.219 782.243> 303 100<217.757 281.781 302.062 365.203 384.797 447.938 468.219 531.781 552.062 615.203 634.797 697.938 718.219 782.243> 410 100<384.757 449.243 550.757 615.243>
LayerCount: 2
Back
Fore
SplineSet
403 250 m 0xbf80
 403 236 367 200 353 200 c 0
 339 200 303 236 303 250 c 0
 303 260 321 280 336 292 c 1
 321 304 303 323 303 333 c 0
 303 343 321 364 336 375 c 1
 321 386 303 407 303 417 c 1
 303 427 321 446 336 458 c 1
 321 470 303 490 303 500 c 0
 303 510 321 530 336 542 c 1
 321 554 303 573 303 583 c 0
 303 593 321 614 336 625 c 1
 321 636 303 657 303 667 c 0
 303 677 321 696 336 708 c 1
 321 720 303 740 303 750 c 0
 303 764 339 800 353 800 c 0
 367 800 403 764 403 750 c 0
 403 740 385 720 370 708 c 1
 385 696 403 677 403 667 c 0
 403 657 385 636 370 625 c 1
 385 614 403 593 403 583 c 0
 403 573 385 554 370 542 c 1
 385 530 403 510 403 500 c 0
 403 490 385 470 370 458 c 1
 385 446 403 427 403 417 c 0
 403 407 385 386 370 375 c 1
 385 364 403 343 403 333 c 1
 403 323 385 304 370 292 c 1
 385 280 403 260 403 250 c 0xbf80
297 250 m 0
 297 236 261 200 247 200 c 0
 233 200 197 236 197 250 c 0
 197 260 215 280 230 292 c 1
 215 304 197 323 197 333 c 0
 197 343 215 364 230 375 c 1
 215 386 197 407 197 417 c 0
 197 427 215 446 230 458 c 1
 215 470 197 490 197 500 c 0
 197 510 215 530 230 542 c 1
 215 554 197 573 197 583 c 0
 197 593 215 614 230 625 c 1
 215 636 197 657 197 667 c 0
 197 677 215 696 230 708 c 1
 215 720 197 740 197 750 c 0
 197 764 233 800 247 800 c 0
 261 800 297 764 297 750 c 0
 297 740 279 720 264 708 c 1
 279 696 297 677 297 667 c 0
 297 657 279 636 264 625 c 1
 279 614 297 593 297 583 c 0
 297 573 279 554 264 542 c 1
 279 530 297 510 297 500 c 0
 297 490 279 470 264 458 c 1
 279 446 297 427 297 417 c 0
 297 407 279 386 264 375 c 1
 279 364 297 343 297 333 c 0
 297 323 279 304 264 292 c 1
 279 280 297 260 297 250 c 0
510 417 m 0
 510 403 474 367 460 367 c 0
 446 367 410 403 410 417 c 0
 410 431 446 467 460 467 c 0
 474 467 510 431 510 417 c 0
190 417 m 0
 190 403 154 367 140 367 c 0
 126 367 90 403 90 417 c 0
 90 431 126 467 140 467 c 0
 154 467 190 431 190 417 c 0
510 583 m 0
 510 569 474 533 460 533 c 0
 446 533 410 569 410 583 c 0
 410 597 446 633 460 633 c 0
 474 633 510 597 510 583 c 0
190 583 m 0
 190 569 154 533 140 533 c 0
 126 533 90 569 90 583 c 0
 90 597 126 633 140 633 c 0
 154 633 190 597 190 583 c 0
EndSplineSet
EndChar

StartChar: glyph40
Encoding: 8356 8356 40
Width: 600
VWidth: 0
UnlinkRmOvrlpSave: 1
Flags: W
HStem: 200 100<107.757 172.243 320.757 385.243 427.757 492.243> 367 100<107.757 172.243 320.757 385.243> 533 100<107.757 172.243 320.757 385.243> 617 100<427.757 492.243> 700 100<267.757 332.243 374.757 439.243>
VStem: 90 100<217.757 282.243 384.757 449.243 550.757 615.243> 197 100<217.757 281.781 302.062 365.203 384.797 447.938 468.219 531.781 552.062 615.203 634.797 699.243> 250 100<717.757 782.243> 303 100<217.757 282.243 384.757 449.243 550.757 615.243> 357 100<717.757 782.243> 410 100<217.757 282.243 634.757 699.243>
LayerCount: 2
Back
Fore
SplineSet
510 250 m 0xc420
 510 236 474 200 460 200 c 0
 446 200 410 236 410 250 c 0
 410 264 446 300 460 300 c 0
 474 300 510 264 510 250 c 0xc420
403 250 m 0xc480
 403 236 367 200 353 200 c 0
 339 200 303 236 303 250 c 0
 303 264 339 300 353 300 c 0
 367 300 403 264 403 250 c 0xc480
297 250 m 0xd6
 297 236 261 200 247 200 c 0
 233 200 197 236 197 250 c 0
 197 260 215 280 230 292 c 1
 215 304 197 323 197 333 c 0
 197 343 215 364 230 375 c 1
 215 386 197 407 197 417 c 0
 197 427 215 446 230 458 c 1
 215 470 197 490 197 500 c 0
 197 510 215 530 230 542 c 1
 215 554 197 573 197 583 c 0
 197 593 215 614 230 625 c 1
 215 636 197 657 197 667 c 0
 197 681 233 717 247 717 c 0
 261 717 297 681 297 667 c 0
 297 657 279 636 264 625 c 1
 279 614 297 593 297 583 c 0
 297 573 279 554 264 542 c 1
 279 530 297 510 297 500 c 0
 297 490 279 470 264 458 c 1
 279 446 297 427 297 417 c 0
 297 407 279 386 264 375 c 1
 279 364 297 343 297 333 c 0
 297 323 279 304 264 292 c 1
 279 280 297 260 297 250 c 0xd6
190 250 m 0
 190 236 154 200 140 200 c 0
 126 200 90 236 90 250 c 0
 90 264 126 300 140 300 c 0
 154 300 190 264 190 250 c 0
403 417 m 0xc480
 403 403 367 367 353 367 c 0
 339 367 303 403 303 417 c 0
 303 431 339 467 353 467 c 0
 367 467 403 431 403 417 c 0xc480
190 417 m 0
 190 403 154 367 140 367 c 0
 126 367 90 403 90 417 c 0
 90 431 126 467 140 467 c 0
 154 467 190 431 190 417 c 0
403 583 m 0
 403 569 367 533 353 533 c 0
 339 533 303 569 303 583 c 0
 303 597 339 633 353 633 c 0xe480
 367 633 403 597 403 583 c 0
190 583 m 0
 190 569 154 533 140 533 c 0
 126 533 90 569 90 583 c 0
 90 597 126 633 140 633 c 0
 154 633 190 597 190 583 c 0
510 667 m 0xd420
 510 653 474 617 460 617 c 0
 446 617 410 653 410 667 c 0
 410 681 446 717 460 717 c 0
 474 717 510 681 510 667 c 0xd420
457 750 m 0xcc40
 457 736 421 700 407 700 c 0
 393 700 357 736 357 750 c 0
 357 764 393 800 407 800 c 0
 421 800 457 764 457 750 c 0xcc40
350 750 m 0xcd
 350 736 314 700 300 700 c 0
 286 700 250 736 250 750 c 0
 250 764 286 800 300 800 c 0
 314 800 350 764 350 750 c 0xcd
EndSplineSet
EndChar

StartChar: quotesingle
Encoding: 39 39 41
Width: 600
VWidth: 0
UnlinkRmOvrlpSave: 1
Flags: W
HStem: 533 100<107.757 172.243> 617 100<160.757 225.243> 700 100<213.757 278.243>
VStem: 90 100<550.757 615.243> 143 100<634.757 699.243> 196 100<717.757 782.243>
LayerCount: 2
Back
Fore
SplineSet
190 583 m 0x90
 190 569 154 533 140 533 c 0
 126 533 90 569 90 583 c 0
 90 597 126 633 140 633 c 0
 154 633 190 597 190 583 c 0x90
243 667 m 0x48
 243 653 207 617 193 617 c 0
 179 617 143 653 143 667 c 0
 143 681 179 717 193 717 c 0
 207 717 243 681 243 667 c 0x48
296 750 m 0x24
 296 736 260 700 246 700 c 0
 232 700 196 736 196 750 c 0
 196 764 232 800 246 800 c 0
 260 800 296 764 296 750 c 0x24
EndSplineSet
EndChar

StartChar: plus
Encoding: 43 43 42
Width: 600
VWidth: 0
UnlinkRmOvrlpSave: 1
Flags: W
HStem: 200 21G<293 307> 200 21G<293 307> 450 100<107.757 172.243 214.757 279.243 320.757 385.243 427.757 492.243> 780 20G<293 307>
VStem: 90 100<467.757 532.243> 197 100<467.757 532.243> 250 100<217.757 281.781 302.062 365.203 384.797 449.243 550.757 615.203 634.797 697.938 718.219 782.243> 303 100<467.757 532.243> 410 100<467.757 532.243>
LayerCount: 2
Back
Fore
SplineSet
350 250 m 0xba80
 350 236 314 200 300 200 c 0
 286 200 250 236 250 250 c 0
 250 260 268 280 283 292 c 1
 268 304 250 323 250 333 c 0
 250 343 268 364 283 375 c 1
 268 386 250 407 250 417 c 0
 250 431 286 467 300 467 c 0
 314 467 350 431 350 417 c 0
 350 407 332 386 317 375 c 1
 332 364 350 343 350 333 c 1
 350 323 332 304 317 292 c 1
 332 280 350 260 350 250 c 0xba80
510 500 m 0
 510 486 474 450 460 450 c 0
 446 450 410 486 410 500 c 0
 410 514 446 550 460 550 c 0
 474 550 510 514 510 500 c 0
403 500 m 0x3980
 403 486 367 450 353 450 c 0
 339 450 303 486 303 500 c 0
 303 514 339 550 353 550 c 0
 367 550 403 514 403 500 c 0x3980
297 500 m 0x3c80
 297 486 261 450 247 450 c 0
 233 450 197 486 197 500 c 0
 197 514 233 550 247 550 c 0
 261 550 297 514 297 500 c 0x3c80
190 500 m 0
 190 486 154 450 140 450 c 0
 126 450 90 486 90 500 c 0
 90 514 126 550 140 550 c 0
 154 550 190 514 190 500 c 0
350 583 m 0x3a80
 350 569 314 533 300 533 c 0
 286 533 250 569 250 583 c 0
 250 593 268 614 283 625 c 1
 268 636 250 657 250 667 c 0
 250 677 268 696 283 708 c 1
 268 720 250 740 250 750 c 0
 250 764 286 800 300 800 c 0
 314 800 350 764 350 750 c 0
 350 740 332 720 317 708 c 1
 332 696 350 677 350 667 c 0
 350 657 332 636 317 625 c 1
 332 614 350 593 350 583 c 0x3a80
EndSplineSet
EndChar

StartChar: glyph43
Encoding: 8364 8364 43
Width: 600
VWidth: 0
UnlinkRmOvrlpSave: 1
Flags: W
HStem: 200 100<267.757 332.243 374.757 439.243> 283 100<427.757 492.243> 367 100<107.757 172.243 320.757 385.243> 533 100<107.757 172.243 320.757 385.243> 617 100<427.757 492.243> 700 100<267.757 332.243 374.757 439.243>
VStem: 90 100<384.757 449.243 550.757 615.243> 197 100<300.757 365.203 384.797 447.938 468.219 531.781 552.062 615.203 634.797 699.243> 250 100<217.757 282.243 717.757 782.243> 303 100<384.757 449.243 550.757 615.243> 357 100<217.757 282.243 717.757 782.243> 410 100<300.757 365.243 634.757 699.243>
LayerCount: 2
Back
Fore
SplineSet
457 250 m 0x8220
 457 236 421 200 407 200 c 0
 393 200 357 236 357 250 c 0
 357 264 393 300 407 300 c 0
 421 300 457 264 457 250 c 0x8220
350 250 m 0x8280
 350 236 314 200 300 200 c 0
 286 200 250 236 250 250 c 0
 250 264 286 300 300 300 c 0
 314 300 350 264 350 250 c 0x8280
510 333 m 0x4210
 510 319 474 283 460 283 c 0
 446 283 410 319 410 333 c 0
 410 347 446 383 460 383 c 0
 474 383 510 347 510 333 c 0x4210
297 333 m 0x4b
 297 319 261 283 247 283 c 0
 233 283 197 319 197 333 c 0
 197 343 215 364 230 375 c 1
 215 386 197 407 197 417 c 0
 197 427 215 446 230 458 c 1
 215 470 197 490 197 500 c 0
 197 510 215 530 230 542 c 1
 215 554 197 573 197 583 c 0
 197 593 215 614 230 625 c 1
 215 636 197 657 197 667 c 0
 197 681 233 717 247 717 c 0
 261 717 297 681 297 667 c 0
 297 657 279 636 264 625 c 1
 279 614 297 593 297 583 c 0
 297 573 279 554 264 542 c 1
 279 530 297 510 297 500 c 0
 297 490 279 470 264 458 c 1
 279 446 297 427 297 417 c 0
 297 407 279 386 264 375 c 1
 279 364 297 343 297 333 c 0x4b
403 417 m 0x2240
 403 403 367 367 353 367 c 0
 339 367 303 403 303 417 c 0
 303 431 339 467 353 467 c 0
 367 467 403 431 403 417 c 0x2240
190 417 m 0
 190 403 154 367 140 367 c 0
 126 367 90 403 90 417 c 0
 90 431 126 467 140 467 c 0
 154 467 190 431 190 417 c 0
403 583 m 0
 403 569 367 533 353 533 c 0
 339 533 303 569 303 583 c 0
 303 597 339 633 353 633 c 0x1240
 367 633 403 597 403 583 c 0
190 583 m 0
 190 569 154 533 140 533 c 0
 126 533 90 569 90 583 c 0
 90 597 126 633 140 633 c 0
 154 633 190 597 190 583 c 0
510 667 m 0x0a10
 510 653 474 617 460 617 c 0
 446 617 410 653 410 667 c 0
 410 681 446 717 460 717 c 0
 474 717 510 681 510 667 c 0x0a10
457 750 m 0x0620
 457 736 421 700 407 700 c 0
 393 700 357 736 357 750 c 0
 357 764 393 800 407 800 c 0
 421 800 457 764 457 750 c 0x0620
350 750 m 0x0680
 350 736 314 700 300 700 c 0
 286 700 250 736 250 750 c 0
 250 764 286 800 300 800 c 0
 314 800 350 764 350 750 c 0x0680
EndSplineSet
EndChar

StartChar: slash
Encoding: 47 47 44
Width: 600
VWidth: 0
UnlinkRmOvrlpSave: 1
Flags: W
HStem: 200 100<107.757 172.243> 283 100<160.757 225.243> 367 100<214.757 279.243> 450 100<267.757 332.243> 533 100<320.757 385.243> 617 100<374.757 439.243> 700 100<427.757 492.243>
VStem: 90 100<217.757 282.243> 143 100<300.757 365.243> 197 100<384.757 449.243> 250 100<467.757 532.243> 303 100<550.757 615.243> 357 100<634.757 699.243> 410 100<717.757 782.243>
LayerCount: 2
Back
Fore
SplineSet
190 250 m 0x81
 190 236 154 200 140 200 c 0
 126 200 90 236 90 250 c 0
 90 264 126 300 140 300 c 0
 154 300 190 264 190 250 c 0x81
243 333 m 0x4080
 243 319 207 283 193 283 c 0
 179 283 143 319 143 333 c 0
 143 347 179 383 193 383 c 0
 207 383 243 347 243 333 c 0x4080
297 417 m 0x2040
 297 403 261 367 247 367 c 0
 233 367 197 403 197 417 c 0
 197 431 233 467 247 467 c 0
 261 467 297 431 297 417 c 0x2040
350 500 m 0x1020
 350 486 314 450 300 450 c 0
 286 450 250 486 250 500 c 0
 250 514 286 550 300 550 c 0
 314 550 350 514 350 500 c 0x1020
403 583 m 0x0810
 403 569 367 533 353 533 c 0
 339 533 303 569 303 583 c 0
 303 597 339 633 353 633 c 0
 367 633 403 597 403 583 c 0x0810
457 667 m 0x0408
 457 653 421 617 407 617 c 0
 393 617 357 653 357 667 c 0
 357 681 393 717 407 717 c 0
 421 717 457 681 457 667 c 0x0408
510 750 m 0x0204
 510 736 474 700 460 700 c 0
 446 700 410 736 410 750 c 0
 410 764 446 800 460 800 c 0
 474 800 510 764 510 750 c 0x0204
EndSplineSet
EndChar

StartChar: glyph45
Encoding: 305 305 45
Width: 600
VWidth: 0
UnlinkRmOvrlpSave: 1
Flags: W
HStem: 200 100<107.757 172.243 321.757 386.243> 533 100<107.757 172.243>
VStem: 90 100<217.757 282.243 550.757 615.243> 197 100<217.757 281.781 302.062 365.203 384.797 447.938 468.219 531.781 552.062 615.243> 304 100<217.757 282.243>
CounterMasks: 1 38
LayerCount: 2
Back
Fore
SplineSet
404 250 m 0
 404 236 368 200 354 200 c 0
 340 200 304 236 304 250 c 0
 304 264 340 300 354 300 c 0
 368 300 404 264 404 250 c 0
297 250 m 0
 297 236 261 200 247 200 c 0
 233 200 197 236 197 250 c 0
 197 260 215 280 230 292 c 1
 215 304 197 323 197 333 c 0
 197 343 215 364 230 375 c 1
 215 386 197 407 197 417 c 0
 197 427 215 446 230 458 c 1
 215 470 197 490 197 500 c 0
 197 510 215 530 230 542 c 1
 215 554 197 573 197 583 c 0
 197 597 233 633 247 633 c 0
 261 633 297 597 297 583 c 0
 297 573 279 554 264 542 c 1
 279 530 297 510 297 500 c 0
 297 490 279 470 264 458 c 1
 279 446 297 427 297 417 c 0
 297 407 279 386 264 375 c 1
 279 364 297 343 297 333 c 1
 297 323 279 304 264 292 c 1
 279 280 297 260 297 250 c 0
190 250 m 0
 190 236 154 200 140 200 c 0
 126 200 90 236 90 250 c 0
 90 264 126 300 140 300 c 0
 154 300 190 264 190 250 c 0
190 583 m 0
 190 569 154 533 140 533 c 0
 126 533 90 569 90 583 c 0
 90 597 126 633 140 633 c 0
 154 633 190 597 190 583 c 0
EndSplineSet
EndChar

StartChar: degree
Encoding: 176 176 46
Width: 600
VWidth: 0
UnlinkRmOvrlpSave: 1
Flags: W
HStem: 533 100<161.757 226.243 267.757 332.243> 617 100<107.757 172.243 321.757 386.243> 700 100<161.757 226.243 267.757 332.243>
VStem: 90 100<634.757 699.243> 144 100<550.757 615.243 717.757 782.243> 250 100<550.757 615.243 717.757 782.243> 304 100<634.757 699.243>
LayerCount: 2
Back
Fore
SplineSet
350 583 m 0x84
 350 569 314 533 300 533 c 0
 286 533 250 569 250 583 c 0
 250 597 286 633 300 633 c 0
 314 633 350 597 350 583 c 0x84
244 583 m 0x88
 244 569 208 533 194 533 c 0
 180 533 144 569 144 583 c 0
 144 597 180 633 194 633 c 0
 208 633 244 597 244 583 c 0x88
404 667 m 0x42
 404 653 368 617 354 617 c 0
 340 617 304 653 304 667 c 0
 304 681 340 717 354 717 c 0
 368 717 404 681 404 667 c 0x42
190 667 m 0x50
 190 653 154 617 140 617 c 0
 126 617 90 653 90 667 c 0
 90 681 126 717 140 717 c 0
 154 717 190 681 190 667 c 0x50
350 750 m 0x24
 350 736 314 700 300 700 c 0
 286 700 250 736 250 750 c 0
 250 764 286 800 300 800 c 0
 314 800 350 764 350 750 c 0x24
244 750 m 0x28
 244 736 208 700 194 700 c 0
 180 700 144 736 144 750 c 0
 144 764 180 800 194 800 c 0
 208 800 244 764 244 750 c 0x28
EndSplineSet
EndChar

StartChar: three
Encoding: 51 51 47
Width: 600
VWidth: 0
UnlinkRmOvrlpSave: 1
Flags: W
HStem: 200 100<160.757 225.243 267.757 332.243 374.757 439.243> 283 100<107.757 172.243> 450 100<267.757 332.243 374.757 439.243> 533 100<320.757 385.243> 617 100<374.757 439.243> 700 100<107.757 172.243 214.757 279.243 320.757 385.243 427.757 492.243>
VStem: 90 100<300.757 365.243 717.757 782.243> 143 100<217.757 282.243> 197 100<717.757 782.243> 250 100<217.757 282.243 467.757 532.243> 303 100<550.757 615.243 717.757 782.243> 357 100<217.757 282.243 467.757 532.243 634.757 699.243> 410 100<300.757 365.203 384.797 449.243 717.757 782.243>
LayerCount: 2
Back
Fore
SplineSet
457 250 m 0x8010
 457 236 421 200 407 200 c 0
 393 200 357 236 357 250 c 0
 357 264 393 300 407 300 c 0
 421 300 457 264 457 250 c 0x8010
350 250 m 0x8040
 350 236 314 200 300 200 c 0
 286 200 250 236 250 250 c 0
 250 264 286 300 300 300 c 0
 314 300 350 264 350 250 c 0x8040
243 250 m 0x81
 243 236 207 200 193 200 c 0
 179 200 143 236 143 250 c 0
 143 264 179 300 193 300 c 0
 207 300 243 264 243 250 c 0x81
510 333 m 1x4008
 510 319 474 283 460 283 c 0
 446 283 410 319 410 333 c 0
 410 343 428 364 443 375 c 1
 428 386 410 407 410 417 c 1
 410 431 446 467 460 467 c 0
 474 467 510 431 510 417 c 0
 510 407 492 386 477 375 c 1
 492 364 510 343 510 333 c 1x4008
190 333 m 0x42
 190 319 154 283 140 283 c 0
 126 283 90 319 90 333 c 0
 90 347 126 383 140 383 c 0
 154 383 190 347 190 333 c 0x42
457 500 m 0x2010
 457 486 421 450 407 450 c 0
 393 450 357 486 357 500 c 0
 357 514 393 550 407 550 c 0
 421 550 457 514 457 500 c 0x2010
350 500 m 0x2040
 350 486 314 450 300 450 c 0
 286 450 250 486 250 500 c 0
 250 514 286 550 300 550 c 0
 314 550 350 514 350 500 c 0x2040
403 583 m 0x1020
 403 569 367 533 353 533 c 0
 339 533 303 569 303 583 c 0
 303 597 339 633 353 633 c 0
 367 633 403 597 403 583 c 0x1020
457 667 m 0x0810
 457 653 421 617 407 617 c 0
 393 617 357 653 357 667 c 0
 357 681 393 717 407 717 c 0
 421 717 457 681 457 667 c 0x0810
510 750 m 0x0408
 510 736 474 700 460 700 c 0
 446 700 410 736 410 750 c 0
 410 764 446 800 460 800 c 0
 474 800 510 764 510 750 c 0x0408
403 750 m 0x0420
 403 736 367 700 353 700 c 0
 339 700 303 736 303 750 c 0
 303 764 339 800 353 800 c 0
 367 800 403 764 403 750 c 0x0420
297 750 m 0x0480
 297 736 261 700 247 700 c 0
 233 700 197 736 197 750 c 0
 197 764 233 800 247 800 c 0
 261 800 297 764 297 750 c 0x0480
190 750 m 0x06
 190 736 154 700 140 700 c 0
 126 700 90 736 90 750 c 0
 90 764 126 800 140 800 c 0
 154 800 190 764 190 750 c 0x06
EndSplineSet
EndChar

StartChar: seven
Encoding: 55 55 48
Width: 600
VWidth: 0
UnlinkRmOvrlpSave: 1
Flags: W
HStem: 200 100<160.757 225.243> 283 100<214.757 279.243> 367 100<267.757 332.243> 450 100<320.757 385.243> 533 100<374.757 439.243> 700 100<107.757 172.243 214.757 279.243 320.757 385.243>
VStem: 90 100<717.757 782.243> 143 100<217.757 282.243> 197 100<300.757 365.243 717.757 782.243> 250 100<384.757 449.243> 303 100<467.757 532.243 717.757 782.243> 357 100<550.757 615.243> 410 100<634.757 697.938 718.219 782.243>
LayerCount: 2
Back
Fore
SplineSet
243 250 m 0x85
 243 236 207 200 193 200 c 0
 179 200 143 236 143 250 c 0
 143 264 179 300 193 300 c 0
 207 300 243 264 243 250 c 0x85
297 333 m 0x4480
 297 319 261 283 247 283 c 0
 233 283 197 319 197 333 c 0
 197 347 233 383 247 383 c 0
 261 383 297 347 297 333 c 0x4480
350 417 m 0x2440
 350 403 314 367 300 367 c 0
 286 367 250 403 250 417 c 0
 250 431 286 467 300 467 c 0
 314 467 350 431 350 417 c 0x2440
403 500 m 0x1420
 403 486 367 450 353 450 c 0
 339 450 303 486 303 500 c 0
 303 514 339 550 353 550 c 0
 367 550 403 514 403 500 c 0x1420
457 583 m 0x0c10
 457 569 421 533 407 533 c 0
 393 533 357 569 357 583 c 0
 357 597 393 633 407 633 c 0
 421 633 457 597 457 583 c 0x0c10
510 667 m 0x0408
 510 653 474 617 460 617 c 0
 446 617 410 653 410 667 c 0
 410 677 428 696 443 708 c 1
 428 720 410 740 410 750 c 0
 410 764 446 800 460 800 c 0
 474 800 510 764 510 750 c 0
 510 740 492 720 477 708 c 1
 492 696 510 677 510 667 c 0x0408
403 750 m 0x0420
 403 736 367 700 353 700 c 0
 339 700 303 736 303 750 c 0
 303 764 339 800 353 800 c 0
 367 800 403 764 403 750 c 0x0420
297 750 m 0x0480
 297 736 261 700 247 700 c 0
 233 700 197 736 197 750 c 0
 197 764 233 800 247 800 c 0
 261 800 297 764 297 750 c 0x0480
190 750 m 0x06
 190 736 154 700 140 700 c 0
 126 700 90 736 90 750 c 0
 90 764 126 800 140 800 c 0
 154 800 190 764 190 750 c 0x06
EndSplineSet
EndChar

StartChar: semicolon
Encoding: 59 59 49
Width: 600
VWidth: 0
UnlinkRmOvrlpSave: 1
Flags: W
HStem: 200 100<107.757 172.243> 283 100<160.757 225.243> 617 100<107.757 172.243 213.757 278.243> 700 100<160.757 225.243>
VStem: 90 100<217.757 282.243 384.757 447.938 468.219 532.243 634.757 699.243> 143 100<300.757 365.243 717.757 782.243> 196 100<384.757 447.938 468.219 532.243 634.757 699.243>
LayerCount: 2
Back
Fore
SplineSet
190 250 m 0x88
 190 236 154 200 140 200 c 0
 126 200 90 236 90 250 c 0
 90 264 126 300 140 300 c 0
 154 300 190 264 190 250 c 0x88
243 333 m 0x44
 243 319 207 283 193 283 c 0
 179 283 143 319 143 333 c 0
 143 347 179 383 193 383 c 0
 207 383 243 347 243 333 c 0x44
296 417 m 0x02
 296 403 260 367 246 367 c 0
 232 367 196 403 196 417 c 0
 196 427 214 446 229 458 c 1
 214 470 196 490 196 500 c 0
 196 514 232 550 246 550 c 0
 260 550 296 514 296 500 c 0
 296 490 278 470 263 458 c 1
 278 446 296 427 296 417 c 0x02
190 417 m 0x08
 190 403 154 367 140 367 c 0
 126 367 90 403 90 417 c 0
 90 427 108 446 123 458 c 1
 108 470 90 490 90 500 c 0
 90 514 126 550 140 550 c 0
 154 550 190 514 190 500 c 0
 190 490 172 470 157 458 c 1
 172 446 190 427 190 417 c 0x08
296 667 m 0x22
 296 653 260 617 246 617 c 0
 232 617 196 653 196 667 c 0
 196 681 232 717 246 717 c 0
 260 717 296 681 296 667 c 0x22
190 667 m 0x28
 190 653 154 617 140 617 c 0
 126 617 90 653 90 667 c 0
 90 681 126 717 140 717 c 0
 154 717 190 681 190 667 c 0x28
243 750 m 0x14
 243 736 207 700 193 700 c 0
 179 700 143 736 143 750 c 0
 143 764 179 800 193 800 c 0
 207 800 243 764 243 750 c 0x14
EndSplineSet
EndChar

StartChar: question
Encoding: 63 63 50
Width: 600
VWidth: 0
UnlinkRmOvrlpSave: 1
Flags: W
HStem: 200 100<267.757 332.243> 533 100<374.757 439.243> 617 100<107.757 172.243 427.757 492.243> 700 100<160.757 225.243 267.757 332.243 374.757 439.243>
VStem: 90 100<634.757 699.243> 143 100<717.757 782.243> 250 100<217.757 282.243 384.757 447.938 468.219 531.781 552.062 615.243 717.757 782.243> 357 100<550.757 615.243 717.757 782.243> 410 100<634.757 699.243>
LayerCount: 2
Back
Fore
SplineSet
350 250 m 0x82
 350 236 314 200 300 200 c 0
 286 200 250 236 250 250 c 0
 250 264 286 300 300 300 c 0
 314 300 350 264 350 250 c 0x82
350 417 m 0
 350 403 314 367 300 367 c 0
 286 367 250 403 250 417 c 0
 250 427 268 446 283 458 c 1
 268 470 250 490 250 500 c 0
 250 510 268 530 283 542 c 1
 268 554 250 573 250 583 c 0
 250 597 286 633 300 633 c 0xc2
 314 633 350 597 350 583 c 0
 350 573 332 554 317 542 c 1
 332 530 350 510 350 500 c 0
 350 490 332 470 317 458 c 1
 332 446 350 427 350 417 c 0
457 583 m 0xc3
 457 569 421 533 407 533 c 0
 393 533 357 569 357 583 c 0
 357 597 393 633 407 633 c 0
 421 633 457 597 457 583 c 0xc3
510 667 m 0xa280
 510 653 474 617 460 617 c 0
 446 617 410 653 410 667 c 0
 410 681 446 717 460 717 c 0
 474 717 510 681 510 667 c 0xa280
190 667 m 0xaa
 190 653 154 617 140 617 c 0
 126 617 90 653 90 667 c 0
 90 681 126 717 140 717 c 0
 154 717 190 681 190 667 c 0xaa
457 750 m 0x93
 457 736 421 700 407 700 c 0
 393 700 357 736 357 750 c 0
 357 764 393 800 407 800 c 0
 421 800 457 764 457 750 c 0x93
350 750 m 0
 350 736 314 700 300 700 c 0
 286 700 250 736 250 750 c 0
 250 764 286 800 300 800 c 0
 314 800 350 764 350 750 c 0
243 750 m 0x96
 243 736 207 700 193 700 c 0
 179 700 143 736 143 750 c 0
 143 764 179 800 193 800 c 0
 207 800 243 764 243 750 c 0x96
EndSplineSet
EndChar

StartChar: Agrave
Encoding: 192 192 51
Width: 600
VWidth: 0
UnlinkRmOvrlpSave: 1
Flags: W
HStem: 200 21G<133 147 453 467> 200 21G<133 147 453 467> 283 100<214.757 279.243 320.757 385.243> 367 100<160.757 225.243 374.757 439.243> 450 100<214.757 279.243 320.757 385.243> 533 100<267.757 332.243> 617 100<320.757 385.243> 700 100<267.757 332.243>
VStem: 90 100<217.757 281.781 302.062 365.243> 143 100<384.757 449.243> 197 100<300.757 365.243 467.757 532.243> 250 100<550.757 615.243 717.757 782.243> 303 100<300.757 365.243 467.757 532.243 634.757 699.243> 357 100<384.757 449.243> 410 100<217.757 281.781 302.062 365.243>
LayerCount: 2
Back
Fore
SplineSet
510 250 m 0xa002
 510 236 474 200 460 200 c 0
 446 200 410 236 410 250 c 0
 410 260 428 280 443 292 c 1
 428 304 410 323 410 333 c 0
 410 347 446 383 460 383 c 0
 474 383 510 347 510 333 c 0
 510 323 492 304 477 292 c 1
 492 280 510 260 510 250 c 0xa002
190 250 m 0xa080
 190 236 154 200 140 200 c 0
 126 200 90 236 90 250 c 0
 90 260 108 280 123 292 c 1
 108 304 90 323 90 333 c 0
 90 347 126 383 140 383 c 0
 154 383 190 347 190 333 c 0
 190 323 172 304 157 292 c 1
 172 280 190 260 190 250 c 0xa080
403 333 m 0x2008
 403 319 367 283 353 283 c 0
 339 283 303 319 303 333 c 0
 303 347 339 383 353 383 c 0
 367 383 403 347 403 333 c 0x2008
297 333 m 0x2020
 297 319 261 283 247 283 c 0
 233 283 197 319 197 333 c 0
 197 347 233 383 247 383 c 0
 261 383 297 347 297 333 c 0x2020
457 417 m 0x1004
 457 403 421 367 407 367 c 0
 393 367 357 403 357 417 c 0
 357 431 393 467 407 467 c 0
 421 467 457 431 457 417 c 0x1004
243 417 m 0x1040
 243 403 207 367 193 367 c 0
 179 367 143 403 143 417 c 0
 143 431 179 467 193 467 c 0
 207 467 243 431 243 417 c 0x1040
403 500 m 0x0808
 403 486 367 450 353 450 c 0
 339 450 303 486 303 500 c 0
 303 514 339 550 353 550 c 0
 367 550 403 514 403 500 c 0x0808
297 500 m 0x0820
 297 486 261 450 247 450 c 0
 233 450 197 486 197 500 c 0
 197 514 233 550 247 550 c 0
 261 550 297 514 297 500 c 0x0820
350 583 m 0x0410
 350 569 314 533 300 533 c 0
 286 533 250 569 250 583 c 0
 250 597 286 633 300 633 c 0
 314 633 350 597 350 583 c 0x0410
403 667 m 0x0208
 403 653 367 617 353 617 c 0
 339 617 303 653 303 667 c 0
 303 681 339 717 353 717 c 0
 367 717 403 681 403 667 c 0x0208
350 750 m 0x0110
 350 736 314 700 300 700 c 0
 286 700 250 736 250 750 c 0
 250 764 286 800 300 800 c 0
 314 800 350 764 350 750 c 0x0110
EndSplineSet
EndChar

StartChar: C
Encoding: 67 67 52
Width: 600
VWidth: 0
UnlinkRmOvrlpSave: 1
Flags: W
HStem: 200 100<160.757 225.243 267.757 332.243 374.757 439.243> 283 100<427.757 492.243> 617 100<427.757 492.243> 700 100<160.757 225.243 267.757 332.243 374.757 439.243>
VStem: 90 100<300.757 365.203 384.797 447.938 468.219 531.781 552.062 615.203 634.797 699.243> 143 100<217.757 282.243 717.757 782.243> 250 100<217.757 282.243 717.757 782.243> 357 100<217.757 282.243 717.757 782.243> 410 100<300.757 365.243 634.757 699.243>
LayerCount: 2
Back
Fore
SplineSet
457 250 m 0x83
 457 236 421 200 407 200 c 0
 393 200 357 236 357 250 c 0
 357 264 393 300 407 300 c 0
 421 300 457 264 457 250 c 0x83
350 250 m 0
 350 236 314 200 300 200 c 0
 286 200 250 236 250 250 c 0
 250 264 286 300 300 300 c 0
 314 300 350 264 350 250 c 0
243 250 m 0x86
 243 236 207 200 193 200 c 0
 179 200 143 236 143 250 c 0
 143 264 179 300 193 300 c 0
 207 300 243 264 243 250 c 0x86
510 333 m 0x4280
 510 319 474 283 460 283 c 0
 446 283 410 319 410 333 c 0
 410 347 446 383 460 383 c 0
 474 383 510 347 510 333 c 0x4280
190 333 m 0x6a
 190 319 154 283 140 283 c 0
 126 283 90 319 90 333 c 0
 90 343 108 364 123 375 c 1
 108 386 90 407 90 417 c 0
 90 427 108 446 123 458 c 1
 108 470 90 490 90 500 c 0
 90 510 108 530 123 542 c 1
 108 554 90 573 90 583 c 0
 90 593 108 614 123 625 c 1
 108 636 90 657 90 667 c 0
 90 681 126 717 140 717 c 0
 154 717 190 681 190 667 c 0
 190 657 172 636 157 625 c 1
 172 614 190 593 190 583 c 0
 190 573 172 554 157 542 c 1
 172 530 190 510 190 500 c 0
 190 490 172 470 157 458 c 1
 172 446 190 427 190 417 c 0
 190 407 172 386 157 375 c 1
 172 364 190 343 190 333 c 0x6a
510 667 m 0x2280
 510 653 474 617 460 617 c 0
 446 617 410 653 410 667 c 0
 410 681 446 717 460 717 c 0
 474 717 510 681 510 667 c 0x2280
457 750 m 0x13
 457 736 421 700 407 700 c 0
 393 700 357 736 357 750 c 0
 357 764 393 800 407 800 c 0
 421 800 457 764 457 750 c 0x13
350 750 m 0
 350 736 314 700 300 700 c 0
 286 700 250 736 250 750 c 0
 250 764 286 800 300 800 c 0
 314 800 350 764 350 750 c 0
243 750 m 0x16
 243 736 207 700 193 700 c 0
 179 700 143 736 143 750 c 0
 143 764 179 800 193 800 c 0
 207 800 243 764 243 750 c 0x16
EndSplineSet
EndChar

StartChar: Adieresis
Encoding: 196 196 53
Width: 600
VWidth: 0
UnlinkRmOvrlpSave: 1
Flags: W
HStem: 200 21G<133 147 453 467> 200 21G<133 147 453 467> 367 100<214.757 279.243 320.757 385.243> 450 100<160.757 225.243 374.757 439.243> 533 100<214.757 279.243 320.757 385.243> 617 100<267.757 332.243> 700 100<160.757 225.243 374.757 439.243>
VStem: 90 100<217.757 281.781 302.062 365.203 384.797 449.243> 143 100<467.757 532.243 717.757 782.243> 197 100<384.757 449.243 550.757 615.243> 250 100<634.757 699.243> 303 100<384.757 449.243 550.757 615.243> 357 100<467.757 532.243 717.757 782.243> 410 100<217.757 281.781 302.062 365.203 384.797 449.243>
LayerCount: 2
Back
Fore
SplineSet
510 250 m 0xa004
 510 236 474 200 460 200 c 0
 446 200 410 236 410 250 c 0
 410 260 428 280 443 292 c 1
 428 304 410 323 410 333 c 0
 410 343 428 364 443 375 c 1
 428 386 410 407 410 417 c 1
 410 431 446 467 460 467 c 0
 474 467 510 431 510 417 c 0
 510 407 492 386 477 375 c 1
 492 364 510 343 510 333 c 1
 510 323 492 304 477 292 c 1
 492 280 510 260 510 250 c 0xa004
190 250 m 0xa1
 190 236 154 200 140 200 c 0
 126 200 90 236 90 250 c 0
 90 260 108 280 123 292 c 1
 108 304 90 323 90 333 c 0
 90 343 108 364 123 375 c 1
 108 386 90 407 90 417 c 0
 90 431 126 467 140 467 c 0
 154 467 190 431 190 417 c 0
 190 407 172 386 157 375 c 1
 172 364 190 343 190 333 c 0
 190 323 172 304 157 292 c 1
 172 280 190 260 190 250 c 0xa1
403 417 m 0x2010
 403 403 367 367 353 367 c 0
 339 367 303 403 303 417 c 0
 303 431 339 467 353 467 c 0
 367 467 403 431 403 417 c 0x2010
297 417 m 0x2040
 297 403 261 367 247 367 c 0
 233 367 197 403 197 417 c 0
 197 431 233 467 247 467 c 0
 261 467 297 431 297 417 c 0x2040
457 500 m 0x1008
 457 486 421 450 407 450 c 0
 393 450 357 486 357 500 c 0
 357 514 393 550 407 550 c 0
 421 550 457 514 457 500 c 0x1008
243 500 m 0x1080
 243 486 207 450 193 450 c 0
 179 450 143 486 143 500 c 0
 143 514 179 550 193 550 c 0
 207 550 243 514 243 500 c 0x1080
403 583 m 0x0810
 403 569 367 533 353 533 c 0
 339 533 303 569 303 583 c 0
 303 597 339 633 353 633 c 0
 367 633 403 597 403 583 c 0x0810
297 583 m 0x0840
 297 569 261 533 247 533 c 0
 233 533 197 569 197 583 c 0
 197 597 233 633 247 633 c 0
 261 633 297 597 297 583 c 0x0840
350 667 m 0x0420
 350 653 314 617 300 617 c 0
 286 617 250 653 250 667 c 0
 250 681 286 717 300 717 c 0
 314 717 350 681 350 667 c 0x0420
457 750 m 0x0208
 457 736 421 700 407 700 c 0
 393 700 357 736 357 750 c 0
 357 764 393 800 407 800 c 0
 421 800 457 764 457 750 c 0x0208
243 750 m 0x0280
 243 736 207 700 193 700 c 0
 179 700 143 736 143 750 c 0
 143 764 179 800 193 800 c 0
 207 800 243 764 243 750 c 0x0280
EndSplineSet
EndChar

StartChar: G
Encoding: 71 71 54
Width: 600
VWidth: 0
UnlinkRmOvrlpSave: 1
Flags: W
HStem: 200 100<160.757 225.243 267.757 332.243 374.757 439.243> 450 100<320.757 385.243> 617 100<427.757 492.243> 700 100<160.757 225.243 267.757 332.243 374.757 439.243>
VStem: 90 100<300.757 365.203 384.797 447.938 468.219 531.781 552.062 615.203 634.797 699.243> 143 100<217.757 282.243 717.757 782.243> 250 100<217.757 282.243 717.757 782.243> 303 100<467.757 532.243> 357 100<217.757 282.243 717.757 782.243> 410 100<300.757 365.203 384.797 447.938 468.219 532.243 634.757 699.243>
LayerCount: 2
Back
Fore
SplineSet
457 250 m 0xc080
 457 236 421 200 407 200 c 0
 393 200 357 236 357 250 c 0
 357 264 393 300 407 300 c 0
 421 300 457 264 457 250 c 0xc080
350 250 m 0xc2
 350 236 314 200 300 200 c 0
 286 200 250 236 250 250 c 0
 250 264 286 300 300 300 c 0
 314 300 350 264 350 250 c 0xc2
243 250 m 0xc4
 243 236 207 200 193 200 c 0
 179 200 143 236 143 250 c 0
 143 264 179 300 193 300 c 0
 207 300 243 264 243 250 c 0xc4
510 333 m 1xc040
 510 319 474 283 460 283 c 0
 446 283 410 319 410 333 c 0
 410 343 428 364 443 375 c 1
 428 386 410 407 410 417 c 1
 410 427 428 446 443 458 c 1
 428 470 410 490 410 500 c 0
 410 514 446 550 460 550 c 0
 474 550 510 514 510 500 c 0
 510 490 492 470 477 458 c 1
 492 446 510 427 510 417 c 0
 510 407 492 386 477 375 c 1
 492 364 510 343 510 333 c 1xc040
190 333 m 0xe8
 190 319 154 283 140 283 c 0
 126 283 90 319 90 333 c 0
 90 343 108 364 123 375 c 1
 108 386 90 407 90 417 c 0
 90 427 108 446 123 458 c 1
 108 470 90 490 90 500 c 0
 90 510 108 530 123 542 c 1
 108 554 90 573 90 583 c 0
 90 593 108 614 123 625 c 1
 108 636 90 657 90 667 c 0
 90 681 126 717 140 717 c 0
 154 717 190 681 190 667 c 0
 190 657 172 636 157 625 c 1
 172 614 190 593 190 583 c 0
 190 573 172 554 157 542 c 1
 172 530 190 510 190 500 c 0
 190 490 172 470 157 458 c 1
 172 446 190 427 190 417 c 0
 190 407 172 386 157 375 c 1
 172 364 190 343 190 333 c 0xe8
403 500 m 0xc1
 403 486 367 450 353 450 c 0
 339 450 303 486 303 500 c 0
 303 514 339 550 353 550 c 0
 367 550 403 514 403 500 c 0xc1
510 667 m 0xe040
 510 653 474 617 460 617 c 0
 446 617 410 653 410 667 c 0
 410 681 446 717 460 717 c 0
 474 717 510 681 510 667 c 0xe040
457 750 m 0xd080
 457 736 421 700 407 700 c 0
 393 700 357 736 357 750 c 0
 357 764 393 800 407 800 c 0
 421 800 457 764 457 750 c 0xd080
350 750 m 0xd2
 350 736 314 700 300 700 c 0
 286 700 250 736 250 750 c 0
 250 764 286 800 300 800 c 0
 314 800 350 764 350 750 c 0xd2
243 750 m 0xd4
 243 736 207 700 193 700 c 0
 179 700 143 736 143 750 c 0
 143 764 179 800 193 800 c 0
 207 800 243 764 243 750 c 0xd4
EndSplineSet
EndChar

StartChar: Egrave
Encoding: 200 200 55
Width: 600
VWidth: 0
UnlinkRmOvrlpSave: 1
Flags: W
HStem: 200 100<214.757 279.243 320.757 385.243 427.757 492.243> 367 100<214.757 279.243 320.757 385.243> 533 100<214.757 279.243 427.757 492.243> 700 100<267.757 332.243>
VStem: 90 100<217.757 281.781 302.062 365.203 384.797 447.938 468.219 531.781 552.062 615.243> 197 100<217.757 282.243 384.757 449.243 550.757 615.243> 250 100<717.757 782.243> 303 100<217.757 282.243 384.757 449.243 550.757 615.203 634.797 699.243> 410 100<217.757 282.243 550.757 615.243>
LayerCount: 2
Back
Fore
SplineSet
510 250 m 0xf880
 510 236 474 200 460 200 c 0
 446 200 410 236 410 250 c 0
 410 264 446 300 460 300 c 0
 474 300 510 264 510 250 c 0xf880
403 250 m 0xf980
 403 236 367 200 353 200 c 0
 339 200 303 236 303 250 c 0
 303 264 339 300 353 300 c 0
 367 300 403 264 403 250 c 0xf980
297 250 m 0xfc80
 297 236 261 200 247 200 c 0
 233 200 197 236 197 250 c 0
 197 264 233 300 247 300 c 0
 261 300 297 264 297 250 c 0xfc80
190 250 m 0
 190 236 154 200 140 200 c 0
 126 200 90 236 90 250 c 0
 90 260 108 280 123 292 c 1
 108 304 90 323 90 333 c 0
 90 343 108 364 123 375 c 1
 108 386 90 407 90 417 c 0
 90 427 108 446 123 458 c 1
 108 470 90 490 90 500 c 0
 90 510 108 530 123 542 c 1
 108 554 90 573 90 583 c 0
 90 597 126 633 140 633 c 0
 154 633 190 597 190 583 c 0
 190 573 172 554 157 542 c 1
 172 530 190 510 190 500 c 0
 190 490 172 470 157 458 c 1
 172 446 190 427 190 417 c 0
 190 407 172 386 157 375 c 1
 172 364 190 343 190 333 c 0
 190 323 172 304 157 292 c 1
 172 280 190 260 190 250 c 0
403 417 m 0xf980
 403 403 367 367 353 367 c 0
 339 367 303 403 303 417 c 0
 303 431 339 467 353 467 c 0
 367 467 403 431 403 417 c 0xf980
297 417 m 0xfc80
 297 403 261 367 247 367 c 0
 233 367 197 403 197 417 c 0
 197 431 233 467 247 467 c 0
 261 467 297 431 297 417 c 0xfc80
510 583 m 0
 510 569 474 533 460 533 c 0
 446 533 410 569 410 583 c 0
 410 597 446 633 460 633 c 0
 474 633 510 597 510 583 c 0
403 583 m 0xf980
 403 569 367 533 353 533 c 0
 339 533 303 569 303 583 c 0
 303 593 321 614 336 625 c 1
 321 636 303 657 303 667 c 0
 303 681 339 717 353 717 c 0
 367 717 403 681 403 667 c 0
 403 657 385 636 370 625 c 1
 385 614 403 593 403 583 c 0xf980
297 583 m 0xfc80
 297 569 261 533 247 533 c 0
 233 533 197 569 197 583 c 0
 197 597 233 633 247 633 c 0
 261 633 297 597 297 583 c 0xfc80
350 750 m 0xfa80
 350 736 314 700 300 700 c 0
 286 700 250 736 250 750 c 0
 250 764 286 800 300 800 c 0
 314 800 350 764 350 750 c 0xfa80
EndSplineSet
EndChar

StartChar: K
Encoding: 75 75 56
Width: 600
VWidth: 0
UnlinkRmOvrlpSave: 1
Flags: W
HStem: 200 100<427.757 492.243> 200 21G<133 147> 283 100<374.757 439.243> 367 100<320.757 385.243> 450 100<267.757 332.243> 533 100<214.757 279.243> 617 100<320.757 385.243> 700 100<427.757 492.243>
VStem: 90 100<217.757 281.781 302.062 365.203 384.797 447.938 468.219 531.781 552.062 615.203 634.797 697.938 718.219 782.243> 197 100<550.757 615.243> 250 100<467.757 532.243> 303 100<384.757 449.243 634.757 699.243> 357 100<300.757 365.243> 410 100<217.757 282.243 717.757 782.243>
LayerCount: 2
Back
Fore
SplineSet
510 250 m 0x8084
 510 236 474 200 460 200 c 0
 446 200 410 236 410 250 c 0
 410 264 446 300 460 300 c 0
 474 300 510 264 510 250 c 0x8084
190 250 m 0
 190 236 154 200 140 200 c 0
 126 200 90 236 90 250 c 0
 90 260 108 280 123 292 c 1
 108 304 90 323 90 333 c 0
 90 343 108 364 123 375 c 1
 108 386 90 407 90 417 c 0
 90 427 108 446 123 458 c 1
 108 470 90 490 90 500 c 0
 90 510 108 530 123 542 c 1
 108 554 90 573 90 583 c 0
 90 593 108 614 123 625 c 1
 108 636 90 657 90 667 c 0
 90 677 108 696 123 708 c 1
 108 720 90 740 90 750 c 0
 90 764 126 800 140 800 c 0x4180
 154 800 190 764 190 750 c 0
 190 740 172 720 157 708 c 1
 172 696 190 677 190 667 c 0
 190 657 172 636 157 625 c 1
 172 614 190 593 190 583 c 0
 190 573 172 554 157 542 c 1
 172 530 190 510 190 500 c 0
 190 490 172 470 157 458 c 1
 172 446 190 427 190 417 c 0
 190 407 172 386 157 375 c 1
 172 364 190 343 190 333 c 0
 190 323 172 304 157 292 c 1
 172 280 190 260 190 250 c 0
457 333 m 0x2088
 457 319 421 283 407 283 c 0
 393 283 357 319 357 333 c 0
 357 347 393 383 407 383 c 0
 421 383 457 347 457 333 c 0x2088
403 417 m 0x1090
 403 403 367 367 353 367 c 0
 339 367 303 403 303 417 c 0
 303 431 339 467 353 467 c 0
 367 467 403 431 403 417 c 0x1090
350 500 m 0x08a0
 350 486 314 450 300 450 c 0
 286 450 250 486 250 500 c 0
 250 514 286 550 300 550 c 0
 314 550 350 514 350 500 c 0x08a0
297 583 m 0x04c0
 297 569 261 533 247 533 c 0
 233 533 197 569 197 583 c 0
 197 597 233 633 247 633 c 0
 261 633 297 597 297 583 c 0x04c0
403 667 m 0x0290
 403 653 367 617 353 617 c 0
 339 617 303 653 303 667 c 0
 303 681 339 717 353 717 c 0
 367 717 403 681 403 667 c 0x0290
510 750 m 0x0184
 510 736 474 700 460 700 c 0
 446 700 410 736 410 750 c 0
 410 764 446 800 460 800 c 0
 474 800 510 764 510 750 c 0x0184
EndSplineSet
EndChar

StartChar: O
Encoding: 79 79 57
Width: 600
VWidth: 0
UnlinkRmOvrlpSave: 1
Flags: W
HStem: 200 100<160.757 225.243 267.757 332.243 374.757 439.243> 700 100<160.757 225.243 267.757 332.243 374.757 439.243>
VStem: 90 100<300.757 365.203 384.797 447.938 468.219 531.781 552.062 615.203 634.797 699.243> 143 100<217.757 282.243 717.757 782.243> 250 100<217.757 282.243 717.757 782.243> 357 100<217.757 282.243 717.757 782.243> 410 100<300.757 365.203 384.797 447.938 468.219 531.781 552.062 615.203 634.797 699.243>
LayerCount: 2
Back
Fore
SplineSet
457 250 m 0xcc
 457 236 421 200 407 200 c 0
 393 200 357 236 357 250 c 0
 357 264 393 300 407 300 c 0
 421 300 457 264 457 250 c 0xcc
350 250 m 0
 350 236 314 200 300 200 c 0
 286 200 250 236 250 250 c 0
 250 264 286 300 300 300 c 0
 314 300 350 264 350 250 c 0
243 250 m 0xd8
 243 236 207 200 193 200 c 0
 179 200 143 236 143 250 c 0
 143 264 179 300 193 300 c 0
 207 300 243 264 243 250 c 0xd8
510 333 m 1xca
 510 319 474 283 460 283 c 0
 446 283 410 319 410 333 c 0
 410 343 428 364 443 375 c 1
 428 386 410 407 410 417 c 1
 410 427 428 446 443 458 c 1
 428 470 410 490 410 500 c 0
 410 510 428 530 443 542 c 1
 428 554 410 573 410 583 c 0
 410 593 428 614 443 625 c 1
 428 636 410 657 410 667 c 0
 410 681 446 717 460 717 c 0
 474 717 510 681 510 667 c 0
 510 657 492 636 477 625 c 1
 492 614 510 593 510 583 c 0
 510 573 492 554 477 542 c 1
 492 530 510 510 510 500 c 0
 510 490 492 470 477 458 c 1
 492 446 510 427 510 417 c 0
 510 407 492 386 477 375 c 1
 492 364 510 343 510 333 c 1xca
190 333 m 0xe8
 190 319 154 283 140 283 c 0
 126 283 90 319 90 333 c 0
 90 343 108 364 123 375 c 1
 108 386 90 407 90 417 c 0
 90 427 108 446 123 458 c 1
 108 470 90 490 90 500 c 0
 90 510 108 530 123 542 c 1
 108 554 90 573 90 583 c 0
 90 593 108 614 123 625 c 1
 108 636 90 657 90 667 c 0
 90 681 126 717 140 717 c 0
 154 717 190 681 190 667 c 0
 190 657 172 636 157 625 c 1
 172 614 190 593 190 583 c 0
 190 573 172 554 157 542 c 1
 172 530 190 510 190 500 c 0
 190 490 172 470 157 458 c 1
 172 446 190 427 190 417 c 0
 190 407 172 386 157 375 c 1
 172 364 190 343 190 333 c 0xe8
457 750 m 0xcc
 457 736 421 700 407 700 c 0
 393 700 357 736 357 750 c 0
 357 764 393 800 407 800 c 0
 421 800 457 764 457 750 c 0xcc
350 750 m 0
 350 736 314 700 300 700 c 0
 286 700 250 736 250 750 c 0
 250 764 286 800 300 800 c 0
 314 800 350 764 350 750 c 0
243 750 m 0xd8
 243 736 207 700 193 700 c 0
 179 700 143 736 143 750 c 0
 143 764 179 800 193 800 c 0
 207 800 243 764 243 750 c 0xd8
EndSplineSet
EndChar

StartChar: S
Encoding: 83 83 58
Width: 600
VWidth: 0
UnlinkRmOvrlpSave: 1
Flags: W
HStem: 200 100<160.757 225.243 267.757 332.243 374.757 439.243> 283 100<107.757 172.243> 450 100<160.757 225.243 267.757 332.243 374.757 439.243> 617 100<427.757 492.243> 700 100<160.757 225.243 267.757 332.243 374.757 439.243>
VStem: 90 100<300.757 365.243 550.757 615.203 634.797 699.243> 143 100<217.757 282.243 467.757 532.243 717.757 782.243> 250 100<217.757 282.243 467.757 532.243 717.757 782.243> 357 100<217.757 282.243 467.757 532.243 717.757 782.243> 410 100<300.757 365.203 384.797 449.243 634.757 699.243>
LayerCount: 2
Back
Fore
SplineSet
457 250 m 0xa180
 457 236 421 200 407 200 c 0
 393 200 357 236 357 250 c 0
 357 264 393 300 407 300 c 0
 421 300 457 264 457 250 c 0xa180
350 250 m 0
 350 236 314 200 300 200 c 0
 286 200 250 236 250 250 c 0
 250 264 286 300 300 300 c 0
 314 300 350 264 350 250 c 0
243 250 m 0xa3
 243 236 207 200 193 200 c 0
 179 200 143 236 143 250 c 0
 143 264 179 300 193 300 c 0
 207 300 243 264 243 250 c 0xa3
510 333 m 1x6140
 510 319 474 283 460 283 c 0
 446 283 410 319 410 333 c 0
 410 343 428 364 443 375 c 1
 428 386 410 407 410 417 c 1
 410 431 446 467 460 467 c 0
 474 467 510 431 510 417 c 0
 510 407 492 386 477 375 c 1
 492 364 510 343 510 333 c 1x6140
190 333 m 0x65
 190 319 154 283 140 283 c 0
 126 283 90 319 90 333 c 0
 90 347 126 383 140 383 c 0
 154 383 190 347 190 333 c 0x65
457 500 m 0x2180
 457 486 421 450 407 450 c 0
 393 450 357 486 357 500 c 0
 357 514 393 550 407 550 c 0
 421 550 457 514 457 500 c 0x2180
350 500 m 0
 350 486 314 450 300 450 c 0
 286 450 250 486 250 500 c 0
 250 514 286 550 300 550 c 0
 314 550 350 514 350 500 c 0
243 500 m 0x23
 243 486 207 450 193 450 c 0
 179 450 143 486 143 500 c 0
 143 514 179 550 193 550 c 0
 207 550 243 514 243 500 c 0x23
190 583 m 0x35
 190 569 154 533 140 533 c 0
 126 533 90 569 90 583 c 0
 90 593 108 614 123 625 c 1
 108 636 90 657 90 667 c 0
 90 681 126 717 140 717 c 0
 154 717 190 681 190 667 c 0
 190 657 172 636 157 625 c 1
 172 614 190 593 190 583 c 0x35
510 667 m 0x3140
 510 653 474 617 460 617 c 0
 446 617 410 653 410 667 c 0
 410 681 446 717 460 717 c 0
 474 717 510 681 510 667 c 0x3140
457 750 m 0x2980
 457 736 421 700 407 700 c 0
 393 700 357 736 357 750 c 0
 357 764 393 800 407 800 c 0
 421 800 457 764 457 750 c 0x2980
350 750 m 0
 350 736 314 700 300 700 c 0
 286 700 250 736 250 750 c 0
 250 764 286 800 300 800 c 0
 314 800 350 764 350 750 c 0
243 750 m 0x2b
 243 736 207 700 193 700 c 0
 179 700 143 736 143 750 c 0
 143 764 179 800 193 800 c 0
 207 800 243 764 243 750 c 0x2b
EndSplineSet
EndChar

StartChar: W
Encoding: 87 87 59
Width: 600
VWidth: 0
UnlinkRmOvrlpSave: 1
Flags: W
HStem: 200 100<160.757 225.243 374.757 439.243> 283 100<214.757 279.243 320.757 385.243> 780 20G<133 147 453 467>
VStem: 90 100<300.757 365.203 384.797 447.938 468.219 531.781 552.062 615.203 634.797 697.938 718.219 782.243> 143 100<217.757 282.243> 197 100<300.757 365.243> 250 100<384.757 447.938 468.219 532.243> 303 100<300.757 365.243> 357 100<217.757 282.243> 410 100<300.757 365.203 384.797 447.938 468.219 531.781 552.062 615.203 634.797 697.938 718.219 782.243>
LayerCount: 2
Back
Fore
SplineSet
457 250 m 0xa080
 457 236 421 200 407 200 c 0
 393 200 357 236 357 250 c 0
 357 264 393 300 407 300 c 0
 421 300 457 264 457 250 c 0xa080
243 250 m 0xa8
 243 236 207 200 193 200 c 0
 179 200 143 236 143 250 c 0
 143 264 179 300 193 300 c 0
 207 300 243 264 243 250 c 0xa8
510 333 m 1x6040
 510 319 474 283 460 283 c 0
 446 283 410 319 410 333 c 0
 410 343 428 364 443 375 c 1
 428 386 410 407 410 417 c 1
 410 427 428 446 443 458 c 1
 428 470 410 490 410 500 c 0
 410 510 428 530 443 542 c 1
 428 554 410 573 410 583 c 0
 410 593 428 614 443 625 c 1
 428 636 410 657 410 667 c 0
 410 677 428 696 443 708 c 1
 428 720 410 740 410 750 c 0
 410 764 446 800 460 800 c 0
 474 800 510 764 510 750 c 0
 510 740 492 720 477 708 c 1
 492 696 510 677 510 667 c 0
 510 657 492 636 477 625 c 1
 492 614 510 593 510 583 c 0
 510 573 492 554 477 542 c 1
 492 530 510 510 510 500 c 0
 510 490 492 470 477 458 c 1
 492 446 510 427 510 417 c 0
 510 407 492 386 477 375 c 1
 492 364 510 343 510 333 c 1x6040
403 333 m 0x61
 403 319 367 283 353 283 c 0
 339 283 303 319 303 333 c 0
 303 347 339 383 353 383 c 0
 367 383 403 347 403 333 c 0x61
297 333 m 0x64
 297 319 261 283 247 283 c 0
 233 283 197 319 197 333 c 0
 197 347 233 383 247 383 c 0
 261 383 297 347 297 333 c 0x64
190 333 m 0x70
 190 319 154 283 140 283 c 0
 126 283 90 319 90 333 c 0
 90 343 108 364 123 375 c 1
 108 386 90 407 90 417 c 0
 90 427 108 446 123 458 c 1
 108 470 90 490 90 500 c 0
 90 510 108 530 123 542 c 1
 108 554 90 573 90 583 c 0
 90 593 108 614 123 625 c 1
 108 636 90 657 90 667 c 0
 90 677 108 696 123 708 c 1
 108 720 90 740 90 750 c 0
 90 764 126 800 140 800 c 0
 154 800 190 764 190 750 c 0
 190 740 172 720 157 708 c 1
 172 696 190 677 190 667 c 0
 190 657 172 636 157 625 c 1
 172 614 190 593 190 583 c 0
 190 573 172 554 157 542 c 1
 172 530 190 510 190 500 c 0
 190 490 172 470 157 458 c 1
 172 446 190 427 190 417 c 0
 190 407 172 386 157 375 c 1
 172 364 190 343 190 333 c 0x70
350 417 m 0x22
 350 403 314 367 300 367 c 0
 286 367 250 403 250 417 c 0
 250 427 268 446 283 458 c 1
 268 470 250 490 250 500 c 0
 250 514 286 550 300 550 c 0
 314 550 350 514 350 500 c 0
 350 490 332 470 317 458 c 1
 332 446 350 427 350 417 c 0x22
EndSplineSet
EndChar

StartChar: Oslash
Encoding: 216 216 60
Width: 600
VWidth: 0
UnlinkRmOvrlpSave: 1
Flags: W
HStem: 200 100<214.757 279.243 320.757 385.243> 283 100<160.757 225.243 374.757 439.243> 367 100<214.757 279.243> 450 100<267.757 332.243> 533 100<320.757 385.243> 617 100<160.757 225.243 374.757 439.243> 700 100<214.757 279.243 320.757 385.243>
VStem: 90 100<384.757 447.938 468.219 531.781 552.062 615.243> 143 100<300.757 365.243 634.757 699.243> 197 100<217.757 282.243 384.757 449.243 717.757 782.243> 250 100<467.757 532.243> 303 100<217.757 282.243 550.757 615.243 717.757 782.243> 357 100<300.757 365.243 634.757 699.243> 410 100<384.757 447.938 468.219 531.781 552.062 615.243>
LayerCount: 2
Back
Fore
SplineSet
403 250 m 0x8010
 403 236 367 200 353 200 c 0
 339 200 303 236 303 250 c 0
 303 264 339 300 353 300 c 0
 367 300 403 264 403 250 c 0x8010
297 250 m 0x8040
 297 236 261 200 247 200 c 0
 233 200 197 236 197 250 c 0
 197 264 233 300 247 300 c 0
 261 300 297 264 297 250 c 0x8040
457 333 m 0x4008
 457 319 421 283 407 283 c 0
 393 283 357 319 357 333 c 0
 357 347 393 383 407 383 c 0
 421 383 457 347 457 333 c 0x4008
243 333 m 0x4080
 243 319 207 283 193 283 c 0
 179 283 143 319 143 333 c 0
 143 347 179 383 193 383 c 0
 207 383 243 347 243 333 c 0x4080
510 417 m 0x2804
 510 403 474 367 460 367 c 0
 446 367 410 403 410 417 c 0
 410 427 428 446 443 458 c 1
 428 470 410 490 410 500 c 0
 410 510 428 530 443 542 c 1
 428 554 410 573 410 583 c 0
 410 597 446 633 460 633 c 0
 474 633 510 597 510 583 c 0
 510 573 492 554 477 542 c 1
 492 530 510 510 510 500 c 0
 510 490 492 470 477 458 c 1
 492 446 510 427 510 417 c 0x2804
297 417 m 0x2040
 297 403 261 367 247 367 c 0
 233 367 197 403 197 417 c 0
 197 431 233 467 247 467 c 0
 261 467 297 431 297 417 c 0x2040
190 417 m 0x29
 190 403 154 367 140 367 c 0
 126 367 90 403 90 417 c 0
 90 427 108 446 123 458 c 1
 108 470 90 490 90 500 c 0
 90 510 108 530 123 542 c 1
 108 554 90 573 90 583 c 0
 90 597 126 633 140 633 c 0
 154 633 190 597 190 583 c 0
 190 573 172 554 157 542 c 1
 172 530 190 510 190 500 c 0
 190 490 172 470 157 458 c 1
 172 446 190 427 190 417 c 0x29
350 500 m 0x1020
 350 486 314 450 300 450 c 0
 286 450 250 486 250 500 c 0
 250 514 286 550 300 550 c 0
 314 550 350 514 350 500 c 0x1020
403 583 m 0x0810
 403 569 367 533 353 533 c 0
 339 533 303 569 303 583 c 0
 303 597 339 633 353 633 c 0
 367 633 403 597 403 583 c 0x0810
457 667 m 0x0408
 457 653 421 617 407 617 c 0
 393 617 357 653 357 667 c 0
 357 681 393 717 407 717 c 0
 421 717 457 681 457 667 c 0x0408
243 667 m 0x0480
 243 653 207 617 193 617 c 0
 179 617 143 653 143 667 c 0
 143 681 179 717 193 717 c 0
 207 717 243 681 243 667 c 0x0480
403 750 m 0x0210
 403 736 367 700 353 700 c 0
 339 700 303 736 303 750 c 0
 303 764 339 800 353 800 c 0
 367 800 403 764 403 750 c 0x0210
297 750 m 0x0240
 297 736 261 700 247 700 c 0
 233 700 197 736 197 750 c 0
 197 764 233 800 247 800 c 0
 261 800 297 764 297 750 c 0x0240
EndSplineSet
EndChar

StartChar: bracketleft
Encoding: 91 91 61
Width: 600
VWidth: 0
UnlinkRmOvrlpSave: 1
Flags: W
HStem: 200 100<214.757 279.243 321.757 386.243> 700 100<214.757 279.243 321.757 386.243>
VStem: 90 100<217.757 281.781 302.062 365.203 384.797 447.938 468.219 531.781 552.062 615.203 634.797 697.938 718.219 782.243> 197 100<217.757 282.243 717.757 782.243> 304 100<217.757 282.243 717.757 782.243>
CounterMasks: 1 38
LayerCount: 2
Back
Fore
SplineSet
404 250 m 0
 404 236 368 200 354 200 c 0
 340 200 304 236 304 250 c 0
 304 264 340 300 354 300 c 0
 368 300 404 264 404 250 c 0
297 250 m 0
 297 236 261 200 247 200 c 0
 233 200 197 236 197 250 c 0
 197 264 233 300 247 300 c 0
 261 300 297 264 297 250 c 0
190 250 m 0
 190 236 154 200 140 200 c 0
 126 200 90 236 90 250 c 0
 90 260 108 280 123 292 c 1
 108 304 90 323 90 333 c 0
 90 343 108 364 123 375 c 1
 108 386 90 407 90 417 c 0
 90 427 108 446 123 458 c 1
 108 470 90 490 90 500 c 0
 90 510 108 530 123 542 c 1
 108 554 90 573 90 583 c 0
 90 593 108 614 123 625 c 1
 108 636 90 657 90 667 c 0
 90 677 108 696 123 708 c 1
 108 720 90 740 90 750 c 0
 90 764 126 800 140 800 c 0
 154 800 190 764 190 750 c 0
 190 740 172 720 157 708 c 1
 172 696 190 677 190 667 c 0
 190 657 172 636 157 625 c 1
 172 614 190 593 190 583 c 0
 190 573 172 554 157 542 c 1
 172 530 190 510 190 500 c 0
 190 490 172 470 157 458 c 1
 172 446 190 427 190 417 c 0
 190 407 172 386 157 375 c 1
 172 364 190 343 190 333 c 0
 190 323 172 304 157 292 c 1
 172 280 190 260 190 250 c 0
404 750 m 0
 404 736 368 700 354 700 c 0
 340 700 304 736 304 750 c 0
 304 764 340 800 354 800 c 0
 368 800 404 764 404 750 c 0
297 750 m 0
 297 736 261 700 247 700 c 0
 233 700 197 736 197 750 c 0
 197 764 233 800 247 800 c 0
 261 800 297 764 297 750 c 0
EndSplineSet
EndChar

StartChar: Udieresis
Encoding: 220 220 62
Width: 600
VWidth: 0
UnlinkRmOvrlpSave: 1
Flags: W
HStem: 200 100<160.757 225.243 267.757 332.243 374.757 439.243> 613 20G<133 147 453 467> 700 100<107.757 172.243 427.757 492.243>
VStem: 90 100<300.757 365.203 384.797 447.938 468.219 531.781 552.062 615.243 717.757 782.243> 143 100<217.757 282.243> 250 100<217.757 282.243> 357 100<217.757 282.243> 410 100<300.757 365.203 384.797 447.938 468.219 531.781 552.062 615.243 717.757 782.243>
LayerCount: 2
Back
Fore
SplineSet
457 250 m 0xe6
 457 236 421 200 407 200 c 0
 393 200 357 236 357 250 c 0
 357 264 393 300 407 300 c 0
 421 300 457 264 457 250 c 0xe6
350 250 m 0
 350 236 314 200 300 200 c 0
 286 200 250 236 250 250 c 0
 250 264 286 300 300 300 c 0
 314 300 350 264 350 250 c 0
243 250 m 0xec
 243 236 207 200 193 200 c 0
 179 200 143 236 143 250 c 0
 143 264 179 300 193 300 c 0
 207 300 243 264 243 250 c 0xec
510 333 m 1xe5
 510 319 474 283 460 283 c 0
 446 283 410 319 410 333 c 0
 410 343 428 364 443 375 c 1
 428 386 410 407 410 417 c 1
 410 427 428 446 443 458 c 1
 428 470 410 490 410 500 c 0
 410 510 428 530 443 542 c 1
 428 554 410 573 410 583 c 0
 410 597 446 633 460 633 c 0
 474 633 510 597 510 583 c 0
 510 573 492 554 477 542 c 1
 492 530 510 510 510 500 c 0
 510 490 492 470 477 458 c 1
 492 446 510 427 510 417 c 0
 510 407 492 386 477 375 c 1
 492 364 510 343 510 333 c 1xe5
190 333 m 0xf4
 190 319 154 283 140 283 c 0
 126 283 90 319 90 333 c 0
 90 343 108 364 123 375 c 1
 108 386 90 407 90 417 c 0
 90 427 108 446 123 458 c 1
 108 470 90 490 90 500 c 0
 90 510 108 530 123 542 c 1
 108 554 90 573 90 583 c 0
 90 597 126 633 140 633 c 0
 154 633 190 597 190 583 c 0
 190 573 172 554 157 542 c 1
 172 530 190 510 190 500 c 0
 190 490 172 470 157 458 c 1
 172 446 190 427 190 417 c 0
 190 407 172 386 157 375 c 1
 172 364 190 343 190 333 c 0xf4
510 750 m 0xe5
 510 736 474 700 460 700 c 0
 446 700 410 736 410 750 c 0
 410 764 446 800 460 800 c 0
 474 800 510 764 510 750 c 0xe5
190 750 m 0xf4
 190 736 154 700 140 700 c 0
 126 700 90 736 90 750 c 0
 90 764 126 800 140 800 c 0
 154 800 190 764 190 750 c 0xf4
EndSplineSet
EndChar

StartChar: underscore
Encoding: 95 95 63
Width: 600
VWidth: 0
UnlinkRmOvrlpSave: 1
Flags: W
HStem: 200 100<107.757 172.243 214.757 279.243 320.757 385.243 427.757 492.243>
VStem: 90 100<217.757 282.243> 197 100<217.757 282.243> 303 100<217.757 282.243> 410 100<217.757 282.243>
LayerCount: 2
Back
Fore
SplineSet
510 250 m 0
 510 236 474 200 460 200 c 0
 446 200 410 236 410 250 c 0
 410 264 446 300 460 300 c 0
 474 300 510 264 510 250 c 0
403 250 m 0
 403 236 367 200 353 200 c 0
 339 200 303 236 303 250 c 0
 303 264 339 300 353 300 c 0
 367 300 403 264 403 250 c 0
297 250 m 0
 297 236 261 200 247 200 c 0
 233 200 197 236 197 250 c 0
 197 264 233 300 247 300 c 0
 261 300 297 264 297 250 c 0
190 250 m 0
 190 236 154 200 140 200 c 0
 126 200 90 236 90 250 c 0
 90 264 126 300 140 300 c 0
 154 300 190 264 190 250 c 0
EndSplineSet
EndChar

StartChar: glyph64
Encoding: 567 567 64
Width: 600
VWidth: 0
UnlinkRmOvrlpSave: 1
Flags: W
HStem: 200 100<160.757 225.243 267.757 332.243 374.757 439.243> 283 100<107.757 172.243> 613 20G<453 467>
VStem: 90 100<300.757 365.243> 143 100<217.757 282.243> 250 100<217.757 282.243> 357 100<217.757 282.243> 410 100<300.757 365.203 384.797 447.938 468.219 531.781 552.062 615.243>
LayerCount: 2
Back
Fore
SplineSet
457 250 m 0xa6
 457 236 421 200 407 200 c 0
 393 200 357 236 357 250 c 0
 357 264 393 300 407 300 c 0
 421 300 457 264 457 250 c 0xa6
350 250 m 0
 350 236 314 200 300 200 c 0
 286 200 250 236 250 250 c 0
 250 264 286 300 300 300 c 0
 314 300 350 264 350 250 c 0
243 250 m 0xac
 243 236 207 200 193 200 c 0
 179 200 143 236 143 250 c 0
 143 264 179 300 193 300 c 0
 207 300 243 264 243 250 c 0xac
510 333 m 1x65
 510 319 474 283 460 283 c 0
 446 283 410 319 410 333 c 0
 410 343 428 364 443 375 c 1
 428 386 410 407 410 417 c 1
 410 427 428 446 443 458 c 1
 428 470 410 490 410 500 c 0
 410 510 428 530 443 542 c 1
 428 554 410 573 410 583 c 0
 410 597 446 633 460 633 c 0
 474 633 510 597 510 583 c 0
 510 573 492 554 477 542 c 1
 492 530 510 510 510 500 c 0
 510 490 492 470 477 458 c 1
 492 446 510 427 510 417 c 0
 510 407 492 386 477 375 c 1
 492 364 510 343 510 333 c 1x65
190 333 m 0x74
 190 319 154 283 140 283 c 0
 126 283 90 319 90 333 c 0
 90 347 126 383 140 383 c 0
 154 383 190 347 190 333 c 0x74
EndSplineSet
EndChar

StartChar: agrave
Encoding: 224 224 65
Width: 600
VWidth: 0
UnlinkRmOvrlpSave: 1
Flags: W
HStem: 200 100<160.757 225.243 267.757 332.243 374.757 439.243> 283 100<107.757 172.243 427.757 492.243> 367 100<160.757 225.243 267.757 332.243 374.757 439.243> 450 100<427.757 492.243> 533 100<160.757 225.243 267.757 332.243 374.757 439.243> 617 100<320.757 385.243> 700 100<267.757 332.243>
VStem: 90 100<300.757 365.243> 143 100<217.757 282.243 384.757 449.243 550.757 615.243> 250 100<217.757 282.243 384.757 449.243 550.757 615.243 717.757 782.243> 303 100<634.757 699.243> 357 100<217.757 282.243 384.757 449.243 550.757 615.243> 410 100<300.757 365.243 467.757 532.243>
LayerCount: 2
Back
Fore
SplineSet
457 250 m 0x8010
 457 236 421 200 407 200 c 0
 393 200 357 236 357 250 c 0
 357 264 393 300 407 300 c 0
 421 300 457 264 457 250 c 0x8010
350 250 m 0x8040
 350 236 314 200 300 200 c 0
 286 200 250 236 250 250 c 0
 250 264 286 300 300 300 c 0
 314 300 350 264 350 250 c 0x8040
243 250 m 0x8080
 243 236 207 200 193 200 c 0
 179 200 143 236 143 250 c 0
 143 264 179 300 193 300 c 0
 207 300 243 264 243 250 c 0x8080
510 333 m 0x4008
 510 319 474 283 460 283 c 0
 446 283 410 319 410 333 c 0
 410 347 446 383 460 383 c 0
 474 383 510 347 510 333 c 0x4008
190 333 m 0x41
 190 319 154 283 140 283 c 0
 126 283 90 319 90 333 c 0
 90 347 126 383 140 383 c 0
 154 383 190 347 190 333 c 0x41
457 417 m 0x2010
 457 403 421 367 407 367 c 0
 393 367 357 403 357 417 c 0
 357 431 393 467 407 467 c 0
 421 467 457 431 457 417 c 0x2010
350 417 m 0x2040
 350 403 314 367 300 367 c 0
 286 367 250 403 250 417 c 0
 250 431 286 467 300 467 c 0
 314 467 350 431 350 417 c 0x2040
243 417 m 0x2080
 243 403 207 367 193 367 c 0
 179 367 143 403 143 417 c 0
 143 431 179 467 193 467 c 0
 207 467 243 431 243 417 c 0x2080
510 500 m 0x1008
 510 486 474 450 460 450 c 0
 446 450 410 486 410 500 c 0
 410 514 446 550 460 550 c 0
 474 550 510 514 510 500 c 0x1008
457 583 m 0x0810
 457 569 421 533 407 533 c 0
 393 533 357 569 357 583 c 0
 357 597 393 633 407 633 c 0
 421 633 457 597 457 583 c 0x0810
350 583 m 0x0840
 350 569 314 533 300 533 c 0
 286 533 250 569 250 583 c 0
 250 597 286 633 300 633 c 0
 314 633 350 597 350 583 c 0x0840
243 583 m 0x0880
 243 569 207 533 193 533 c 0
 179 533 143 569 143 583 c 0
 143 597 179 633 193 633 c 0
 207 633 243 597 243 583 c 0x0880
403 667 m 0x0420
 403 653 367 617 353 617 c 0
 339 617 303 653 303 667 c 0
 303 681 339 717 353 717 c 0
 367 717 403 681 403 667 c 0x0420
350 750 m 0x0240
 350 736 314 700 300 700 c 0
 286 700 250 736 250 750 c 0
 250 764 286 800 300 800 c 0
 314 800 350 764 350 750 c 0x0240
EndSplineSet
EndChar

StartChar: c
Encoding: 99 99 66
Width: 600
VWidth: 0
UnlinkRmOvrlpSave: 1
Flags: W
HStem: 200 100<160.757 225.243 267.757 332.243 374.757 439.243> 450 100<427.757 492.243> 533 100<160.757 225.243 267.757 332.243 374.757 439.243>
VStem: 90 100<300.757 365.203 384.797 447.938 468.219 532.243> 143 100<217.757 282.243 550.757 615.243> 250 100<217.757 282.243 550.757 615.243> 357 100<217.757 282.243 550.757 615.243> 410 100<467.757 532.243>
LayerCount: 2
Back
Fore
SplineSet
457 250 m 0x86
 457 236 421 200 407 200 c 0
 393 200 357 236 357 250 c 0
 357 264 393 300 407 300 c 0
 421 300 457 264 457 250 c 0x86
350 250 m 0
 350 236 314 200 300 200 c 0
 286 200 250 236 250 250 c 0
 250 264 286 300 300 300 c 0
 314 300 350 264 350 250 c 0
243 250 m 0x8c
 243 236 207 200 193 200 c 0
 179 200 143 236 143 250 c 0
 143 264 179 300 193 300 c 0
 207 300 243 264 243 250 c 0x8c
190 333 m 0xd4
 190 319 154 283 140 283 c 0
 126 283 90 319 90 333 c 0
 90 343 108 364 123 375 c 1
 108 386 90 407 90 417 c 0
 90 427 108 446 123 458 c 1
 108 470 90 490 90 500 c 0
 90 514 126 550 140 550 c 0
 154 550 190 514 190 500 c 0
 190 490 172 470 157 458 c 1
 172 446 190 427 190 417 c 0
 190 407 172 386 157 375 c 1
 172 364 190 343 190 333 c 0xd4
510 500 m 0xc5
 510 486 474 450 460 450 c 0
 446 450 410 486 410 500 c 0
 410 514 446 550 460 550 c 0
 474 550 510 514 510 500 c 0xc5
457 583 m 0xa6
 457 569 421 533 407 533 c 0
 393 533 357 569 357 583 c 0
 357 597 393 633 407 633 c 0
 421 633 457 597 457 583 c 0xa6
350 583 m 0
 350 569 314 533 300 533 c 0
 286 533 250 569 250 583 c 0
 250 597 286 633 300 633 c 0
 314 633 350 597 350 583 c 0
243 583 m 0xac
 243 569 207 533 193 533 c 0
 179 533 143 569 143 583 c 0
 143 597 179 633 193 633 c 0
 207 633 243 597 243 583 c 0xac
EndSplineSet
EndChar

StartChar: adieresis
Encoding: 228 228 67
Width: 600
VWidth: 0
UnlinkRmOvrlpSave: 1
Flags: W
HStem: 200 100<160.757 225.243 267.757 332.243 374.757 439.243> 283 100<107.757 172.243 427.757 492.243> 367 100<160.757 225.243 267.757 332.243 374.757 439.243> 450 100<427.757 492.243> 533 100<160.757 225.243 267.757 332.243 374.757 439.243> 700 100<160.757 225.243 374.757 439.243>
VStem: 90 100<300.757 365.243> 143 100<217.757 282.243 384.757 449.243 550.757 615.243 717.757 782.243> 250 100<217.757 282.243 384.757 449.243 550.757 615.243> 357 100<217.757 282.243 384.757 449.243 550.757 615.243 717.757 782.243> 410 100<300.757 365.243 467.757 532.243>
LayerCount: 2
Back
Fore
SplineSet
457 250 m 0x84c0
 457 236 421 200 407 200 c 0
 393 200 357 236 357 250 c 0
 357 264 393 300 407 300 c 0
 421 300 457 264 457 250 c 0x84c0
350 250 m 0
 350 236 314 200 300 200 c 0
 286 200 250 236 250 250 c 0
 250 264 286 300 300 300 c 0
 314 300 350 264 350 250 c 0
243 250 m 0x8580
 243 236 207 200 193 200 c 0
 179 200 143 236 143 250 c 0
 143 264 179 300 193 300 c 0
 207 300 243 264 243 250 c 0x8580
510 333 m 0x44a0
 510 319 474 283 460 283 c 0
 446 283 410 319 410 333 c 0
 410 347 446 383 460 383 c 0
 474 383 510 347 510 333 c 0x44a0
190 333 m 0x4680
 190 319 154 283 140 283 c 0
 126 283 90 319 90 333 c 0
 90 347 126 383 140 383 c 0
 154 383 190 347 190 333 c 0x4680
457 417 m 0x24c0
 457 403 421 367 407 367 c 0
 393 367 357 403 357 417 c 0
 357 431 393 467 407 467 c 0
 421 467 457 431 457 417 c 0x24c0
350 417 m 0
 350 403 314 367 300 367 c 0
 286 367 250 403 250 417 c 0
 250 431 286 467 300 467 c 0
 314 467 350 431 350 417 c 0
243 417 m 0x2580
 243 403 207 367 193 367 c 0
 179 367 143 403 143 417 c 0
 143 431 179 467 193 467 c 0
 207 467 243 431 243 417 c 0x2580
510 500 m 0x14a0
 510 486 474 450 460 450 c 0
 446 450 410 486 410 500 c 0
 410 514 446 550 460 550 c 0
 474 550 510 514 510 500 c 0x14a0
457 583 m 0x0cc0
 457 569 421 533 407 533 c 0
 393 533 357 569 357 583 c 0
 357 597 393 633 407 633 c 0
 421 633 457 597 457 583 c 0x0cc0
350 583 m 0
 350 569 314 533 300 533 c 0
 286 533 250 569 250 583 c 0
 250 597 286 633 300 633 c 0
 314 633 350 597 350 583 c 0
243 583 m 0x0d80
 243 569 207 533 193 533 c 0
 179 533 143 569 143 583 c 0
 143 597 179 633 193 633 c 0
 207 633 243 597 243 583 c 0x0d80
457 750 m 0x04c0
 457 736 421 700 407 700 c 0
 393 700 357 736 357 750 c 0
 357 764 393 800 407 800 c 0
 421 800 457 764 457 750 c 0x04c0
243 750 m 0x0580
 243 736 207 700 193 700 c 0
 179 700 143 736 143 750 c 0
 143 764 179 800 193 800 c 0
 207 800 243 764 243 750 c 0x0580
EndSplineSet
EndChar

StartChar: g
Encoding: 103 103 68
Width: 600
VWidth: 0
UnlinkRmOvrlpSave: 1
Flags: W
HStem: 200 100<107.757 172.243 214.757 279.243 320.757 385.243> 367 100<160.757 225.243 267.757 332.243 374.757 439.243> 450 100<107.757 172.243 427.757 492.243> 533 100<160.757 225.243 267.757 332.243 374.757 439.243> 617 100<427.757 492.243>
VStem: 90 100<217.757 282.243 467.757 532.243> 143 100<384.757 449.243 550.757 615.243> 197 100<217.757 282.243> 250 100<384.757 449.243 550.757 615.243> 303 100<217.757 282.243> 357 100<384.757 449.243 550.757 615.243> 410 100<217.757 281.781 302.062 365.243 467.757 532.243 634.757 699.243>
LayerCount: 2
Back
Fore
SplineSet
510 250 m 0x8010
 510 236 474 200 460 200 c 0
 446 200 410 236 410 250 c 0
 410 260 428 280 443 292 c 1
 428 304 410 323 410 333 c 0
 410 347 446 383 460 383 c 0
 474 383 510 347 510 333 c 0
 510 323 492 304 477 292 c 1
 492 280 510 260 510 250 c 0x8010
403 250 m 0x8040
 403 236 367 200 353 200 c 0
 339 200 303 236 303 250 c 0
 303 264 339 300 353 300 c 0
 367 300 403 264 403 250 c 0x8040
297 250 m 0x81
 297 236 261 200 247 200 c 0
 233 200 197 236 197 250 c 0
 197 264 233 300 247 300 c 0
 261 300 297 264 297 250 c 0x81
190 250 m 0x84
 190 236 154 200 140 200 c 0
 126 200 90 236 90 250 c 0
 90 264 126 300 140 300 c 0
 154 300 190 264 190 250 c 0x84
457 417 m 0xc020
 457 403 421 367 407 367 c 0
 393 367 357 403 357 417 c 0
 357 431 393 467 407 467 c 0
 421 467 457 431 457 417 c 0xc020
350 417 m 0xc080
 350 403 314 367 300 367 c 0
 286 367 250 403 250 417 c 0
 250 431 286 467 300 467 c 0
 314 467 350 431 350 417 c 0xc080
243 417 m 0xc2
 243 403 207 367 193 367 c 0
 179 367 143 403 143 417 c 0
 143 431 179 467 193 467 c 0
 207 467 243 431 243 417 c 0xc2
510 500 m 0xa010
 510 486 474 450 460 450 c 0
 446 450 410 486 410 500 c 0
 410 514 446 550 460 550 c 0
 474 550 510 514 510 500 c 0xa010
190 500 m 0xa4
 190 486 154 450 140 450 c 0
 126 450 90 486 90 500 c 0
 90 514 126 550 140 550 c 0
 154 550 190 514 190 500 c 0xa4
457 583 m 0x9020
 457 569 421 533 407 533 c 0
 393 533 357 569 357 583 c 0
 357 597 393 633 407 633 c 0
 421 633 457 597 457 583 c 0x9020
350 583 m 0x9080
 350 569 314 533 300 533 c 0
 286 533 250 569 250 583 c 0
 250 597 286 633 300 633 c 0
 314 633 350 597 350 583 c 0x9080
243 583 m 0x92
 243 569 207 533 193 533 c 0
 179 533 143 569 143 583 c 0
 143 597 179 633 193 633 c 0
 207 633 243 597 243 583 c 0x92
510 667 m 0x8810
 510 653 474 617 460 617 c 0
 446 617 410 653 410 667 c 0
 410 681 446 717 460 717 c 0
 474 717 510 681 510 667 c 0x8810
EndSplineSet
EndChar

StartChar: egrave
Encoding: 232 232 69
Width: 600
VWidth: 0
UnlinkRmOvrlpSave: 1
Flags: W
HStem: 200 100<160.757 225.243 267.757 332.243 374.757 439.243> 367 100<214.757 279.243 320.757 385.243> 533 100<160.757 225.243 267.757 332.243 374.757 439.243> 617 100<320.757 385.243> 700 100<267.757 332.243>
VStem: 90 100<300.757 365.203 384.797 447.938 468.219 532.243> 143 100<217.757 282.243 550.757 615.243> 197 100<384.757 449.243> 250 100<217.757 282.243 550.757 615.243 717.757 782.243> 303 100<384.757 449.243 634.757 699.243> 357 100<217.757 282.243 550.757 615.243> 410 100<384.757 447.938 468.219 532.243>
LayerCount: 2
Back
Fore
SplineSet
457 250 m 0xc020
 457 236 421 200 407 200 c 0
 393 200 357 236 357 250 c 0
 357 264 393 300 407 300 c 0
 421 300 457 264 457 250 c 0xc020
350 250 m 0xc080
 350 236 314 200 300 200 c 0
 286 200 250 236 250 250 c 0
 250 264 286 300 300 300 c 0
 314 300 350 264 350 250 c 0xc080
243 250 m 0xc2
 243 236 207 200 193 200 c 0
 179 200 143 236 143 250 c 0
 143 264 179 300 193 300 c 0
 207 300 243 264 243 250 c 0xc2
190 333 m 0xc4
 190 319 154 283 140 283 c 0
 126 283 90 319 90 333 c 0
 90 343 108 364 123 375 c 1
 108 386 90 407 90 417 c 0
 90 427 108 446 123 458 c 1
 108 470 90 490 90 500 c 0
 90 514 126 550 140 550 c 0
 154 550 190 514 190 500 c 0
 190 490 172 470 157 458 c 1
 172 446 190 427 190 417 c 0
 190 407 172 386 157 375 c 1
 172 364 190 343 190 333 c 0xc4
510 417 m 0xc010
 510 403 474 367 460 367 c 0
 446 367 410 403 410 417 c 0
 410 427 428 446 443 458 c 1
 428 470 410 490 410 500 c 0
 410 514 446 550 460 550 c 0
 474 550 510 514 510 500 c 0
 510 490 492 470 477 458 c 1
 492 446 510 427 510 417 c 0xc010
403 417 m 0xc040
 403 403 367 367 353 367 c 0
 339 367 303 403 303 417 c 0
 303 431 339 467 353 467 c 0
 367 467 403 431 403 417 c 0xc040
297 417 m 0xc1
 297 403 261 367 247 367 c 0
 233 367 197 403 197 417 c 0
 197 431 233 467 247 467 c 0
 261 467 297 431 297 417 c 0xc1
457 583 m 0xe020
 457 569 421 533 407 533 c 0
 393 533 357 569 357 583 c 0
 357 597 393 633 407 633 c 0
 421 633 457 597 457 583 c 0xe020
350 583 m 0xe080
 350 569 314 533 300 533 c 0
 286 533 250 569 250 583 c 0
 250 597 286 633 300 633 c 0
 314 633 350 597 350 583 c 0xe080
243 583 m 0xe2
 243 569 207 533 193 533 c 0
 179 533 143 569 143 583 c 0
 143 597 179 633 193 633 c 0
 207 633 243 597 243 583 c 0xe2
403 667 m 0xd040
 403 653 367 617 353 617 c 0
 339 617 303 653 303 667 c 0
 303 681 339 717 353 717 c 0
 367 717 403 681 403 667 c 0xd040
350 750 m 0xc880
 350 736 314 700 300 700 c 0
 286 700 250 736 250 750 c 0
 250 764 286 800 300 800 c 0
 314 800 350 764 350 750 c 0xc880
EndSplineSet
EndChar

StartChar: k
Encoding: 107 107 70
Width: 600
VWidth: 0
UnlinkRmOvrlpSave: 1
Flags: W
HStem: 200 100<427.757 492.243> 200 21G<133 147> 283 100<320.757 385.243> 367 100<214.757 279.243> 450 100<267.757 332.243> 533 100<320.757 385.243> 780 20G<133 147>
VStem: 90 100<217.757 281.781 302.062 365.203 384.797 447.938 468.219 531.781 552.062 615.203 634.797 697.938 718.219 782.243> 197 100<384.757 449.243> 250 100<467.757 532.243> 303 100<300.757 365.243 550.757 615.243> 410 100<217.757 282.243>
LayerCount: 2
Back
Fore
SplineSet
510 250 m 0x8310
 510 236 474 200 460 200 c 0
 446 200 410 236 410 250 c 0
 410 264 446 300 460 300 c 0
 474 300 510 264 510 250 c 0x8310
190 250 m 0
 190 236 154 200 140 200 c 0x4310
 126 200 90 236 90 250 c 0
 90 260 108 280 123 292 c 1
 108 304 90 323 90 333 c 0
 90 343 108 364 123 375 c 1
 108 386 90 407 90 417 c 0
 90 427 108 446 123 458 c 1
 108 470 90 490 90 500 c 0
 90 510 108 530 123 542 c 1
 108 554 90 573 90 583 c 0
 90 593 108 614 123 625 c 1
 108 636 90 657 90 667 c 0
 90 677 108 696 123 708 c 1
 108 720 90 740 90 750 c 0
 90 764 126 800 140 800 c 0
 154 800 190 764 190 750 c 0
 190 740 172 720 157 708 c 1
 172 696 190 677 190 667 c 0
 190 657 172 636 157 625 c 1
 172 614 190 593 190 583 c 0
 190 573 172 554 157 542 c 1
 172 530 190 510 190 500 c 0
 190 490 172 470 157 458 c 1
 172 446 190 427 190 417 c 0
 190 407 172 386 157 375 c 1
 172 364 190 343 190 333 c 0
 190 323 172 304 157 292 c 1
 172 280 190 260 190 250 c 0
403 333 m 0x2330
 403 319 367 283 353 283 c 0
 339 283 303 319 303 333 c 0
 303 347 339 383 353 383 c 0
 367 383 403 347 403 333 c 0x2330
297 417 m 0x1390
 297 403 261 367 247 367 c 0
 233 367 197 403 197 417 c 0
 197 431 233 467 247 467 c 0
 261 467 297 431 297 417 c 0x1390
350 500 m 0x0b50
 350 486 314 450 300 450 c 0
 286 450 250 486 250 500 c 0
 250 514 286 550 300 550 c 0
 314 550 350 514 350 500 c 0x0b50
403 583 m 0x0730
 403 569 367 533 353 533 c 0
 339 533 303 569 303 583 c 0
 303 597 339 633 353 633 c 0
 367 633 403 597 403 583 c 0x0730
EndSplineSet
EndChar

StartChar: o
Encoding: 111 111 71
Width: 600
VWidth: 0
UnlinkRmOvrlpSave: 1
Flags: W
HStem: 200 100<160.757 225.243 267.757 332.243 374.757 439.243> 533 100<160.757 225.243 267.757 332.243 374.757 439.243>
VStem: 90 100<300.757 365.203 384.797 447.938 468.219 532.243> 143 100<217.757 282.243 550.757 615.243> 250 100<217.757 282.243 550.757 615.243> 357 100<217.757 282.243 550.757 615.243> 410 100<300.757 365.203 384.797 447.938 468.219 532.243>
LayerCount: 2
Back
Fore
SplineSet
457 250 m 0xcc
 457 236 421 200 407 200 c 0
 393 200 357 236 357 250 c 0
 357 264 393 300 407 300 c 0
 421 300 457 264 457 250 c 0xcc
350 250 m 0
 350 236 314 200 300 200 c 0
 286 200 250 236 250 250 c 0
 250 264 286 300 300 300 c 0
 314 300 350 264 350 250 c 0
243 250 m 0xd8
 243 236 207 200 193 200 c 0
 179 200 143 236 143 250 c 0
 143 264 179 300 193 300 c 0
 207 300 243 264 243 250 c 0xd8
510 333 m 1xca
 510 319 474 283 460 283 c 0
 446 283 410 319 410 333 c 0
 410 343 428 364 443 375 c 1
 428 386 410 407 410 417 c 1
 410 427 428 446 443 458 c 1
 428 470 410 490 410 500 c 0
 410 514 446 550 460 550 c 0
 474 550 510 514 510 500 c 0
 510 490 492 470 477 458 c 1
 492 446 510 427 510 417 c 0
 510 407 492 386 477 375 c 1
 492 364 510 343 510 333 c 1xca
190 333 m 0xe8
 190 319 154 283 140 283 c 0
 126 283 90 319 90 333 c 0
 90 343 108 364 123 375 c 1
 108 386 90 407 90 417 c 0
 90 427 108 446 123 458 c 1
 108 470 90 490 90 500 c 0
 90 514 126 550 140 550 c 0
 154 550 190 514 190 500 c 0
 190 490 172 470 157 458 c 1
 172 446 190 427 190 417 c 0
 190 407 172 386 157 375 c 1
 172 364 190 343 190 333 c 0xe8
457 583 m 0xcc
 457 569 421 533 407 533 c 0
 393 533 357 569 357 583 c 0
 357 597 393 633 407 633 c 0
 421 633 457 597 457 583 c 0xcc
350 583 m 0
 350 569 314 533 300 533 c 0
 286 533 250 569 250 583 c 0
 250 597 286 633 300 633 c 0
 314 633 350 597 350 583 c 0
243 583 m 0xd8
 243 569 207 533 193 533 c 0
 179 533 143 569 143 583 c 0
 143 597 179 633 193 633 c 0
 207 633 243 597 243 583 c 0xd8
EndSplineSet
EndChar

StartChar: s
Encoding: 115 115 72
Width: 600
VWidth: 0
UnlinkRmOvrlpSave: 1
Flags: W
HStem: 200 100<160.757 225.243 267.757 332.243 374.757 439.243> 283 100<427.757 492.243> 367 100<160.757 225.243 267.757 332.243 374.757 439.243> 450 100<107.757 172.243> 533 100<160.757 225.243 267.757 332.243 374.757 439.243>
VStem: 90 100<467.757 532.243> 143 100<217.757 282.243 384.757 449.243 550.757 615.243> 250 100<217.757 282.243 384.757 449.243 550.757 615.243> 357 100<217.757 282.243 384.757 449.243 550.757 615.243> 410 100<300.757 365.243>
LayerCount: 2
Back
Fore
SplineSet
457 250 m 0x8180
 457 236 421 200 407 200 c 0
 393 200 357 236 357 250 c 0
 357 264 393 300 407 300 c 0
 421 300 457 264 457 250 c 0x8180
350 250 m 0
 350 236 314 200 300 200 c 0
 286 200 250 236 250 250 c 0
 250 264 286 300 300 300 c 0
 314 300 350 264 350 250 c 0
243 250 m 0x83
 243 236 207 200 193 200 c 0
 179 200 143 236 143 250 c 0
 143 264 179 300 193 300 c 0
 207 300 243 264 243 250 c 0x83
510 333 m 0x4140
 510 319 474 283 460 283 c 0
 446 283 410 319 410 333 c 0
 410 347 446 383 460 383 c 0
 474 383 510 347 510 333 c 0x4140
457 417 m 0x2180
 457 403 421 367 407 367 c 0
 393 367 357 403 357 417 c 0
 357 431 393 467 407 467 c 0
 421 467 457 431 457 417 c 0x2180
350 417 m 0
 350 403 314 367 300 367 c 0
 286 367 250 403 250 417 c 0
 250 431 286 467 300 467 c 0
 314 467 350 431 350 417 c 0
243 417 m 0x23
 243 403 207 367 193 367 c 0
 179 367 143 403 143 417 c 0
 143 431 179 467 193 467 c 0
 207 467 243 431 243 417 c 0x23
190 500 m 0x15
 190 486 154 450 140 450 c 0
 126 450 90 486 90 500 c 0
 90 514 126 550 140 550 c 0
 154 550 190 514 190 500 c 0x15
457 583 m 0x0980
 457 569 421 533 407 533 c 0
 393 533 357 569 357 583 c 0
 357 597 393 633 407 633 c 0
 421 633 457 597 457 583 c 0x0980
350 583 m 0
 350 569 314 533 300 533 c 0
 286 533 250 569 250 583 c 0
 250 597 286 633 300 633 c 0
 314 633 350 597 350 583 c 0
243 583 m 0x0b
 243 569 207 533 193 533 c 0
 179 533 143 569 143 583 c 0
 143 597 179 633 193 633 c 0
 207 633 243 597 243 583 c 0x0b
EndSplineSet
EndChar

StartChar: glyph73
Encoding: 373 373 73
Width: 600
VWidth: 0
UnlinkRmOvrlpSave: 1
Flags: W
HStem: 200 100<160.757 225.243 374.757 439.243> 283 100<214.757 279.243 320.757 385.243> 367 100<267.757 332.243> 617 100<160.757 225.243 374.757 439.243> 700 100<214.757 279.243 320.757 385.243>
VStem: 90 100<300.757 365.203 384.797 447.938 468.219 532.243> 143 100<217.757 282.243 634.757 699.243> 197 100<300.757 365.243 717.757 782.243> 250 100<384.757 449.243> 303 100<300.757 365.243 717.757 782.243> 357 100<217.757 282.243 634.757 699.243> 410 100<300.757 365.203 384.797 447.938 468.219 532.243>
LayerCount: 2
Back
Fore
SplineSet
457 250 m 0x8020
 457 236 421 200 407 200 c 0
 393 200 357 236 357 250 c 0
 357 264 393 300 407 300 c 0
 421 300 457 264 457 250 c 0x8020
243 250 m 0x82
 243 236 207 200 193 200 c 0
 179 200 143 236 143 250 c 0
 143 264 179 300 193 300 c 0
 207 300 243 264 243 250 c 0x82
510 333 m 1x4010
 510 319 474 283 460 283 c 0
 446 283 410 319 410 333 c 0
 410 343 428 364 443 375 c 1
 428 386 410 407 410 417 c 1
 410 427 428 446 443 458 c 1
 428 470 410 490 410 500 c 0
 410 514 446 550 460 550 c 0
 474 550 510 514 510 500 c 0
 510 490 492 470 477 458 c 1
 492 446 510 427 510 417 c 0
 510 407 492 386 477 375 c 1
 492 364 510 343 510 333 c 1x4010
403 333 m 0x4040
 403 319 367 283 353 283 c 0
 339 283 303 319 303 333 c 0
 303 347 339 383 353 383 c 0
 367 383 403 347 403 333 c 0x4040
297 333 m 0x41
 297 319 261 283 247 283 c 0
 233 283 197 319 197 333 c 0
 197 347 233 383 247 383 c 0
 261 383 297 347 297 333 c 0x41
190 333 m 0x44
 190 319 154 283 140 283 c 0
 126 283 90 319 90 333 c 0
 90 343 108 364 123 375 c 1
 108 386 90 407 90 417 c 0
 90 427 108 446 123 458 c 1
 108 470 90 490 90 500 c 0
 90 514 126 550 140 550 c 0
 154 550 190 514 190 500 c 0
 190 490 172 470 157 458 c 1
 172 446 190 427 190 417 c 0
 190 407 172 386 157 375 c 1
 172 364 190 343 190 333 c 0x44
350 417 m 0x2080
 350 403 314 367 300 367 c 0
 286 367 250 403 250 417 c 0
 250 431 286 467 300 467 c 0
 314 467 350 431 350 417 c 0x2080
457 667 m 0x1020
 457 653 421 617 407 617 c 0
 393 617 357 653 357 667 c 0
 357 681 393 717 407 717 c 0
 421 717 457 681 457 667 c 0x1020
243 667 m 0x12
 243 653 207 617 193 617 c 0
 179 617 143 653 143 667 c 0
 143 681 179 717 193 717 c 0
 207 717 243 681 243 667 c 0x12
403 750 m 0x0840
 403 736 367 700 353 700 c 0
 339 700 303 736 303 750 c 0
 303 764 339 800 353 800 c 0
 367 800 403 764 403 750 c 0x0840
297 750 m 0x09
 297 736 261 700 247 700 c 0
 233 700 197 736 197 750 c 0
 197 764 233 800 247 800 c 0
 261 800 297 764 297 750 c 0x09
EndSplineSet
EndChar

StartChar: w
Encoding: 119 119 74
Width: 600
VWidth: 0
UnlinkRmOvrlpSave: 1
Flags: W
HStem: 200 100<160.757 225.243 374.757 439.243> 283 100<214.757 279.243 320.757 385.243> 367 100<267.757 332.243> 613 20G<133 147 453 467>
VStem: 90 100<300.757 365.203 384.797 447.938 468.219 531.781 552.062 615.243> 143 100<217.757 282.243> 197 100<300.757 365.243> 250 100<384.757 449.243> 303 100<300.757 365.243> 357 100<217.757 282.243> 410 100<300.757 365.203 384.797 447.938 468.219 531.781 552.062 615.243>
LayerCount: 2
Back
Fore
SplineSet
457 250 m 0x9040
 457 236 421 200 407 200 c 0
 393 200 357 236 357 250 c 0
 357 264 393 300 407 300 c 0
 421 300 457 264 457 250 c 0x9040
243 250 m 0x94
 243 236 207 200 193 200 c 0
 179 200 143 236 143 250 c 0
 143 264 179 300 193 300 c 0
 207 300 243 264 243 250 c 0x94
510 333 m 1x5020
 510 319 474 283 460 283 c 0
 446 283 410 319 410 333 c 0
 410 343 428 364 443 375 c 1
 428 386 410 407 410 417 c 1
 410 427 428 446 443 458 c 1
 428 470 410 490 410 500 c 0
 410 510 428 530 443 542 c 1
 428 554 410 573 410 583 c 0
 410 597 446 633 460 633 c 0
 474 633 510 597 510 583 c 0
 510 573 492 554 477 542 c 1
 492 530 510 510 510 500 c 0
 510 490 492 470 477 458 c 1
 492 446 510 427 510 417 c 0
 510 407 492 386 477 375 c 1
 492 364 510 343 510 333 c 1x5020
403 333 m 0x5080
 403 319 367 283 353 283 c 0
 339 283 303 319 303 333 c 0
 303 347 339 383 353 383 c 0
 367 383 403 347 403 333 c 0x5080
297 333 m 0x52
 297 319 261 283 247 283 c 0
 233 283 197 319 197 333 c 0
 197 347 233 383 247 383 c 0
 261 383 297 347 297 333 c 0x52
190 333 m 0x58
 190 319 154 283 140 283 c 0
 126 283 90 319 90 333 c 0
 90 343 108 364 123 375 c 1
 108 386 90 407 90 417 c 0
 90 427 108 446 123 458 c 1
 108 470 90 490 90 500 c 0
 90 510 108 530 123 542 c 1
 108 554 90 573 90 583 c 0
 90 597 126 633 140 633 c 0
 154 633 190 597 190 583 c 0
 190 573 172 554 157 542 c 1
 172 530 190 510 190 500 c 0
 190 490 172 470 157 458 c 1
 172 446 190 427 190 417 c 0
 190 407 172 386 157 375 c 1
 172 364 190 343 190 333 c 0x58
350 417 m 0x31
 350 403 314 367 300 367 c 0
 286 367 250 403 250 417 c 0
 250 431 286 467 300 467 c 0
 314 467 350 431 350 417 c 0x31
EndSplineSet
EndChar

StartChar: oslash
Encoding: 248 248 75
Width: 600
VWidth: 0
UnlinkRmOvrlpSave: 1
Flags: W
HStem: 200 100<160.757 225.243 267.757 332.243 374.757 439.243> 283 100<214.757 279.243> 367 100<267.757 332.243> 450 100<320.757 385.243> 533 100<160.757 225.243 267.757 332.243 374.757 439.243>
VStem: 90 100<300.757 365.203 384.797 447.938 468.219 532.243> 143 100<217.757 282.243 550.757 615.243> 197 100<300.757 365.243> 250 100<217.757 282.243 384.757 449.243 550.757 615.243> 303 100<467.757 532.243> 357 100<217.757 282.243 550.757 615.243> 410 100<300.757 365.203 384.797 447.938 468.219 532.243>
LayerCount: 2
Back
Fore
SplineSet
457 250 m 0x8020
 457 236 421 200 407 200 c 0
 393 200 357 236 357 250 c 0
 357 264 393 300 407 300 c 0
 421 300 457 264 457 250 c 0x8020
350 250 m 0x8080
 350 236 314 200 300 200 c 0
 286 200 250 236 250 250 c 0
 250 264 286 300 300 300 c 0
 314 300 350 264 350 250 c 0x8080
243 250 m 0x82
 243 236 207 200 193 200 c 0
 179 200 143 236 143 250 c 0
 143 264 179 300 193 300 c 0
 207 300 243 264 243 250 c 0x82
510 333 m 1x5010
 510 319 474 283 460 283 c 0
 446 283 410 319 410 333 c 0
 410 343 428 364 443 375 c 1
 428 386 410 407 410 417 c 1
 410 427 428 446 443 458 c 1
 428 470 410 490 410 500 c 0
 410 514 446 550 460 550 c 0
 474 550 510 514 510 500 c 0
 510 490 492 470 477 458 c 1
 492 446 510 427 510 417 c 0
 510 407 492 386 477 375 c 1
 492 364 510 343 510 333 c 1x5010
297 333 m 0x41
 297 319 261 283 247 283 c 0
 233 283 197 319 197 333 c 0
 197 347 233 383 247 383 c 0
 261 383 297 347 297 333 c 0x41
190 333 m 0x54
 190 319 154 283 140 283 c 0
 126 283 90 319 90 333 c 0
 90 343 108 364 123 375 c 1
 108 386 90 407 90 417 c 0
 90 427 108 446 123 458 c 1
 108 470 90 490 90 500 c 0
 90 514 126 550 140 550 c 0
 154 550 190 514 190 500 c 0
 190 490 172 470 157 458 c 1
 172 446 190 427 190 417 c 0
 190 407 172 386 157 375 c 1
 172 364 190 343 190 333 c 0x54
350 417 m 0x2080
 350 403 314 367 300 367 c 0
 286 367 250 403 250 417 c 0
 250 431 286 467 300 467 c 0
 314 467 350 431 350 417 c 0x2080
403 500 m 0x1040
 403 486 367 450 353 450 c 0
 339 450 303 486 303 500 c 0
 303 514 339 550 353 550 c 0
 367 550 403 514 403 500 c 0x1040
457 583 m 0x0820
 457 569 421 533 407 533 c 0
 393 533 357 569 357 583 c 0
 357 597 393 633 407 633 c 0
 421 633 457 597 457 583 c 0x0820
350 583 m 0x0880
 350 569 314 533 300 533 c 0
 286 533 250 569 250 583 c 0
 250 597 286 633 300 633 c 0
 314 633 350 597 350 583 c 0x0880
243 583 m 0x0a
 243 569 207 533 193 533 c 0
 179 533 143 569 143 583 c 0
 143 597 179 633 193 633 c 0
 207 633 243 597 243 583 c 0x0a
EndSplineSet
EndChar

StartChar: braceleft
Encoding: 123 123 76
Width: 600
VWidth: 0
UnlinkRmOvrlpSave: 1
Flags: W
HStem: 200 100<320.757 385.243 427.757 492.243> 450 100<107.757 172.243 214.757 279.243> 700 100<320.757 385.243 427.757 492.243>
VStem: 90 100<467.757 532.243> 197 100<467.757 532.243> 250 100<300.757 365.203 384.797 449.243 550.757 615.203 634.797 699.243> 303 100<217.757 282.243 717.757 782.243> 410 100<217.757 282.243 717.757 782.243>
CounterMasks: 1 e0
LayerCount: 2
Back
Fore
SplineSet
510 250 m 0xf1
 510 236 474 200 460 200 c 0
 446 200 410 236 410 250 c 0
 410 264 446 300 460 300 c 0
 474 300 510 264 510 250 c 0xf1
403 250 m 0xf3
 403 236 367 200 353 200 c 0
 339 200 303 236 303 250 c 0
 303 264 339 300 353 300 c 0
 367 300 403 264 403 250 c 0xf3
350 333 m 1xf5
 350 319 314 283 300 283 c 0
 286 283 250 319 250 333 c 0
 250 343 268 364 283 375 c 1
 268 386 250 407 250 417 c 0
 250 431 286 467 300 467 c 0
 314 467 350 431 350 417 c 0
 350 407 332 386 317 375 c 1
 332 364 350 343 350 333 c 1xf5
297 500 m 0xf9
 297 486 261 450 247 450 c 0
 233 450 197 486 197 500 c 0
 197 514 233 550 247 550 c 0
 261 550 297 514 297 500 c 0xf9
190 500 m 0
 190 486 154 450 140 450 c 0
 126 450 90 486 90 500 c 0
 90 514 126 550 140 550 c 0
 154 550 190 514 190 500 c 0
350 583 m 0xf5
 350 569 314 533 300 533 c 0
 286 533 250 569 250 583 c 0
 250 593 268 614 283 625 c 1
 268 636 250 657 250 667 c 0
 250 681 286 717 300 717 c 0
 314 717 350 681 350 667 c 0
 350 657 332 636 317 625 c 1
 332 614 350 593 350 583 c 0xf5
510 750 m 0
 510 736 474 700 460 700 c 0
 446 700 410 736 410 750 c 0
 410 764 446 800 460 800 c 0
 474 800 510 764 510 750 c 0
403 750 m 0xf3
 403 736 367 700 353 700 c 0
 339 700 303 736 303 750 c 0
 303 764 339 800 353 800 c 0
 367 800 403 764 403 750 c 0xf3
EndSplineSet
EndChar

StartChar: udieresis
Encoding: 252 252 77
Width: 600
VWidth: 0
UnlinkRmOvrlpSave: 1
Flags: W
HStem: 200 100<214.757 279.243 320.757 385.243> 613 20G<133 147 453 467> 700 100<160.757 225.243 374.757 439.243>
VStem: 90 100<300.757 365.203 384.797 447.938 468.219 531.781 552.062 615.243> 143 100<717.757 782.243> 197 100<217.757 282.243> 303 100<217.757 282.243> 357 100<717.757 782.243> 410 100<217.757 281.781 302.062 365.203 384.797 447.938 468.219 531.781 552.062 615.243>
LayerCount: 2
Back
Fore
SplineSet
510 250 m 0xe080
 510 236 474 200 460 200 c 0
 446 200 410 236 410 250 c 0
 410 260 428 280 443 292 c 1
 428 304 410 323 410 333 c 0
 410 343 428 364 443 375 c 1
 428 386 410 407 410 417 c 1
 410 427 428 446 443 458 c 1
 428 470 410 490 410 500 c 0
 410 510 428 530 443 542 c 1
 428 554 410 573 410 583 c 0
 410 597 446 633 460 633 c 0
 474 633 510 597 510 583 c 0
 510 573 492 554 477 542 c 1
 492 530 510 510 510 500 c 0
 510 490 492 470 477 458 c 1
 492 446 510 427 510 417 c 0
 510 407 492 386 477 375 c 1
 492 364 510 343 510 333 c 1
 510 323 492 304 477 292 c 1
 492 280 510 260 510 250 c 0xe080
403 250 m 0xe2
 403 236 367 200 353 200 c 0
 339 200 303 236 303 250 c 0
 303 264 339 300 353 300 c 0
 367 300 403 264 403 250 c 0xe2
297 250 m 0xe4
 297 236 261 200 247 200 c 0
 233 200 197 236 197 250 c 0
 197 264 233 300 247 300 c 0
 261 300 297 264 297 250 c 0xe4
190 333 m 0xf0
 190 319 154 283 140 283 c 0
 126 283 90 319 90 333 c 0
 90 343 108 364 123 375 c 1
 108 386 90 407 90 417 c 0
 90 427 108 446 123 458 c 1
 108 470 90 490 90 500 c 0
 90 510 108 530 123 542 c 1
 108 554 90 573 90 583 c 0
 90 597 126 633 140 633 c 0
 154 633 190 597 190 583 c 0
 190 573 172 554 157 542 c 1
 172 530 190 510 190 500 c 0
 190 490 172 470 157 458 c 1
 172 446 190 427 190 417 c 0
 190 407 172 386 157 375 c 1
 172 364 190 343 190 333 c 0xf0
457 750 m 0xe1
 457 736 421 700 407 700 c 0
 393 700 357 736 357 750 c 0
 357 764 393 800 407 800 c 0
 421 800 457 764 457 750 c 0xe1
243 750 m 0xe8
 243 736 207 700 193 700 c 0
 179 700 143 736 143 750 c 0
 143 764 179 800 193 800 c 0
 207 800 243 764 243 750 c 0xe8
EndSplineSet
EndChar

StartChar: glyph78
Encoding: 776 776 78
Width: 600
VWidth: 0
UnlinkRmOvrlpSave: 1
Flags: W
HStem: 700 100<107.757 172.243 321.757 386.243>
VStem: 90 100<717.757 782.243> 304 100<717.757 782.243>
LayerCount: 2
Back
Fore
SplineSet
404 750 m 0
 404 736 368 700 354 700 c 0
 340 700 304 736 304 750 c 0
 304 764 340 800 354 800 c 0
 368 800 404 764 404 750 c 0
190 750 m 0
 190 736 154 700 140 700 c 0
 126 700 90 736 90 750 c 0
 90 764 126 800 140 800 c 0
 154 800 190 764 190 750 c 0
EndSplineSet
EndChar

StartChar: glyph79
Encoding: 9786 9786 79
Width: 600
VWidth: 0
UnlinkRmOvrlpSave: 1
Flags: W
HStem: 283 100<160.757 225.243 267.757 332.243 374.757 439.243> 367 100<107.757 172.243 427.757 492.243> 617 100<160.757 225.243 374.757 439.243>
VStem: 90 100<384.757 449.243> 143 100<300.757 365.243 634.757 699.243> 250 100<300.757 365.243> 357 100<300.757 365.243 634.757 699.243> 410 100<384.757 449.243>
LayerCount: 2
Back
Fore
SplineSet
457 333 m 0xa6
 457 319 421 283 407 283 c 0
 393 283 357 319 357 333 c 0
 357 347 393 383 407 383 c 0
 421 383 457 347 457 333 c 0xa6
350 333 m 0
 350 319 314 283 300 283 c 0
 286 283 250 319 250 333 c 0
 250 347 286 383 300 383 c 0
 314 383 350 347 350 333 c 0
243 333 m 0xac
 243 319 207 283 193 283 c 0
 179 283 143 319 143 333 c 0
 143 347 179 383 193 383 c 0
 207 383 243 347 243 333 c 0xac
510 417 m 0x65
 510 403 474 367 460 367 c 0
 446 367 410 403 410 417 c 0
 410 431 446 467 460 467 c 0
 474 467 510 431 510 417 c 0x65
190 417 m 0x74
 190 403 154 367 140 367 c 0
 126 367 90 403 90 417 c 0
 90 431 126 467 140 467 c 0
 154 467 190 431 190 417 c 0x74
457 667 m 0x26
 457 653 421 617 407 617 c 0
 393 617 357 653 357 667 c 0
 357 681 393 717 407 717 c 0
 421 717 457 681 457 667 c 0x26
243 667 m 0x2c
 243 653 207 617 193 617 c 0
 179 617 143 653 143 667 c 0
 143 681 179 717 193 717 c 0
 207 717 243 681 243 667 c 0x2c
EndSplineSet
EndChar

StartChar: glyph80
Encoding: 8595 8595 80
Width: 600
VWidth: 0
UnlinkRmOvrlpSave: 1
Flags: W
HStem: 200 21G<293 307> 200 21G<293 307> 283 100<160.757 225.243 374.757 439.243> 367 100<107.757 172.243 427.757 492.243> 780 20G<293 307>
VStem: 90 100<384.757 449.243> 143 100<300.757 365.243> 250 100<217.757 281.781 302.062 365.203 384.797 447.938 468.219 531.781 552.062 615.203 634.797 697.938 718.219 782.243> 357 100<300.757 365.243> 410 100<384.757 449.243>
LayerCount: 2
Back
Fore
SplineSet
350 250 m 0x89
 350 236 314 200 300 200 c 0
 286 200 250 236 250 250 c 0
 250 260 268 280 283 292 c 1
 268 304 250 323 250 333 c 0
 250 343 268 364 283 375 c 1
 268 386 250 407 250 417 c 0
 250 427 268 446 283 458 c 1
 268 470 250 490 250 500 c 0
 250 510 268 530 283 542 c 1
 268 554 250 573 250 583 c 0
 250 593 268 614 283 625 c 1
 268 636 250 657 250 667 c 0
 250 677 268 696 283 708 c 1
 268 720 250 740 250 750 c 0
 250 764 286 800 300 800 c 0
 314 800 350 764 350 750 c 0
 350 740 332 720 317 708 c 1
 332 696 350 677 350 667 c 0
 350 657 332 636 317 625 c 1
 332 614 350 593 350 583 c 0
 350 573 332 554 317 542 c 1
 332 530 350 510 350 500 c 0
 350 490 332 470 317 458 c 1
 332 446 350 427 350 417 c 0
 350 407 332 386 317 375 c 1
 332 364 350 343 350 333 c 1
 350 323 332 304 317 292 c 1
 332 280 350 260 350 250 c 0x89
457 333 m 0x2980
 457 319 421 283 407 283 c 0
 393 283 357 319 357 333 c 0
 357 347 393 383 407 383 c 0
 421 383 457 347 457 333 c 0x2980
243 333 m 0x2b
 243 319 207 283 193 283 c 0
 179 283 143 319 143 333 c 0
 143 347 179 383 193 383 c 0
 207 383 243 347 243 333 c 0x2b
510 417 m 0x1940
 510 403 474 367 460 367 c 0
 446 367 410 403 410 417 c 0
 410 431 446 467 460 467 c 0
 474 467 510 431 510 417 c 0x1940
190 417 m 0x1d
 190 403 154 367 140 367 c 0
 126 367 90 403 90 417 c 0
 90 431 126 467 140 467 c 0
 154 467 190 431 190 417 c 0x1d
EndSplineSet
EndChar

StartChar: quotedbl
Encoding: 34 34 81
Width: 600
VWidth: 0
UnlinkRmOvrlpSave: 1
Flags: W
HStem: 533 267<123.232 156.768 229.232 262.768>
VStem: 90 100<550.757 615.203 634.797 697.938 718.219 782.243> 196 100<550.757 615.203 634.797 697.938 718.219 782.243>
LayerCount: 2
Back
Fore
SplineSet
296 583 m 0
 296 569 260 533 246 533 c 0
 232 533 196 569 196 583 c 0
 196 593 214 614 229 625 c 1
 214 636 196 657 196 667 c 0
 196 677 214 696 229 708 c 1
 214 720 196 740 196 750 c 0
 196 764 232 800 246 800 c 0
 260 800 296 764 296 750 c 0
 296 740 278 720 263 708 c 1
 278 696 296 677 296 667 c 0
 296 657 278 636 263 625 c 1
 278 614 296 593 296 583 c 0
190 583 m 0
 190 569 154 533 140 533 c 0
 126 533 90 569 90 583 c 0
 90 593 108 614 123 625 c 1
 108 636 90 657 90 667 c 0
 90 677 108 696 123 708 c 1
 108 720 90 740 90 750 c 0
 90 764 126 800 140 800 c 0
 154 800 190 764 190 750 c 0
 190 740 172 720 157 708 c 1
 172 696 190 677 190 667 c 0
 190 657 172 636 157 625 c 1
 172 614 190 593 190 583 c 0
EndSplineSet
EndChar

StartChar: ampersand
Encoding: 38 38 82
Width: 600
VWidth: 0
UnlinkRmOvrlpSave: 1
Flags: W
HStem: 200 100<160.757 225.243 267.757 332.243 374.757 439.243> 283 100<107.757 172.243 320.757 385.243> 367 100<160.757 225.243 267.757 332.243 374.757 439.243> 450 100<214.757 279.243> 533 100<160.757 225.243 267.757 332.243> 617 100<107.757 172.243 320.757 385.243> 700 100<160.757 225.243 267.757 332.243>
VStem: 90 100<300.757 365.243 634.757 699.243> 143 100<217.757 282.243 384.757 449.243 550.757 615.243 717.757 782.243> 197 100<467.757 532.243> 250 100<217.757 282.243 384.757 449.243 550.757 615.243 717.757 782.243> 303 100<300.757 365.243 634.757 699.243> 357 100<217.757 282.243 384.757 449.243>
LayerCount: 2
Back
Fore
SplineSet
457 250 m 0x8008
 457 236 421 200 407 200 c 0
 393 200 357 236 357 250 c 0
 357 264 393 300 407 300 c 0
 421 300 457 264 457 250 c 0x8008
350 250 m 0x8020
 350 236 314 200 300 200 c 0
 286 200 250 236 250 250 c 0
 250 264 286 300 300 300 c 0
 314 300 350 264 350 250 c 0x8020
243 250 m 0x8080
 243 236 207 200 193 200 c 0
 179 200 143 236 143 250 c 0
 143 264 179 300 193 300 c 0
 207 300 243 264 243 250 c 0x8080
403 333 m 0x4010
 403 319 367 283 353 283 c 0
 339 283 303 319 303 333 c 0
 303 347 339 383 353 383 c 0
 367 383 403 347 403 333 c 0x4010
190 333 m 0x41
 190 319 154 283 140 283 c 0
 126 283 90 319 90 333 c 0
 90 347 126 383 140 383 c 0
 154 383 190 347 190 333 c 0x41
457 417 m 0x2008
 457 403 421 367 407 367 c 0
 393 367 357 403 357 417 c 0
 357 431 393 467 407 467 c 0
 421 467 457 431 457 417 c 0x2008
350 417 m 0x2020
 350 403 314 367 300 367 c 0
 286 367 250 403 250 417 c 0
 250 431 286 467 300 467 c 0
 314 467 350 431 350 417 c 0x2020
243 417 m 0x2080
 243 403 207 367 193 367 c 0
 179 367 143 403 143 417 c 0
 143 431 179 467 193 467 c 0
 207 467 243 431 243 417 c 0x2080
297 500 m 0x1040
 297 486 261 450 247 450 c 0
 233 450 197 486 197 500 c 0
 197 514 233 550 247 550 c 0
 261 550 297 514 297 500 c 0x1040
350 583 m 0x0820
 350 569 314 533 300 533 c 0
 286 533 250 569 250 583 c 0
 250 597 286 633 300 633 c 0
 314 633 350 597 350 583 c 0x0820
243 583 m 0x0880
 243 569 207 533 193 533 c 0
 179 533 143 569 143 583 c 0
 143 597 179 633 193 633 c 0
 207 633 243 597 243 583 c 0x0880
403 667 m 0x0410
 403 653 367 617 353 617 c 0
 339 617 303 653 303 667 c 0
 303 681 339 717 353 717 c 0
 367 717 403 681 403 667 c 0x0410
190 667 m 0x05
 190 653 154 617 140 617 c 0
 126 617 90 653 90 667 c 0
 90 681 126 717 140 717 c 0
 154 717 190 681 190 667 c 0x05
350 750 m 0x0220
 350 736 314 700 300 700 c 0
 286 700 250 736 250 750 c 0
 250 764 286 800 300 800 c 0
 314 800 350 764 350 750 c 0x0220
243 750 m 0x0280
 243 736 207 700 193 700 c 0
 179 700 143 736 143 750 c 0
 143 764 179 800 193 800 c 0
 207 800 243 764 243 750 c 0x0280
EndSplineSet
EndChar

StartChar: asterisk
Encoding: 42 42 83
Width: 600
VWidth: 0
UnlinkRmOvrlpSave: 1
Flags: W
HStem: 200 21G<293 307> 200 21G<293 307> 283 100<107.757 172.243 427.757 492.243> 367 100<160.757 225.243 374.757 439.243> 450 100<214.757 279.243 320.757 385.243> 533 100<160.757 225.243 374.757 439.243> 617 100<107.757 172.243 427.757 492.243> 780 20G<293 307>
VStem: 90 100<300.757 365.243 634.757 699.243> 143 100<384.757 449.243 550.757 615.243> 197 100<467.757 532.243> 250 100<217.757 281.781 302.062 365.203 384.797 449.243 550.757 615.203 634.797 697.938 718.219 782.243> 303 100<467.757 532.243> 357 100<384.757 449.243 550.757 615.243> 410 100<300.757 365.243 634.757 699.243>
LayerCount: 2
Back
Fore
SplineSet
350 250 m 0x9110
 350 236 314 200 300 200 c 0
 286 200 250 236 250 250 c 0
 250 260 268 280 283 292 c 1
 268 304 250 323 250 333 c 0
 250 343 268 364 283 375 c 1
 268 386 250 407 250 417 c 0
 250 431 286 467 300 467 c 0
 314 467 350 431 350 417 c 0
 350 407 332 386 317 375 c 1
 332 364 350 343 350 333 c 1
 350 323 332 304 317 292 c 1
 332 280 350 260 350 250 c 0x9110
510 333 m 0x2102
 510 319 474 283 460 283 c 0
 446 283 410 319 410 333 c 0
 410 347 446 383 460 383 c 0
 474 383 510 347 510 333 c 0x2102
190 333 m 0x2180
 190 319 154 283 140 283 c 0
 126 283 90 319 90 333 c 0
 90 347 126 383 140 383 c 0
 154 383 190 347 190 333 c 0x2180
457 417 m 0x1104
 457 403 421 367 407 367 c 0
 393 367 357 403 357 417 c 0
 357 431 393 467 407 467 c 0
 421 467 457 431 457 417 c 0x1104
243 417 m 0x1140
 243 403 207 367 193 367 c 0
 179 367 143 403 143 417 c 0
 143 431 179 467 193 467 c 0
 207 467 243 431 243 417 c 0x1140
403 500 m 0x0908
 403 486 367 450 353 450 c 0
 339 450 303 486 303 500 c 0
 303 514 339 550 353 550 c 0
 367 550 403 514 403 500 c 0x0908
297 500 m 0x0920
 297 486 261 450 247 450 c 0
 233 450 197 486 197 500 c 0
 197 514 233 550 247 550 c 0
 261 550 297 514 297 500 c 0x0920
457 583 m 0x0504
 457 569 421 533 407 533 c 0
 393 533 357 569 357 583 c 0
 357 597 393 633 407 633 c 0
 421 633 457 597 457 583 c 0x0504
350 583 m 0x0510
 350 569 314 533 300 533 c 0
 286 533 250 569 250 583 c 0
 250 593 268 614 283 625 c 1
 268 636 250 657 250 667 c 0
 250 677 268 696 283 708 c 1
 268 720 250 740 250 750 c 0
 250 764 286 800 300 800 c 0
 314 800 350 764 350 750 c 0
 350 740 332 720 317 708 c 1
 332 696 350 677 350 667 c 0
 350 657 332 636 317 625 c 1
 332 614 350 593 350 583 c 0x0510
243 583 m 0x0540
 243 569 207 533 193 533 c 0
 179 533 143 569 143 583 c 0
 143 597 179 633 193 633 c 0
 207 633 243 597 243 583 c 0x0540
510 667 m 0x0302
 510 653 474 617 460 617 c 0
 446 617 410 653 410 667 c 0
 410 681 446 717 460 717 c 0
 474 717 510 681 510 667 c 0x0302
190 667 m 0x0380
 190 653 154 617 140 617 c 0
 126 617 90 653 90 667 c 0
 90 681 126 717 140 717 c 0
 154 717 190 681 190 667 c 0x0380
EndSplineSet
EndChar

StartChar: period
Encoding: 46 46 84
Width: 600
VWidth: 0
UnlinkRmOvrlpSave: 1
Flags: W
HStem: 200 100<160.757 225.243> 283 100<107.757 172.243 213.757 278.243> 367 100<160.757 225.243>
VStem: 90 100<300.757 365.243> 143 100<217.757 282.243 384.757 449.243> 196 100<300.757 365.243>
LayerCount: 2
Back
Fore
SplineSet
243 250 m 0x88
 243 236 207 200 193 200 c 0
 179 200 143 236 143 250 c 0
 143 264 179 300 193 300 c 0
 207 300 243 264 243 250 c 0x88
296 333 m 0x44
 296 319 260 283 246 283 c 0
 232 283 196 319 196 333 c 0
 196 347 232 383 246 383 c 0
 260 383 296 347 296 333 c 0x44
190 333 m 0x50
 190 319 154 283 140 283 c 0
 126 283 90 319 90 333 c 0
 90 347 126 383 140 383 c 0
 154 383 190 347 190 333 c 0x50
243 417 m 0x28
 243 403 207 367 193 367 c 0
 179 367 143 403 143 417 c 0
 143 431 179 467 193 467 c 0
 207 467 243 431 243 417 c 0x28
EndSplineSet
EndChar

StartChar: plusminus
Encoding: 177 177 85
Width: 600
VWidth: 0
UnlinkRmOvrlpSave: 1
Flags: W
HStem: 283 100<107.757 172.243 214.757 279.243 320.757 385.243 427.757 492.243> 450 100<267.757 332.243> 533 100<107.757 172.243 214.757 279.243 320.757 385.243 427.757 492.243> 780 20G<293 307>
VStem: 90 100<300.757 365.243 550.757 615.243> 197 100<300.757 365.243 550.757 615.243> 250 100<467.757 532.243 634.757 697.938 718.219 782.243> 303 100<300.757 365.243 550.757 615.243> 410 100<300.757 365.243 550.757 615.243>
LayerCount: 2
Back
Fore
SplineSet
510 333 m 0x9880
 510 319 474 283 460 283 c 0
 446 283 410 319 410 333 c 0
 410 347 446 383 460 383 c 0
 474 383 510 347 510 333 c 0x9880
403 333 m 0x9980
 403 319 367 283 353 283 c 0
 339 283 303 319 303 333 c 0
 303 347 339 383 353 383 c 0
 367 383 403 347 403 333 c 0x9980
297 333 m 0x9c80
 297 319 261 283 247 283 c 0
 233 283 197 319 197 333 c 0
 197 347 233 383 247 383 c 0
 261 383 297 347 297 333 c 0x9c80
190 333 m 0
 190 319 154 283 140 283 c 0
 126 283 90 319 90 333 c 0
 90 347 126 383 140 383 c 0
 154 383 190 347 190 333 c 0
350 500 m 0xda80
 350 486 314 450 300 450 c 0
 286 450 250 486 250 500 c 0
 250 514 286 550 300 550 c 0
 314 550 350 514 350 500 c 0xda80
510 583 m 0
 510 569 474 533 460 533 c 0
 446 533 410 569 410 583 c 0
 410 597 446 633 460 633 c 0xb880
 474 633 510 597 510 583 c 0
403 583 m 0xb980
 403 569 367 533 353 533 c 0
 339 533 303 569 303 583 c 0
 303 597 339 633 353 633 c 0
 367 633 403 597 403 583 c 0xb980
297 583 m 0xbc80
 297 569 261 533 247 533 c 0
 233 533 197 569 197 583 c 0
 197 597 233 633 247 633 c 0
 261 633 297 597 297 583 c 0xbc80
190 583 m 0
 190 569 154 533 140 533 c 0
 126 533 90 569 90 583 c 0
 90 597 126 633 140 633 c 0
 154 633 190 597 190 583 c 0
350 667 m 0x9a80
 350 653 314 617 300 617 c 0
 286 617 250 653 250 667 c 0
 250 677 268 696 283 708 c 1
 268 720 250 740 250 750 c 0
 250 764 286 800 300 800 c 0
 314 800 350 764 350 750 c 0
 350 740 332 720 317 708 c 1
 332 696 350 677 350 667 c 0x9a80
EndSplineSet
EndChar

StartChar: two
Encoding: 50 50 86
Width: 600
VWidth: 0
UnlinkRmOvrlpSave: 1
Flags: W
HStem: 200 100<107.757 172.243 214.757 279.243 320.757 385.243 427.757 492.243> 283 100<160.757 225.243> 367 100<267.757 332.243> 450 100<374.757 439.243> 617 100<107.757 172.243> 700 100<160.757 225.243 267.757 332.243 374.757 439.243>
VStem: 90 100<217.757 282.243 634.757 699.243> 143 100<300.757 365.243 717.757 782.243> 197 100<217.757 282.243> 250 100<384.757 449.243 717.757 782.243> 303 100<217.757 282.243> 357 100<467.757 532.243 717.757 782.243> 410 100<217.757 282.243 550.757 615.203 634.797 699.243>
LayerCount: 2
Back
Fore
SplineSet
510 250 m 0x8008
 510 236 474 200 460 200 c 0
 446 200 410 236 410 250 c 0
 410 264 446 300 460 300 c 0
 474 300 510 264 510 250 c 0x8008
403 250 m 0x8020
 403 236 367 200 353 200 c 0
 339 200 303 236 303 250 c 0
 303 264 339 300 353 300 c 0
 367 300 403 264 403 250 c 0x8020
297 250 m 0x8080
 297 236 261 200 247 200 c 0
 233 200 197 236 197 250 c 0
 197 264 233 300 247 300 c 0
 261 300 297 264 297 250 c 0x8080
190 250 m 0x82
 190 236 154 200 140 200 c 0
 126 200 90 236 90 250 c 0
 90 264 126 300 140 300 c 0
 154 300 190 264 190 250 c 0x82
243 333 m 0x41
 243 319 207 283 193 283 c 0
 179 283 143 319 143 333 c 0
 143 347 179 383 193 383 c 0
 207 383 243 347 243 333 c 0x41
350 417 m 0x2040
 350 403 314 367 300 367 c 0
 286 367 250 403 250 417 c 0
 250 431 286 467 300 467 c 0
 314 467 350 431 350 417 c 0x2040
457 500 m 0x1010
 457 486 421 450 407 450 c 0
 393 450 357 486 357 500 c 0
 357 514 393 550 407 550 c 0
 421 550 457 514 457 500 c 0x1010
510 583 m 0x0808
 510 569 474 533 460 533 c 0
 446 533 410 569 410 583 c 0
 410 593 428 614 443 625 c 1
 428 636 410 657 410 667 c 0
 410 681 446 717 460 717 c 0
 474 717 510 681 510 667 c 0
 510 657 492 636 477 625 c 1
 492 614 510 593 510 583 c 0x0808
190 667 m 0x0a
 190 653 154 617 140 617 c 0
 126 617 90 653 90 667 c 0
 90 681 126 717 140 717 c 0
 154 717 190 681 190 667 c 0x0a
457 750 m 0x0410
 457 736 421 700 407 700 c 0
 393 700 357 736 357 750 c 0
 357 764 393 800 407 800 c 0
 421 800 457 764 457 750 c 0x0410
350 750 m 0x0440
 350 736 314 700 300 700 c 0
 286 700 250 736 250 750 c 0
 250 764 286 800 300 800 c 0
 314 800 350 764 350 750 c 0x0440
243 750 m 0x05
 243 736 207 700 193 700 c 0
 179 700 143 736 143 750 c 0
 143 764 179 800 193 800 c 0
 207 800 243 764 243 750 c 0x05
EndSplineSet
EndChar

StartChar: mu
Encoding: 181 181 87
Width: 600
VWidth: 0
UnlinkRmOvrlpSave: 1
Flags: W
HStem: 200 21G<133 147> 200 21G<133 147> 367 100<214.757 279.243 320.757 385.243 427.757 492.243> 613 20G<133 147 400 414>
VStem: 90 100<217.757 281.781 302.062 365.203 384.797 447.938 468.219 531.781 552.062 615.243> 197 100<384.757 449.243> 303 100<384.757 449.243> 357 100<467.757 531.781 552.062 615.243> 410 100<384.757 449.243>
LayerCount: 2
Back
Fore
SplineSet
190 250 m 0xbc
 190 236 154 200 140 200 c 0
 126 200 90 236 90 250 c 0
 90 260 108 280 123 292 c 1
 108 304 90 323 90 333 c 0
 90 343 108 364 123 375 c 1
 108 386 90 407 90 417 c 0
 90 427 108 446 123 458 c 1
 108 470 90 490 90 500 c 0
 90 510 108 530 123 542 c 1
 108 554 90 573 90 583 c 0
 90 597 126 633 140 633 c 0
 154 633 190 597 190 583 c 0
 190 573 172 554 157 542 c 1
 172 530 190 510 190 500 c 0
 190 490 172 470 157 458 c 1
 172 446 190 427 190 417 c 0
 190 407 172 386 157 375 c 1
 172 364 190 343 190 333 c 0
 190 323 172 304 157 292 c 1
 172 280 190 260 190 250 c 0xbc
510 417 m 0x3c80
 510 403 474 367 460 367 c 0
 446 367 410 403 410 417 c 0
 410 431 446 467 460 467 c 0
 474 467 510 431 510 417 c 0x3c80
403 417 m 0x3e
 403 403 367 367 353 367 c 0
 339 367 303 403 303 417 c 0
 303 431 339 467 353 467 c 0
 367 467 403 431 403 417 c 0x3e
297 417 m 0
 297 403 261 367 247 367 c 0
 233 367 197 403 197 417 c 0
 197 431 233 467 247 467 c 0
 261 467 297 431 297 417 c 0
457 500 m 0x3d
 457 486 421 450 407 450 c 0
 393 450 357 486 357 500 c 0
 357 510 375 530 390 542 c 1
 375 554 357 573 357 583 c 0
 357 597 393 633 407 633 c 0
 421 633 457 597 457 583 c 0
 457 573 439 554 424 542 c 1
 439 530 457 510 457 500 c 0x3d
EndSplineSet
EndChar

StartChar: six
Encoding: 54 54 88
Width: 600
VWidth: 0
UnlinkRmOvrlpSave: 1
Flags: W
HStem: 200 100<160.757 225.243 267.757 332.243 374.757 439.243> 450 100<160.757 225.243 267.757 332.243 374.757 439.243> 533 100<214.757 279.243> 617 100<267.757 332.243> 700 100<320.757 385.243>
VStem: 90 100<300.757 365.203 384.797 449.243> 143 100<217.757 282.243 467.757 532.243> 197 100<550.757 615.243> 250 100<217.757 282.243 467.757 532.243 634.757 699.243> 303 100<717.757 782.243> 357 100<217.757 282.243 467.757 532.243> 410 100<300.757 365.203 384.797 449.243>
LayerCount: 2
Back
Fore
SplineSet
457 250 m 0x8020
 457 236 421 200 407 200 c 0
 393 200 357 236 357 250 c 0
 357 264 393 300 407 300 c 0
 421 300 457 264 457 250 c 0x8020
350 250 m 0x8080
 350 236 314 200 300 200 c 0
 286 200 250 236 250 250 c 0
 250 264 286 300 300 300 c 0
 314 300 350 264 350 250 c 0x8080
243 250 m 0x82
 243 236 207 200 193 200 c 0
 179 200 143 236 143 250 c 0
 143 264 179 300 193 300 c 0
 207 300 243 264 243 250 c 0x82
510 333 m 1x8010
 510 319 474 283 460 283 c 0
 446 283 410 319 410 333 c 0
 410 343 428 364 443 375 c 1
 428 386 410 407 410 417 c 1
 410 431 446 467 460 467 c 0
 474 467 510 431 510 417 c 0
 510 407 492 386 477 375 c 1
 492 364 510 343 510 333 c 1x8010
190 333 m 0x84
 190 319 154 283 140 283 c 0
 126 283 90 319 90 333 c 0
 90 343 108 364 123 375 c 1
 108 386 90 407 90 417 c 0
 90 431 126 467 140 467 c 0
 154 467 190 431 190 417 c 0
 190 407 172 386 157 375 c 1
 172 364 190 343 190 333 c 0x84
457 500 m 0xc020
 457 486 421 450 407 450 c 0
 393 450 357 486 357 500 c 0
 357 514 393 550 407 550 c 0
 421 550 457 514 457 500 c 0xc020
350 500 m 0xc080
 350 486 314 450 300 450 c 0
 286 450 250 486 250 500 c 0
 250 514 286 550 300 550 c 0
 314 550 350 514 350 500 c 0xc080
243 500 m 0xc2
 243 486 207 450 193 450 c 0
 179 450 143 486 143 500 c 0
 143 514 179 550 193 550 c 0
 207 550 243 514 243 500 c 0xc2
297 583 m 0xa1
 297 569 261 533 247 533 c 0
 233 533 197 569 197 583 c 0
 197 597 233 633 247 633 c 0
 261 633 297 597 297 583 c 0xa1
350 667 m 0x9080
 350 653 314 617 300 617 c 0
 286 617 250 653 250 667 c 0
 250 681 286 717 300 717 c 0
 314 717 350 681 350 667 c 0x9080
403 750 m 0x8840
 403 736 367 700 353 700 c 0
 339 700 303 736 303 750 c 0
 303 764 339 800 353 800 c 0
 367 800 403 764 403 750 c 0x8840
EndSplineSet
EndChar

StartChar: colon
Encoding: 58 58 89
Width: 600
VWidth: 0
UnlinkRmOvrlpSave: 1
Flags: W
HStem: 200 100<160.757 225.243> 283 100<107.757 172.243 213.757 278.243> 367 100<160.757 225.243> 533 100<160.757 225.243> 617 100<107.757 172.243 213.757 278.243> 700 100<160.757 225.243>
VStem: 90 100<300.757 365.243 634.757 699.243> 143 100<217.757 282.243 384.757 449.243 550.757 615.243 717.757 782.243> 196 100<300.757 365.243 634.757 699.243>
LayerCount: 2
Back
Fore
SplineSet
243 250 m 0x81
 243 236 207 200 193 200 c 0
 179 200 143 236 143 250 c 0
 143 264 179 300 193 300 c 0
 207 300 243 264 243 250 c 0x81
296 333 m 0x4080
 296 319 260 283 246 283 c 0
 232 283 196 319 196 333 c 0
 196 347 232 383 246 383 c 0
 260 383 296 347 296 333 c 0x4080
190 333 m 0x42
 190 319 154 283 140 283 c 0
 126 283 90 319 90 333 c 0
 90 347 126 383 140 383 c 0
 154 383 190 347 190 333 c 0x42
243 417 m 0x21
 243 403 207 367 193 367 c 0
 179 367 143 403 143 417 c 0
 143 431 179 467 193 467 c 0
 207 467 243 431 243 417 c 0x21
243 583 m 0
 243 569 207 533 193 533 c 0
 179 533 143 569 143 583 c 0
 143 597 179 633 193 633 c 0x11
 207 633 243 597 243 583 c 0
296 667 m 0x0880
 296 653 260 617 246 617 c 0
 232 617 196 653 196 667 c 0
 196 681 232 717 246 717 c 0
 260 717 296 681 296 667 c 0x0880
190 667 m 0x0a
 190 653 154 617 140 617 c 0
 126 617 90 653 90 667 c 0
 90 681 126 717 140 717 c 0
 154 717 190 681 190 667 c 0x0a
243 750 m 0x05
 243 736 207 700 193 700 c 0
 179 700 143 736 143 750 c 0
 143 764 179 800 193 800 c 0
 207 800 243 764 243 750 c 0x05
EndSplineSet
EndChar

StartChar: greater
Encoding: 62 62 90
Width: 600
VWidth: 0
UnlinkRmOvrlpSave: 1
Flags: W
HStem: 200 100<107.757 172.243> 283 100<214.757 279.243> 367 100<320.757 385.243> 450 100<427.757 492.243> 533 100<320.757 385.243> 617 100<214.757 279.243> 700 100<107.757 172.243>
VStem: 90 100<217.757 282.243 717.757 782.243> 197 100<300.757 365.243 634.757 699.243> 303 100<384.757 449.243 550.757 615.243> 410 100<467.757 532.243>
LayerCount: 2
Back
Fore
SplineSet
190 250 m 0x81e0
 190 236 154 200 140 200 c 0
 126 200 90 236 90 250 c 0
 90 264 126 300 140 300 c 0
 154 300 190 264 190 250 c 0x81e0
297 333 m 0
 297 319 261 283 247 283 c 0
 233 283 197 319 197 333 c 0
 197 347 233 383 247 383 c 0x41e0
 261 383 297 347 297 333 c 0
403 417 m 0
 403 403 367 367 353 367 c 0
 339 367 303 403 303 417 c 0
 303 431 339 467 353 467 c 0x21e0
 367 467 403 431 403 417 c 0
510 500 m 0
 510 486 474 450 460 450 c 0
 446 450 410 486 410 500 c 0
 410 514 446 550 460 550 c 0x11e0
 474 550 510 514 510 500 c 0
403 583 m 0
 403 569 367 533 353 533 c 0
 339 533 303 569 303 583 c 0
 303 597 339 633 353 633 c 0x09e0
 367 633 403 597 403 583 c 0
297 667 m 0
 297 653 261 617 247 617 c 0
 233 617 197 653 197 667 c 0
 197 681 233 717 247 717 c 0x05e0
 261 717 297 681 297 667 c 0
190 750 m 0
 190 736 154 700 140 700 c 0
 126 700 90 736 90 750 c 0
 90 764 126 800 140 800 c 0x03e0
 154 800 190 764 190 750 c 0
EndSplineSet
EndChar

StartChar: Aacute
Encoding: 193 193 91
Width: 600
VWidth: 0
UnlinkRmOvrlpSave: 1
Flags: W
HStem: 200 21G<133 147 453 467> 200 21G<133 147 453 467> 283 100<214.757 279.243 320.757 385.243> 367 100<160.757 225.243 374.757 439.243> 450 100<214.757 279.243 320.757 385.243> 700 100<320.757 385.243>
VStem: 90 100<217.757 281.781 302.062 365.243> 143 100<384.757 449.243> 197 100<300.757 365.243 467.757 532.243> 250 100<550.757 615.203 634.797 699.243> 303 100<300.757 365.243 467.757 532.243 717.757 782.243> 357 100<384.757 449.243> 410 100<217.757 281.781 302.062 365.243>
LayerCount: 2
Back
Fore
SplineSet
510 250 m 0xa408
 510 236 474 200 460 200 c 0
 446 200 410 236 410 250 c 0
 410 260 428 280 443 292 c 1
 428 304 410 323 410 333 c 0
 410 347 446 383 460 383 c 0
 474 383 510 347 510 333 c 0
 510 323 492 304 477 292 c 1
 492 280 510 260 510 250 c 0xa408
190 250 m 0xa6
 190 236 154 200 140 200 c 0
 126 200 90 236 90 250 c 0
 90 260 108 280 123 292 c 1
 108 304 90 323 90 333 c 0
 90 347 126 383 140 383 c 0
 154 383 190 347 190 333 c 0
 190 323 172 304 157 292 c 1
 172 280 190 260 190 250 c 0xa6
403 333 m 0x2420
 403 319 367 283 353 283 c 0
 339 283 303 319 303 333 c 0
 303 347 339 383 353 383 c 0
 367 383 403 347 403 333 c 0x2420
297 333 m 0x2480
 297 319 261 283 247 283 c 0
 233 283 197 319 197 333 c 0
 197 347 233 383 247 383 c 0
 261 383 297 347 297 333 c 0x2480
457 417 m 0x1410
 457 403 421 367 407 367 c 0
 393 367 357 403 357 417 c 0
 357 431 393 467 407 467 c 0
 421 467 457 431 457 417 c 0x1410
243 417 m 0x15
 243 403 207 367 193 367 c 0
 179 367 143 403 143 417 c 0
 143 431 179 467 193 467 c 0
 207 467 243 431 243 417 c 0x15
403 500 m 0x0c20
 403 486 367 450 353 450 c 0
 339 450 303 486 303 500 c 0
 303 514 339 550 353 550 c 0
 367 550 403 514 403 500 c 0x0c20
297 500 m 0x0c80
 297 486 261 450 247 450 c 0
 233 450 197 486 197 500 c 0
 197 514 233 550 247 550 c 0
 261 550 297 514 297 500 c 0x0c80
350 583 m 0x0440
 350 569 314 533 300 533 c 0
 286 533 250 569 250 583 c 0
 250 593 268 614 283 625 c 1
 268 636 250 657 250 667 c 0
 250 681 286 717 300 717 c 0
 314 717 350 681 350 667 c 0
 350 657 332 636 317 625 c 1
 332 614 350 593 350 583 c 0x0440
403 750 m 0x0420
 403 736 367 700 353 700 c 0
 339 700 303 736 303 750 c 0
 303 764 339 800 353 800 c 0
 367 800 403 764 403 750 c 0x0420
EndSplineSet
EndChar

StartChar: B
Encoding: 66 66 92
Width: 600
VWidth: 0
UnlinkRmOvrlpSave: 1
Flags: W
HStem: 200 100<107.757 172.243 214.757 279.243 320.757 385.243> 450 100<267.757 332.243 374.757 439.243> 700 100<107.757 172.243 214.757 279.243 320.757 385.243>
VStem: 90 100<217.757 282.243 717.757 782.243> 143 100<300.757 365.203 384.797 447.938 468.219 531.781 552.062 615.203 634.797 699.243> 197 100<217.757 282.243 717.757 782.243> 250 100<467.757 532.243> 303 100<217.757 282.243 717.757 782.243> 357 100<467.757 532.243> 410 100<300.757 365.203 384.797 449.243 550.757 615.203 634.797 699.243>
CounterMasks: 1 e0
LayerCount: 2
Back
Fore
SplineSet
403 250 m 0xe1
 403 236 367 200 353 200 c 0
 339 200 303 236 303 250 c 0
 303 264 339 300 353 300 c 0
 367 300 403 264 403 250 c 0xe1
297 250 m 0xe4
 297 236 261 200 247 200 c 0
 233 200 197 236 197 250 c 0
 197 264 233 300 247 300 c 0
 261 300 297 264 297 250 c 0xe4
190 250 m 0xf0
 190 236 154 200 140 200 c 0
 126 200 90 236 90 250 c 0
 90 264 126 300 140 300 c 0
 154 300 190 264 190 250 c 0xf0
510 333 m 1xe040
 510 319 474 283 460 283 c 0
 446 283 410 319 410 333 c 0
 410 343 428 364 443 375 c 1
 428 386 410 407 410 417 c 1
 410 431 446 467 460 467 c 0
 474 467 510 431 510 417 c 0
 510 407 492 386 477 375 c 1
 492 364 510 343 510 333 c 1xe040
243 333 m 0xe8
 243 319 207 283 193 283 c 0
 179 283 143 319 143 333 c 0
 143 343 161 364 176 375 c 1
 161 386 143 407 143 417 c 0
 143 427 161 446 176 458 c 1
 161 470 143 490 143 500 c 0
 143 510 161 530 176 542 c 1
 161 554 143 573 143 583 c 0
 143 593 161 614 176 625 c 1
 161 636 143 657 143 667 c 0
 143 681 179 717 193 717 c 0
 207 717 243 681 243 667 c 0
 243 657 225 636 210 625 c 1
 225 614 243 593 243 583 c 0
 243 573 225 554 210 542 c 1
 225 530 243 510 243 500 c 0
 243 490 225 470 210 458 c 1
 225 446 243 427 243 417 c 0
 243 407 225 386 210 375 c 1
 225 364 243 343 243 333 c 0xe8
457 500 m 0xe080
 457 486 421 450 407 450 c 0
 393 450 357 486 357 500 c 0
 357 514 393 550 407 550 c 0
 421 550 457 514 457 500 c 0xe080
350 500 m 0xe2
 350 486 314 450 300 450 c 0
 286 450 250 486 250 500 c 0
 250 514 286 550 300 550 c 0
 314 550 350 514 350 500 c 0xe2
510 583 m 0xe040
 510 569 474 533 460 533 c 0
 446 533 410 569 410 583 c 0
 410 593 428 614 443 625 c 1
 428 636 410 657 410 667 c 0
 410 681 446 717 460 717 c 0
 474 717 510 681 510 667 c 0
 510 657 492 636 477 625 c 1
 492 614 510 593 510 583 c 0xe040
403 750 m 0xe1
 403 736 367 700 353 700 c 0
 339 700 303 736 303 750 c 0
 303 764 339 800 353 800 c 0
 367 800 403 764 403 750 c 0xe1
297 750 m 0xe4
 297 736 261 700 247 700 c 0
 233 700 197 736 197 750 c 0
 197 764 233 800 247 800 c 0
 261 800 297 764 297 750 c 0xe4
190 750 m 0xf0
 190 736 154 700 140 700 c 0
 126 700 90 736 90 750 c 0
 90 764 126 800 140 800 c 0
 154 800 190 764 190 750 c 0xf0
EndSplineSet
EndChar

StartChar: Aring
Encoding: 197 197 93
Width: 600
VWidth: 0
UnlinkRmOvrlpSave: 1
Flags: W
HStem: 200 21G<133 147 453 467> 200 21G<133 147 453 467> 283 100<214.757 279.243 320.757 385.243> 367 100<160.757 225.243 374.757 439.243> 450 100<214.757 279.243 320.757 385.243> 533 100<267.757 332.243> 617 100<214.757 279.243 320.757 385.243> 700 100<267.757 332.243>
VStem: 90 100<217.757 281.781 302.062 365.243> 143 100<384.757 449.243> 197 100<300.757 365.243 467.757 532.243 634.757 699.243> 250 100<550.757 615.243 717.757 782.243> 303 100<300.757 365.243 467.757 532.243 634.757 699.243> 357 100<384.757 449.243> 410 100<217.757 281.781 302.062 365.243>
LayerCount: 2
Back
Fore
SplineSet
510 250 m 0xa002
 510 236 474 200 460 200 c 0
 446 200 410 236 410 250 c 0
 410 260 428 280 443 292 c 1
 428 304 410 323 410 333 c 0
 410 347 446 383 460 383 c 0
 474 383 510 347 510 333 c 0
 510 323 492 304 477 292 c 1
 492 280 510 260 510 250 c 0xa002
190 250 m 0xa080
 190 236 154 200 140 200 c 0
 126 200 90 236 90 250 c 0
 90 260 108 280 123 292 c 1
 108 304 90 323 90 333 c 0
 90 347 126 383 140 383 c 0
 154 383 190 347 190 333 c 0
 190 323 172 304 157 292 c 1
 172 280 190 260 190 250 c 0xa080
403 333 m 0x2008
 403 319 367 283 353 283 c 0
 339 283 303 319 303 333 c 0
 303 347 339 383 353 383 c 0
 367 383 403 347 403 333 c 0x2008
297 333 m 0x2020
 297 319 261 283 247 283 c 0
 233 283 197 319 197 333 c 0
 197 347 233 383 247 383 c 0
 261 383 297 347 297 333 c 0x2020
457 417 m 0x1004
 457 403 421 367 407 367 c 0
 393 367 357 403 357 417 c 0
 357 431 393 467 407 467 c 0
 421 467 457 431 457 417 c 0x1004
243 417 m 0x1040
 243 403 207 367 193 367 c 0
 179 367 143 403 143 417 c 0
 143 431 179 467 193 467 c 0
 207 467 243 431 243 417 c 0x1040
403 500 m 0x0808
 403 486 367 450 353 450 c 0
 339 450 303 486 303 500 c 0
 303 514 339 550 353 550 c 0
 367 550 403 514 403 500 c 0x0808
297 500 m 0x0820
 297 486 261 450 247 450 c 0
 233 450 197 486 197 500 c 0
 197 514 233 550 247 550 c 0
 261 550 297 514 297 500 c 0x0820
350 583 m 0x0410
 350 569 314 533 300 533 c 0
 286 533 250 569 250 583 c 0
 250 597 286 633 300 633 c 0
 314 633 350 597 350 583 c 0x0410
403 667 m 0x0208
 403 653 367 617 353 617 c 0
 339 617 303 653 303 667 c 0
 303 681 339 717 353 717 c 0
 367 717 403 681 403 667 c 0x0208
297 667 m 0x0220
 297 653 261 617 247 617 c 0
 233 617 197 653 197 667 c 0
 197 681 233 717 247 717 c 0
 261 717 297 681 297 667 c 0x0220
350 750 m 0x0110
 350 736 314 700 300 700 c 0
 286 700 250 736 250 750 c 0
 250 764 286 800 300 800 c 0
 314 800 350 764 350 750 c 0x0110
EndSplineSet
EndChar

StartChar: F
Encoding: 70 70 94
Width: 600
VWidth: 0
UnlinkRmOvrlpSave: 1
Flags: W
HStem: 200 21G<133 147> 200 21G<133 147> 450 100<214.757 279.243 320.757 385.243> 700 100<214.757 279.243 320.757 385.243 427.757 492.243>
VStem: 90 100<217.757 281.781 302.062 365.203 384.797 447.938 468.219 531.781 552.062 615.203 634.797 697.938 718.219 782.243> 197 100<467.757 532.243 717.757 782.243> 303 100<467.757 532.243 717.757 782.243> 410 100<717.757 782.243>
LayerCount: 2
Back
Fore
SplineSet
190 250 m 0xbf
 190 236 154 200 140 200 c 0
 126 200 90 236 90 250 c 0
 90 260 108 280 123 292 c 1
 108 304 90 323 90 333 c 0
 90 343 108 364 123 375 c 1
 108 386 90 407 90 417 c 0
 90 427 108 446 123 458 c 1
 108 470 90 490 90 500 c 0
 90 510 108 530 123 542 c 1
 108 554 90 573 90 583 c 0
 90 593 108 614 123 625 c 1
 108 636 90 657 90 667 c 0
 90 677 108 696 123 708 c 1
 108 720 90 740 90 750 c 0
 90 764 126 800 140 800 c 0
 154 800 190 764 190 750 c 0
 190 740 172 720 157 708 c 1
 172 696 190 677 190 667 c 0
 190 657 172 636 157 625 c 1
 172 614 190 593 190 583 c 0
 190 573 172 554 157 542 c 1
 172 530 190 510 190 500 c 0
 190 490 172 470 157 458 c 1
 172 446 190 427 190 417 c 0
 190 407 172 386 157 375 c 1
 172 364 190 343 190 333 c 0
 190 323 172 304 157 292 c 1
 172 280 190 260 190 250 c 0xbf
403 500 m 0
 403 486 367 450 353 450 c 0
 339 450 303 486 303 500 c 0
 303 514 339 550 353 550 c 0
 367 550 403 514 403 500 c 0
297 500 m 0
 297 486 261 450 247 450 c 0
 233 450 197 486 197 500 c 0
 197 514 233 550 247 550 c 0
 261 550 297 514 297 500 c 0
510 750 m 0
 510 736 474 700 460 700 c 0
 446 700 410 736 410 750 c 0
 410 764 446 800 460 800 c 0
 474 800 510 764 510 750 c 0
403 750 m 0
 403 736 367 700 353 700 c 0
 339 700 303 736 303 750 c 0
 303 764 339 800 353 800 c 0
 367 800 403 764 403 750 c 0
297 750 m 0
 297 736 261 700 247 700 c 0
 233 700 197 736 197 750 c 0
 197 764 233 800 247 800 c 0
 261 800 297 764 297 750 c 0
EndSplineSet
EndChar

StartChar: Eacute
Encoding: 201 201 95
Width: 600
VWidth: 0
UnlinkRmOvrlpSave: 1
Flags: W
HStem: 200 100<214.757 279.243 320.757 385.243 427.757 492.243> 367 100<214.757 279.243 320.757 385.243> 533 100<214.757 279.243 320.757 385.243 427.757 492.243> 617 100<267.757 332.243> 700 100<320.757 385.243>
VStem: 90 100<217.757 281.781 302.062 365.203 384.797 447.938 468.219 531.781 552.062 615.243> 197 100<217.757 282.243 384.757 449.243 550.757 615.243> 250 100<634.757 699.243> 303 100<217.757 282.243 384.757 449.243 550.757 615.243 717.757 782.243> 410 100<217.757 282.243 550.757 615.243>
LayerCount: 2
Back
Fore
SplineSet
510 250 m 0xc440
 510 236 474 200 460 200 c 0
 446 200 410 236 410 250 c 0
 410 264 446 300 460 300 c 0
 474 300 510 264 510 250 c 0xc440
403 250 m 0xc4c0
 403 236 367 200 353 200 c 0
 339 200 303 236 303 250 c 0
 303 264 339 300 353 300 c 0
 367 300 403 264 403 250 c 0xc4c0
297 250 m 0xc640
 297 236 261 200 247 200 c 0
 233 200 197 236 197 250 c 0
 197 264 233 300 247 300 c 0
 261 300 297 264 297 250 c 0xc640
190 250 m 0
 190 236 154 200 140 200 c 0
 126 200 90 236 90 250 c 0
 90 260 108 280 123 292 c 1
 108 304 90 323 90 333 c 0
 90 343 108 364 123 375 c 1
 108 386 90 407 90 417 c 0
 90 427 108 446 123 458 c 1
 108 470 90 490 90 500 c 0
 90 510 108 530 123 542 c 1
 108 554 90 573 90 583 c 0
 90 597 126 633 140 633 c 0xe440
 154 633 190 597 190 583 c 0
 190 573 172 554 157 542 c 1
 172 530 190 510 190 500 c 0
 190 490 172 470 157 458 c 1
 172 446 190 427 190 417 c 0
 190 407 172 386 157 375 c 1
 172 364 190 343 190 333 c 0
 190 323 172 304 157 292 c 1
 172 280 190 260 190 250 c 0
403 417 m 0xc4c0
 403 403 367 367 353 367 c 0
 339 367 303 403 303 417 c 0
 303 431 339 467 353 467 c 0
 367 467 403 431 403 417 c 0xc4c0
297 417 m 0xc640
 297 403 261 367 247 367 c 0
 233 367 197 403 197 417 c 0
 197 431 233 467 247 467 c 0
 261 467 297 431 297 417 c 0xc640
510 583 m 0
 510 569 474 533 460 533 c 0
 446 533 410 569 410 583 c 0
 410 597 446 633 460 633 c 0xe440
 474 633 510 597 510 583 c 0
403 583 m 0xe4c0
 403 569 367 533 353 533 c 0
 339 533 303 569 303 583 c 0
 303 597 339 633 353 633 c 0
 367 633 403 597 403 583 c 0xe4c0
297 583 m 0xe640
 297 569 261 533 247 533 c 0
 233 533 197 569 197 583 c 0
 197 597 233 633 247 633 c 0
 261 633 297 597 297 583 c 0xe640
350 667 m 0xd540
 350 653 314 617 300 617 c 0
 286 617 250 653 250 667 c 0
 250 681 286 717 300 717 c 0
 314 717 350 681 350 667 c 0xd540
403 750 m 0xccc0
 403 736 367 700 353 700 c 0
 339 700 303 736 303 750 c 0
 303 764 339 800 353 800 c 0
 367 800 403 764 403 750 c 0xccc0
EndSplineSet
EndChar

StartChar: J
Encoding: 74 74 96
Width: 600
VWidth: 0
UnlinkRmOvrlpSave: 1
Flags: W
HStem: 200 100<160.757 225.243 267.757 332.243 374.757 439.243> 283 100<107.757 172.243> 780 20G<453 467>
VStem: 90 100<300.757 365.243> 143 100<217.757 282.243> 250 100<217.757 282.243> 357 100<217.757 282.243> 410 100<300.757 365.203 384.797 447.938 468.219 531.781 552.062 615.203 634.797 697.938 718.219 782.243>
LayerCount: 2
Back
Fore
SplineSet
457 250 m 0xa6
 457 236 421 200 407 200 c 0
 393 200 357 236 357 250 c 0
 357 264 393 300 407 300 c 0
 421 300 457 264 457 250 c 0xa6
350 250 m 0
 350 236 314 200 300 200 c 0
 286 200 250 236 250 250 c 0
 250 264 286 300 300 300 c 0
 314 300 350 264 350 250 c 0
243 250 m 0xac
 243 236 207 200 193 200 c 0
 179 200 143 236 143 250 c 0
 143 264 179 300 193 300 c 0
 207 300 243 264 243 250 c 0xac
510 333 m 1x65
 510 319 474 283 460 283 c 0
 446 283 410 319 410 333 c 0
 410 343 428 364 443 375 c 1
 428 386 410 407 410 417 c 1
 410 427 428 446 443 458 c 1
 428 470 410 490 410 500 c 0
 410 510 428 530 443 542 c 1
 428 554 410 573 410 583 c 0
 410 593 428 614 443 625 c 1
 428 636 410 657 410 667 c 0
 410 677 428 696 443 708 c 1
 428 720 410 740 410 750 c 0
 410 764 446 800 460 800 c 0
 474 800 510 764 510 750 c 0
 510 740 492 720 477 708 c 1
 492 696 510 677 510 667 c 0
 510 657 492 636 477 625 c 1
 492 614 510 593 510 583 c 0
 510 573 492 554 477 542 c 1
 492 530 510 510 510 500 c 0
 510 490 492 470 477 458 c 1
 492 446 510 427 510 417 c 0
 510 407 492 386 477 375 c 1
 492 364 510 343 510 333 c 1x65
190 333 m 0x74
 190 319 154 283 140 283 c 0
 126 283 90 319 90 333 c 0
 90 347 126 383 140 383 c 0
 154 383 190 347 190 333 c 0x74
EndSplineSet
EndChar

StartChar: N
Encoding: 78 78 97
Width: 600
VWidth: 0
UnlinkRmOvrlpSave: 1
Flags: W
HStem: 200 100<427.757 492.243> 200 21G<133 147> 283 100<374.757 439.243> 367 100<320.757 385.243> 450 100<267.757 332.243> 533 100<214.757 279.243> 617 100<160.757 225.243> 700 100<107.757 172.243>
VStem: 90 100<217.757 281.781 302.062 365.203 384.797 447.938 468.219 531.781 552.062 615.243 717.757 782.243> 143 100<634.757 699.243> 197 100<550.757 615.243> 250 100<467.757 532.243> 303 100<384.757 449.243> 357 100<300.757 365.243> 410 100<217.757 282.243 384.757 447.938 468.219 531.781 552.062 615.203 634.797 697.938 718.219 782.243>
LayerCount: 2
Back
Fore
SplineSet
510 250 m 0x8002
 510 236 474 200 460 200 c 0
 446 200 410 236 410 250 c 0
 410 264 446 300 460 300 c 0
 474 300 510 264 510 250 c 0x8002
190 250 m 0x4480
 190 236 154 200 140 200 c 0
 126 200 90 236 90 250 c 0
 90 260 108 280 123 292 c 1
 108 304 90 323 90 333 c 0
 90 343 108 364 123 375 c 1
 108 386 90 407 90 417 c 0
 90 427 108 446 123 458 c 1
 108 470 90 490 90 500 c 0
 90 510 108 530 123 542 c 1
 108 554 90 573 90 583 c 0
 90 597 126 633 140 633 c 0
 154 633 190 597 190 583 c 0
 190 573 172 554 157 542 c 1
 172 530 190 510 190 500 c 0
 190 490 172 470 157 458 c 1
 172 446 190 427 190 417 c 0
 190 407 172 386 157 375 c 1
 172 364 190 343 190 333 c 0
 190 323 172 304 157 292 c 1
 172 280 190 260 190 250 c 0x4480
457 333 m 0x2004
 457 319 421 283 407 283 c 0
 393 283 357 319 357 333 c 0
 357 347 393 383 407 383 c 0
 421 383 457 347 457 333 c 0x2004
510 417 m 0x1102
 510 403 474 367 460 367 c 0
 446 367 410 403 410 417 c 0
 410 427 428 446 443 458 c 1
 428 470 410 490 410 500 c 0
 410 510 428 530 443 542 c 1
 428 554 410 573 410 583 c 0
 410 593 428 614 443 625 c 1
 428 636 410 657 410 667 c 0
 410 677 428 696 443 708 c 1
 428 720 410 740 410 750 c 0
 410 764 446 800 460 800 c 0
 474 800 510 764 510 750 c 0
 510 740 492 720 477 708 c 1
 492 696 510 677 510 667 c 0
 510 657 492 636 477 625 c 1
 492 614 510 593 510 583 c 0
 510 573 492 554 477 542 c 1
 492 530 510 510 510 500 c 0
 510 490 492 470 477 458 c 1
 492 446 510 427 510 417 c 0x1102
403 417 m 0x1008
 403 403 367 367 353 367 c 0
 339 367 303 403 303 417 c 0
 303 431 339 467 353 467 c 0
 367 467 403 431 403 417 c 0x1008
350 500 m 0x0810
 350 486 314 450 300 450 c 0
 286 450 250 486 250 500 c 0
 250 514 286 550 300 550 c 0
 314 550 350 514 350 500 c 0x0810
297 583 m 0x0420
 297 569 261 533 247 533 c 0
 233 533 197 569 197 583 c 0
 197 597 233 633 247 633 c 0
 261 633 297 597 297 583 c 0x0420
243 667 m 0x0240
 243 653 207 617 193 617 c 0
 179 617 143 653 143 667 c 0
 143 681 179 717 193 717 c 0
 207 717 243 681 243 667 c 0x0240
190 750 m 0x0180
 190 736 154 700 140 700 c 0
 126 700 90 736 90 750 c 0
 90 764 126 800 140 800 c 0
 154 800 190 764 190 750 c 0x0180
EndSplineSet
EndChar

StartChar: R
Encoding: 82 82 98
Width: 600
VWidth: 0
UnlinkRmOvrlpSave: 1
Flags: W
HStem: 200 100<427.757 492.243> 200 21G<133 147> 283 100<374.757 439.243> 450 100<214.757 279.243> 700 100<214.757 279.243 320.757 385.243>
VStem: 90 100<217.757 281.781 302.062 365.203 384.797 447.938 468.219 531.781 552.062 615.203 634.797 697.938 718.219 782.243> 197 100<467.757 532.243 717.757 782.243> 303 100<384.757 447.938 468.219 532.243 717.757 782.243> 357 100<300.757 365.243> 410 100<217.757 282.243 550.757 615.203 634.797 699.243>
LayerCount: 2
Back
Fore
SplineSet
510 250 m 0x9e40
 510 236 474 200 460 200 c 0
 446 200 410 236 410 250 c 0
 410 264 446 300 460 300 c 0
 474 300 510 264 510 250 c 0x9e40
190 250 m 0
 190 236 154 200 140 200 c 0x5e
 126 200 90 236 90 250 c 0
 90 260 108 280 123 292 c 1
 108 304 90 323 90 333 c 0
 90 343 108 364 123 375 c 1
 108 386 90 407 90 417 c 0
 90 427 108 446 123 458 c 1
 108 470 90 490 90 500 c 0
 90 510 108 530 123 542 c 1
 108 554 90 573 90 583 c 0
 90 593 108 614 123 625 c 1
 108 636 90 657 90 667 c 0
 90 677 108 696 123 708 c 1
 108 720 90 740 90 750 c 0
 90 764 126 800 140 800 c 0
 154 800 190 764 190 750 c 0
 190 740 172 720 157 708 c 1
 172 696 190 677 190 667 c 0
 190 657 172 636 157 625 c 1
 172 614 190 593 190 583 c 0
 190 573 172 554 157 542 c 1
 172 530 190 510 190 500 c 0
 190 490 172 470 157 458 c 1
 172 446 190 427 190 417 c 0
 190 407 172 386 157 375 c 1
 172 364 190 343 190 333 c 0
 190 323 172 304 157 292 c 1
 172 280 190 260 190 250 c 0
457 333 m 0x3e80
 457 319 421 283 407 283 c 0
 393 283 357 319 357 333 c 0
 357 347 393 383 407 383 c 0
 421 383 457 347 457 333 c 0x3e80
403 417 m 0x1f
 403 403 367 367 353 367 c 0
 339 367 303 403 303 417 c 0
 303 427 321 446 336 458 c 1
 321 470 303 490 303 500 c 0
 303 514 339 550 353 550 c 0
 367 550 403 514 403 500 c 0
 403 490 385 470 370 458 c 1
 385 446 403 427 403 417 c 0x1f
297 500 m 0
 297 486 261 450 247 450 c 0
 233 450 197 486 197 500 c 0
 197 514 233 550 247 550 c 0
 261 550 297 514 297 500 c 0
510 583 m 0x1e40
 510 569 474 533 460 533 c 0
 446 533 410 569 410 583 c 0
 410 593 428 614 443 625 c 1
 428 636 410 657 410 667 c 0
 410 681 446 717 460 717 c 0
 474 717 510 681 510 667 c 0
 510 657 492 636 477 625 c 1
 492 614 510 593 510 583 c 0x1e40
403 750 m 0x1f
 403 736 367 700 353 700 c 0
 339 700 303 736 303 750 c 0
 303 764 339 800 353 800 c 0
 367 800 403 764 403 750 c 0x1f
297 750 m 0
 297 736 261 700 247 700 c 0
 233 700 197 736 197 750 c 0
 197 764 233 800 247 800 c 0
 261 800 297 764 297 750 c 0
EndSplineSet
EndChar

